<?xml version="1.0" encoding="utf-8"?>
<!-- Generator: Adobe Illustrator 22.0.0, SVG Export Plug-In . SVG Version: 6.00 Build 0)  -->
<svg version="1.1" id="Layer_1" xmlns="http://www.w3.org/2000/svg" xmlns:xlink="http://www.w3.org/1999/xlink" x="0px" y="0px"
	 viewBox="0 0 50 50" style="enable-background:new 0 0 50 50;" xml:space="preserve">
<style type="text/css">
	.st0{fill:#9EA9C9;}
	.st1{fill:#B0B8CF;}
	.st2{fill:#C9CEE2;}
	.st3{fill:#E3E7F0;}
	.st4{fill:#F45170;}
	.st5{fill:#FFFFFF;}
	.st6{fill:#57B3FE;}
	.st7{fill:#E8E6FB;}
	.st8{fill:#DEDFFB;}
	.st9{fill:#F3F1FC;}
	.st10{fill:#1D2943;}
	.st11{fill:#4C5C75;}
	.st12{fill:#F9A83D;}
	.st13{fill:#FFD06C;}
	.st14{fill:#FFDE9B;}
	.st15{fill:#FEBC1F;}
	.st16{fill:#5094FF;}
	.st17{fill:#F8CA2F;}
	.st18{fill:#E93565;}
	.st19{fill:#DF3260;}
	.st20{opacity:0.8;fill:#F45170;}
	.st21{opacity:0.5;}
	.st22{enable-background:new    ;}
	.st23{fill:#DBA660;}
	.st24{fill:#111D33;}
	.st25{fill:none;}
	.st26{fill:#F8F9FE;}
	.st27{fill:#E9E7FC;}
	.st28{fill:#EDEEF2;}
	.st29{fill:#DEDFFA;}
	.st30{fill:#0F1522;}
	.st31{fill:#78E75A;}
	.st32{fill:#72D561;}
	.st33{fill:#986FF9;}
	.st34{fill:#B28AFD;}
	.st35{fill:#497BFE;}
	.st36{fill:#7E5AF2;}
	.st37{fill:#3B3E3F;}
	.st38{fill:#FEFEFE;}
	.st39{fill:#BF7D5A;}
	.st40{fill:#F4D6D4;}
	.st41{fill:#F5C9C6;}
	.st42{fill:#5EC363;}
	.st43{fill:#FFD475;}
	.st44{fill:#FFDD95;}
	.st45{fill:#FFB961;}
	.st46{fill:#DADCF7;}
	.st47{fill:#AA6256;}
	.st48{fill:#8A4852;}
	.st49{fill:#CED1F2;}
	.st50{fill:#3979EA;}
	.st51{fill:#29313F;}
	.st52{fill:#3B475A;}
	.st53{fill:#414F65;}
	.st54{opacity:0.2;fill:#57B3FE;}
	.st55{fill:#50B069;}
	.st56{fill:#C8C7D9;}
	.st57{fill:#822B3C;}
	.st58{fill:#D24660;}
	.st59{fill:#7D7B87;}
	.st60{fill:#B4B3C3;}
	.st61{fill:#BD3F57;}
	.st62{fill:#CFCEEA;}
	.st63{opacity:0.7;fill:#57B3FE;}
</style>
<g id="_x38_1">
	<g>
		<g>
			<g>
				<path class="st10" d="M34.0300064,41.628273v0.1199951l-0.0099487,2.3800049c0,1.2700195-0.8300171,2.5299683-2.4999981,3.5
					c-3.3400269,1.9400024-8.7800293,1.9400024-12.1500244,0c-1.6900024-0.9799805-2.539978-2.2600098-2.539978-3.539978
					l0.0200195-2.4800415c-0.0100098-1.2699585,0.8299561-2.5499878,2.5-3.5199585
					c3.3399658-1.9500122,8.7799683-1.9500122,12.1499634,0c1.7143536,0.9893799,2.5496197,2.2860107,2.5267315,3.5793457
					C34.0269547,41.6543961,34.0300064,41.6415176,34.0300064,41.628273z"/>
			</g>
		</g>
		<g class="st22">
			<g>
				<g>
					<path class="st10" d="M34.0347404,41.6300774l-0.012886,2.4983902
						c-0.0035858,1.2657928-0.8360023,2.5296783-2.4989052,3.4960518
						c-3.3472958,1.9452362-8.7866993,1.9452553-12.1558933,0.0000496c-1.6916962-0.9766998-2.536972-2.2592621-2.5333385-3.540432
						l0.0128746-2.4983864c-0.0036259,1.2811699,0.8416481,2.5637283,2.5333462,3.540432
						c3.369194,1.9452057,8.8085976,1.9451866,12.1558933-0.0000496
						C33.1987343,44.1597557,34.0311508,42.8958702,34.0347404,41.6300774z"/>
				</g>
			</g>
			<g>
				<path class="st11" d="M31.4962101,38.0849724c3.3691959,1.9452057,3.386919,5.0959244,0.0396214,7.0411606
					s-8.7866993,1.9452553-12.1558933,0.0000496c-3.3632622-1.9417801-3.3810062-5.0924835-0.0337086-7.0377197
					C22.6935272,36.1432228,28.1329498,36.1431923,31.4962101,38.0849724z"/>
			</g>
		</g>
		<g>
			<g class="st22">
				<g>
					<g>
						<polygon class="st1" points="30.2800083,40.7982559 23.7600498,44.5582657 21.5900669,43.3082657 22.5900669,36.4882584 
							27.0700474,33.8982925 29.2400303,35.1582413 						"/>
					</g>
				</g>
			</g>
		</g>
		<g>
			<g class="st22">
				<g>
					<g>
						<polygon class="st1" points="23.7553806,44.563179 21.5874138,43.3032913 22.5909977,36.4851494 24.7589664,37.7450333 						
							"/>
					</g>
				</g>
				<g>
					<polygon class="st38" points="24.7589664,37.7450333 22.5909977,36.4851494 27.0687752,33.8999023 29.2367439,35.15979 					
						"/>
				</g>
				<g>
					<g>
						<polygon class="st3" points="29.2367439,35.15979 30.2756443,40.7987022 23.7553806,44.563179 24.7589664,37.7450333 						
							"/>
					</g>
				</g>
			</g>
		</g>
	</g>
	<path class="st10" d="M41.7400284,26.4582882c0,1.3099976-0.9199829,2.8999634-2.0599976,3.5599976L13.4500523,45.1582413
		c-0.7399902,0.4300537-1.3800049,0.3600464-1.75-0.0999756c0.0800171,0.0999756,0.1699829,0.1900024,0.2799683,0.25
		l-3.0699463-1.789978c-0.3700562-0.210022-0.6000366-0.6700439-0.6000366-1.3200073l-0.0499878-22.290041
		c-0.0100098-1.3099976,0.9199829-2.9099731,2.0499878-3.5699463L36.5400162,1.1982791
		c0.5800171-0.3300171,1.0900269-0.3599854,1.4700317-0.1400146l3,1.75c0.0100098,0,0.0299683,0.0100098,0.039978,0.0200195
		c0.3900146,0.1999512,0.6300049,0.6699829,0.6400146,1.3399656L41.7400284,26.4582882z"/>
	<path class="st11" d="M8.2621861,19.903574c-0.0072756-1.3084812,0.9158745-2.9003792,2.0498581-3.5618076L36.5436592,1.2015959
		c0.5742912-0.3343518,1.090374-0.3634568,1.46838-0.1454359l3.0748329,1.7882679
		c-0.377964-0.2180209-0.8940887-0.1890047-1.468338,0.1381598L13.386919,18.1299458
		c-1.1339836,0.6541519-2.0571785,2.2534161-2.049902,3.5618057l0.0436134,22.2904415
		c0.0072756,0.6543312,0.2326174,1.1049232,0.6033506,1.3230324l-3.0748749-1.7881775
		c-0.3707333-0.2108345-0.5960751-0.6687927-0.5960751-1.3157578L8.2621861,19.903574z"/>
	<path class="st10" d="M39.6189499,2.9861031c1.1370773-0.656492,2.0636559-0.1284444,2.0673752,1.1834607l0.0489235,22.2910347
		c0.0037041,1.3065529-0.9168549,2.9010487-2.0539322,3.557539L13.451004,45.1623802
		c-1.1370764,0.6564903-2.0636559,0.1284447-2.0673599-1.1781082l-0.0489254-22.2910347
		c-0.0037193-1.3119049,0.9168425-2.9064007,2.0539198-3.562891L39.6189499,2.9861031z"/>
	<path class="st5" d="M13.3603554,21.6889915c-0.0019779-0.5849304,0.5330133-1.5115223,1.0403147-1.8042336L38.176815,6.1570516
		c0.6601105-0.3811297,1.4854889,0.0940828,1.4873085,0.856318l0.0434875,18.2496834
		c0.0015793,0.6637535-0.4674416,1.4783649-1.0422668,1.8102455L14.8902531,40.8000031
		c-0.6601276,0.3811302-1.4855137-0.09412-1.4872942-0.856369L13.3603554,21.6889915z"/>
	<path class="st5" d="M14.7651091,19.1838608c-1.6107368,0-2.9139881,1.3032513-2.9139881,2.9139881
		c0-0.8039646-0.3272161-1.5345669-0.8518991-2.0620728c-0.527523-0.5247002-1.2581244-0.8519154-2.0620728-0.8519154
		c0.8039484,0,1.5345497-0.3272171,2.0620728-0.8519154c0.524683-0.5275059,0.8518991-1.2581081,0.8518991-2.0620728
		c0,0.8039646,0.3272333,1.5345669,0.8519154,2.0620728C13.2305422,18.8566437,13.9611607,19.1838608,14.7651091,19.1838608z"/>
	<g>
		<path class="st1" d="M26.5325031,35.0494194c0.4186554-0.2417107,0.7568817-0.0490074,0.7582455,0.4321022
			c0.0013638,0.4810638-0.3346672,1.0630493-0.7533207,1.30476c-0.4186554,0.2417107-0.7568436,0.0489845-0.7582073-0.4320793
			C25.7778568,35.8730927,26.1138496,35.2911301,26.5325031,35.0494194z"/>
	</g>
	<g>
		<path class="st4" d="M26.5166683,15.0471506c2.5335293-1.4627342,4.5972633-0.281271,4.6055012,2.6245298
			c0.0082531,2.9112225-2.0420628,6.4625034-4.575592,7.9252377c-2.5288124,1.4600086-4.5925312,0.2839699-4.6007843-2.6272545
			C21.9375553,20.0638638,23.9878578,16.5071602,26.5166683,15.0471506z"/>
		<g>
			<path class="st5" d="M26.5266552,19.9054832c1.1842175-0.6837101,2.1442432-0.1366196,2.1481018,1.2241459l0.0007153,0.2527752
				l-4.2822533,2.4723606l-0.0007172-0.2527752C24.3886452,22.2412243,25.3461037,20.5870743,26.5266552,19.9054832z"/>
			<path class="st5" d="M26.5288754,16.9394913c0.6073647-0.3506622,1.1003532-0.0697231,1.1023312,0.628191
				c0.0019684,0.6943932-0.4878178,1.5427361-1.0951824,1.8933983c-0.604311,0.3488998-1.0972977,0.0679607-1.0992661-0.6264324
				C25.4347782,18.136734,25.9245644,17.2883911,26.5288754,16.9394913z"/>
		</g>
		<g>
			<path class="st6" d="M34.8688469,22.0935555c0.3990669-0.2304001,0.7272339-0.043375,0.7285347,0.4151955l0.0079079,2.7889366
				c0.0013008,0.4585705-0.3247375,1.0233021-0.7238045,1.2537022l-16.6823578,9.631567
				c-0.4056091,0.2341766-0.7272453,0.0433807-0.7285442-0.4151917l-0.0079079-2.7889366
				c-0.0012989-0.4585686,0.3182049-1.0195293,0.723814-1.2537079L34.8688469,22.0935555z"/>
		</g>
		<g>
			<path class="st5" d="M31.4785919,26.7573433c0,0.038353-0.0063992,0.0863056-0.0287743,0.1406364
				c-0.0479336,0.1150608-0.1118622,0.1949673-0.1949673,0.242918c-0.0351543,0.0191765-0.0671291,0.0287743-0.0958843,0.0287743
				c-0.0095978,0-0.0287743,0-0.4890366-0.1630116c0.0831051,0.5433674,0.0958843,0.6360531,0.0958843,0.6488304
				c0,0.0671272-0.0223579,0.1406364-0.0671101,0.2109642c-0.0447521,0.0767059-0.0958824,0.1278381-0.1534328,0.1630116
				c-0.0607109,0.0351543-0.1118622,0.038353-0.1566143,0.0159779c-0.0415516-0.022377-0.0639095-0.0671291-0.0639095-0.1342564
				c0-0.0095787,0-0.0319557,0.0894852-0.7543125c-0.4570618,0.690403-0.4762383,0.7127781-0.485836,0.7223568
				c-0.0287552,0.0351543-0.0639095,0.0639286-0.0958843,0.0799065c-0.0831051,0.0511513-0.1470146,0.0447521-0.1981659-0.0095787
				c-0.0191784-0.0287743-0.0287552-0.0671291-0.0319557-0.1182785c0-0.0958843,0.038353-0.1853695,0.1086617-0.265276
				l0.5721436-0.59132l-0.5721436,0.0735283c-0.0735073-0.0063992-0.1086617-0.0543518-0.1086617-0.1502342
				c0-0.0511322,0.0095787-0.1022835,0.0287552-0.1534138c0.0479527-0.1118813,0.1118813-0.1917877,0.1885891-0.2365208
				c0.0351524-0.0191765,0.0703068-0.0255756,0.1054802-0.0255756c0.0095787,0,0.0255566,0,0.4858189,0.1630116
				c-0.0926838-0.6168747-0.0926838-0.6392498-0.0926838-0.6488495c0-0.0671082,0.0223751-0.1406345,0.0639286-0.2141438
				c0.044733-0.0703068,0.0990829-0.1278572,0.1534138-0.1598129c0.0575294-0.0319538,0.1118603-0.038353,0.1566143-0.015976
				c0.0447521,0.0223751,0.0671272,0.0671082,0.0671272,0.1342373c0,0.0159779-0.0127964,0.1182594-0.0895042,0.7543106
				c0.4570618-0.6935806,0.4762383-0.712759,0.4826374-0.7223377c0.022377-0.0351734,0.0575314-0.0671272,0.1022835-0.0927029
				c0.0799065-0.0447521,0.1438351-0.038353,0.1917667,0.0127983c0.022377,0.0351524,0.0287762,0.0735073,0.0287762,0.1150589
				c0,0.0926857-0.0319557,0.1853695-0.0990849,0.2748737l-0.5785217,0.5944996l0.5753231-0.0767078
				C31.4434376,26.6103287,31.4785919,26.661459,31.4785919,26.7573433z"/>
			<path class="st5" d="M20.7966881,32.9261169c0,0.038372-0.0095787,0.0863037-0.0287571,0.1406326
				c-0.0479507,0.1150818-0.1150589,0.1949883-0.1981659,0.2429199c-0.0319748,0.0191765-0.0639286,0.0287743-0.0958843,0.0287743
				c-0.0063972,0-0.0255756,0-0.485836-0.1630096c0.0831051,0.5401649,0.0926838,0.6328506,0.0926838,0.6488266
				c0,0.067131-0.0223751,0.1374588-0.0671082,0.2109642c-0.0415535,0.0735092-0.0927048,0.127861-0.1534348,0.1630135
				c-0.0575294,0.0319557-0.1086617,0.038353-0.1534138,0.015976c-0.0447521-0.0223732-0.0671272-0.0671272-0.0671272-0.1374359
				c0-0.0095978,0-0.0287743,0.0895042-0.7543106c-0.4570637,0.6935806-0.4762402,0.7159576-0.4826393,0.7255363
				c-0.0319538,0.0319748-0.0639286,0.06073-0.0958824,0.0799065c-0.083107,0.0479507-0.1502342,0.044754-0.1981678-0.0095787
				c-0.0223751-0.0287743-0.0319729-0.0703278-0.0319729-0.1182594c0-0.0959053,0.0351734-0.1885872,0.1054821-0.2684937
				l0.5753212-0.5881004l-0.5753212,0.0735054c-0.0703087-0.0063972-0.1086617-0.0575294-0.1086617-0.1534119
				c0-0.0479507,0.0095768-0.0990829,0.0319538-0.1502342c0.0479527-0.1118622,0.1118622-0.1917686,0.1885872-0.2365189
				c0.0351543-0.0191765,0.0703087-0.0287781,0.105463-0.0255775c0.0063992,0,0.0255756,0,0.4858379,0.1598129
				c-0.0926857-0.6168747-0.0926857-0.6360512-0.0926857-0.6456299c0-0.0703278,0.0223579-0.1406364,0.0639095-0.2141628
				c0.0447521-0.0735092,0.0990829-0.12784,0.1534348-0.1598129c0.0575294-0.0319557,0.1118603-0.0415535,0.1534138-0.0191784
				c0.0447521,0.0255756,0.0671291,0.0703278,0.0703087,0.1374378c0,0.0159969-0.0127792,0.1150799-0.0926857,0.7543316
				c0.4602623-0.6936016,0.4762402-0.7127781,0.4858379-0.7223568c0.022377-0.0351753,0.0575294-0.0671291,0.1022835-0.0927048
				c0.0799065-0.044733,0.143816-0.0415535,0.1917667,0.0127983c0.0191765,0.0351543,0.0287743,0.0735073,0.0287743,0.1118603
				c0,0.0958824-0.0319729,0.1885872-0.1022816,0.2780724l-0.5753231,0.5945015l0.5721226-0.0767097
				C20.7615337,32.7790985,20.7966881,32.8270302,20.7966881,32.9261169z"/>
			<path class="st5" d="M34.1506577,25.2135658c0,0.0415325-0.0095978,0.0894852-0.0287743,0.1406155
				c-0.0479317,0.1150799-0.1150627,0.1981869-0.1981659,0.2429199c-0.0319557,0.0223751-0.0671082,0.0319729-0.0958862,0.0319729
				c-0.0063972,0-0.0255737-0.0031986-0.485836-0.1630116C33.4219017,26.0094299,33.4347,26.0989151,33.4347,26.114893
				c0,0.0671272-0.022377,0.137455-0.0671272,0.2109642c-0.0415535,0.0735073-0.0958862,0.1278381-0.1502151,0.1598129
				c-0.06073,0.0351524-0.1118813,0.0415516-0.1566162,0.0191765c-0.0415497-0.022377-0.0671272-0.0703278-0.0671272-0.1374378
				c0-0.0095978,0-0.0287743,0.0894852-0.7511311c-0.4570618,0.6904011-0.4762383,0.7127781-0.485817,0.7223568
				c-0.0287743,0.0319748-0.06073,0.06073-0.0958862,0.0799065c-0.0799065,0.0479507-0.1470337,0.0447521-0.1949844-0.0095787
				c-0.0191765-0.0319748-0.0319557-0.0703278-0.0319557-0.1182594c0-0.0959034,0.0351563-0.1885891,0.105484-0.2684956
				l0.5753212-0.5912991L32.37994,25.5044155c-0.0735283-0.0031986-0.105484-0.0543308-0.1086845-0.1502342
				c0-0.0479317,0.0127792-0.0990829,0.0287781-0.1502151c0.0511284-0.1150589,0.1150589-0.1917667,0.1917648-0.2365189
				c0.0351563-0.0191765,0.0703278-0.0287743,0.105484-0.0287743c0.0063782,0.0031986,0.022377,0.0031986,0.4826355,0.1662102
				c-0.0895042-0.6200733-0.0895042-0.6424503-0.0895042-0.652029c0-0.0671272,0.022377-0.137455,0.0639305-0.2109642
				c0.044754-0.0735073,0.0990829-0.1278381,0.1534157-0.1598129c0.0543289-0.0319538,0.1118774-0.0415516,0.1534309-0.0191765
				c0.0479317,0.022377,0.0703087,0.0703278,0.0703087,0.1374378c0,0.0127964-0.0127792,0.1182594-0.0895042,0.7543106
				c0.4570808-0.6935825,0.4762573-0.7159576,0.4826393-0.7255363c0.0191765-0.0319748,0.0575294-0.0639286,0.1022797-0.0895042
				c0.0767097-0.044733,0.143837-0.0415535,0.188591,0.0127964c0.0223732,0.0351543,0.0319519,0.0735092,0.0319519,0.1118622
				c0,0.0926838-0.0351524,0.1885872-0.1022797,0.2780724l-0.575325,0.5944996l0.5721245-0.0767078
				C34.1155052,25.0665302,34.1506577,25.1176624,34.1506577,25.2135658z"/>
			<path class="st5" d="M23.4687729,31.3823376c0,0.038353-0.0095978,0.0862846-0.0287743,0.1406364
				c-0.0479336,0.1150589-0.1150608,0.1949654-0.1981678,0.242918c-0.0351543,0.0191765-0.0671272,0.0287552-0.0958824,0.0287552
				c-0.0095997,0-0.0255756,0-0.4858379-0.1630116c0.0799065,0.5433674,0.0927048,0.6360531,0.0927048,0.6488476
				c0,0.0703087-0.022377,0.1406364-0.0671291,0.2141457c-0.0415535,0.0735054-0.0958843,0.1278572-0.1534138,0.1598129
				c-0.0575504,0.0351524-0.1086826,0.0415535-0.1534348,0.015976c-0.044733-0.022377-0.0671082-0.0671082-0.0671082-0.1342354
				c0-0.0095978,0-0.0319557,0.0894852-0.7543125c-0.4570618,0.690382-0.4762402,0.7159595-0.4858379,0.7255383
				c-0.0287552,0.031971-0.060709,0.0607262-0.0958843,0.0799026c-0.0831051,0.0479546-0.1470146,0.0415535-0.1949654-0.0095749
				c-0.022377-0.0319748-0.0319557-0.0703278-0.0319557-0.1182632c0-0.0990829,0.0351543-0.1885872,0.105463-0.2684937
				l0.5753422-0.5912991l-0.5753422,0.0735073c-0.0735073-0.0031986-0.1086617-0.0543308-0.1086617-0.1502132
				c0-0.0511513,0.0095787-0.0990849,0.0287552-0.1502342c0.0511513-0.1150608,0.1150799-0.1917686,0.1917877-0.2365208
				c0.0351524-0.022377,0.0671082-0.0287743,0.1022816-0.0287743c0.0063801,0,0.0287552,0,0.485817,0.1630116
				c-0.0926838-0.6168747-0.0926838-0.6392517-0.0926838-0.6488304c0-0.0671272,0.022377-0.1374359,0.0671291-0.2141438
				c0.0415516-0.0703278,0.0990829-0.1278572,0.1534138-0.1566334c0.0543308-0.0319538,0.1086617-0.0415516,0.1534138-0.0191765
				c0.0447521,0.022377,0.0671291,0.0671291,0.0671291,0.1374378c0,0.0127964-0.0095978,0.1150799-0.0895042,0.7543316
				c0.4570618-0.6967831,0.4762573-0.7159595,0.485836-0.7255573c0.022377-0.0351543,0.0575314-0.0639286,0.1022835-0.0926838
				c0.0767059-0.0447521,0.1406364-0.0383549,0.1885681,0.015976c0.0223751,0.0351543,0.0319748,0.0703087,0.0319748,0.1118622
				c0,0.0927048-0.0351543,0.1885872-0.1022835,0.2780724l-0.5753231,0.59132l0.5721245-0.0735283
				C23.4335995,31.235302,23.4687729,31.2864532,23.4687729,31.3823376z"/>
			<path class="st5" d="M28.8097057,28.2979412c0,0.038353-0.0095787,0.0863056-0.0287552,0.1406364
				c-0.0511513,0.1150608-0.1150608,0.1949673-0.1981659,0.242918c-0.0319748,0.0191765-0.0671291,0.0287552-0.0958843,0.0287552
				c-0.0095978,0.0032005-0.0255756,0-0.4890366-0.1598129c0.0863056,0.5401688,0.0958843,0.6328735,0.0958843,0.6488495
				c0,0.0671291-0.022377,0.1374378-0.0639305,0.2109451c-0.044733,0.0735264-0.0958824,0.1278572-0.1566124,0.1598129
				c-0.0575314,0.0351734-0.1086617,0.0415535-0.1534138,0.0159969c-0.044754-0.0191765-0.0671291-0.0671291-0.0671291-0.1342564
				c0-0.0095787,0-0.0287552,0.0895042-0.7543125c-0.4570618,0.6935825-0.4762383,0.7159576-0.4858379,0.7255573
				c-0.0287552,0.0319538-0.0607281,0.0607281-0.0958824,0.0799065c-0.083107,0.0479317-0.1470356,0.0447521-0.1981678-0.0095997
				c-0.0191765-0.0319538-0.0287743-0.0703068-0.0287743-0.1214581c0-0.0958843,0.0351734-0.1853695,0.1054821-0.265276
				l0.5753231-0.59132l-0.5753231,0.0735283c-0.0703087-0.0032005-0.1054821-0.0543499-0.1054821-0.1502342
				c0-0.0511322,0.0063992-0.0990829,0.0255756-0.1502151c0.0511322-0.1118813,0.1118622-0.1917877,0.1917686-0.2365398
				c0.0351734-0.022356,0.0703278-0.0287552,0.1022816-0.0287552c0.0095978,0,0.0287743,0.0032005,0.4890366,0.1630135
				c-0.0958843-0.6168766-0.0958843-0.6392517-0.0958843-0.6456509c0-0.0703087,0.0223579-0.1406364,0.0671101-0.2173424
				c0.0447521-0.0703278,0.0990829-0.1278591,0.1534328-0.1566143c0.0575314-0.0319748,0.1118622-0.0415535,0.1566143-0.0191765
				c0.0415516,0.0223751,0.0639286,0.0703087,0.0639286,0.1374359c0,0.0127792-0.0095978,0.1150608-0.0895042,0.7543125
				c0.4570618-0.6935825,0.4762383-0.7159576,0.485836-0.7255573c0.022377-0.0319538,0.0575314-0.0639095,0.1022835-0.0926838
				c0.0767078-0.0447521,0.1406364-0.038353,0.1917667,0.0159779c0.0191784,0.0351543,0.0287762,0.0703278,0.0287762,0.1118813
				c0,0.0926838-0.0319748,0.1885681-0.1022835,0.2780724l-0.5785217,0.5944977l0.5753231-0.0767059
				C28.7745514,28.1509056,28.8097057,28.2020569,28.8097057,28.2979412z"/>
			<path class="st5" d="M26.0353565,29.1673336l-0.5785217,0.5944996l0.5721436-0.0735092
				c0.0735073,0.0063801,0.1086617,0.0543308,0.1086617,0.1502151c0,0.0415535-0.0095787,0.0895042-0.0255756,0.1438351
				c-0.0511322,0.1150608-0.1182594,0.1949673-0.1981659,0.2429199c-0.0351543,0.0191765-0.0671101,0.0287552-0.0958843,0.0287552
				c-0.0095787,0-0.0287552,0-0.4890175-0.1630116c0.083086,0.5433674,0.0926838,0.6360703,0.0926838,0.6488495
				c0,0.0671272-0.0223751,0.1406345-0.0639286,0.2109432c-0.0447521,0.0767078-0.0958843,0.1278591-0.1566124,0.1630116
				c-0.0575314,0.0319748-0.1086826,0.0383549-0.1534157,0.0159779c-0.0447521-0.0223751-0.0671272-0.0671082-0.0671272-0.1342373
				c0-0.0095787,0-0.0319538,0.0895042-0.7543106c-0.4570827,0.690382-0.4762592,0.712759-0.4826374,0.7223568
				c-0.0287762,0.0319538-0.06073,0.06073-0.0958843,0.0831051c-0.0831051,0.044733-0.1502342,0.0415344-0.1981869-0.0127964
				c-0.0191765-0.0287571-0.0287552-0.0703087-0.0287552-0.1182613c0-0.0958824,0.0319557-0.1853886,0.1022835-0.265295
				l0.5753212-0.5912991l-0.5721226,0.0735073c-0.0735264-0.0063782-0.1086807-0.0575294-0.1086807-0.1534138
				c0-0.0479507,0.0095978-0.0990829,0.0287743-0.1502342c0.0479336-0.1118603,0.1118622-0.1917667,0.1917686-0.2365208
				c0.0319538-0.0191765,0.0671272-0.0287552,0.1022816-0.0255547c0.0063992,0,0.0255756,0,0.4858379,0.1629925
				c-0.0959034-0.6168747-0.0959034-0.6392517-0.0959034-0.6488304c0-0.0671291,0.0223751-0.1406364,0.0671291-0.2141438
				c0.0447521-0.0735264,0.0990829-0.1278572,0.1566124-0.1598129c0.0543308-0.0319748,0.1086807-0.0415535,0.1534138-0.0191765
				c0.0415535,0.0255566,0.0639305,0.0703087,0.0639305,0.1374359c0,0.0159779-0.0095787,0.1182613-0.0862865,0.7543125
				c0.4570618-0.6935825,0.4730396-0.712759,0.4826183-0.7223568c0.022377-0.0351543,0.0575504-0.0671291,0.1022835-0.0926838
				c0.0799065-0.0447521,0.1406345-0.0383549,0.1917858,0.015976c0.0191765,0.0351543,0.0319557,0.0703087,0.0319557,0.1086826
				C26.13764,28.9851437,26.1024857,29.0778294,26.0353565,29.1673336z"/>
		</g>
	</g>
</g>
</svg>
