<?xml version="1.0" encoding="utf-8"?>
<!-- Generator: Adobe Illustrator 22.0.0, SVG Export Plug-In . SVG Version: 6.00 Build 0)  -->
<svg version="1.1" id="Layer_1" xmlns="http://www.w3.org/2000/svg" xmlns:xlink="http://www.w3.org/1999/xlink" x="0px" y="0px"
	 viewBox="0 0 50 50" style="enable-background:new 0 0 50 50;" xml:space="preserve">
<style type="text/css">
	.st0{fill:#9EA9C9;}
	.st1{fill:#B0B8CF;}
	.st2{fill:#C9CEE2;}
	.st3{fill:#E3E7F0;}
	.st4{fill:#F45170;}
	.st5{fill:#FFFFFF;}
	.st6{fill:#57B3FE;}
	.st7{fill:#E8E6FB;}
	.st8{fill:#DEDFFB;}
	.st9{fill:#F3F1FC;}
	.st10{fill:#1D2943;}
	.st11{fill:#4C5C75;}
	.st12{fill:#F9A83D;}
	.st13{fill:#FFD06C;}
	.st14{fill:#FFDE9B;}
	.st15{fill:#FEBC1F;}
	.st16{fill:#5094FF;}
	.st17{fill:#F8CA2F;}
	.st18{fill:#E93565;}
	.st19{fill:#DF3260;}
	.st20{opacity:0.8;fill:#F45170;}
	.st21{opacity:0.5;}
	.st22{enable-background:new    ;}
	.st23{fill:#DBA660;}
	.st24{fill:#111D33;}
	.st25{fill:none;}
	.st26{fill:#F8F9FE;}
	.st27{fill:#E9E7FC;}
	.st28{fill:#EDEEF2;}
	.st29{fill:#DEDFFA;}
	.st30{fill:#0F1522;}
	.st31{fill:#78E75A;}
	.st32{fill:#72D561;}
	.st33{fill:#986FF9;}
	.st34{fill:#B28AFD;}
	.st35{fill:#497BFE;}
	.st36{fill:#7E5AF2;}
	.st37{fill:#3B3E3F;}
	.st38{fill:#FEFEFE;}
	.st39{fill:#BF7D5A;}
	.st40{fill:#F4D6D4;}
	.st41{fill:#F5C9C6;}
	.st42{fill:#5EC363;}
	.st43{fill:#FFD475;}
	.st44{fill:#FFDD95;}
	.st45{fill:#FFB961;}
	.st46{fill:#DADCF7;}
	.st47{fill:#AA6256;}
	.st48{fill:#8A4852;}
	.st49{fill:#CED1F2;}
	.st50{fill:#3979EA;}
	.st51{fill:#29313F;}
	.st52{fill:#3B475A;}
	.st53{fill:#414F65;}
	.st54{opacity:0.2;fill:#57B3FE;}
	.st55{fill:#50B069;}
	.st56{fill:#C8C7D9;}
	.st57{fill:#822B3C;}
	.st58{fill:#D24660;}
	.st59{fill:#7D7B87;}
	.st60{fill:#B4B3C3;}
	.st61{fill:#BD3F57;}
	.st62{fill:#CFCEEA;}
	.st63{opacity:0.7;fill:#57B3FE;}
</style>
<g id="_x33_7">
	<g>
		<g>
			<path class="st36" d="M41.231102,6.1037021c-1.7199707,6.8300166-0.3099976,12.25-0.6199951,18.4199829
				c-0.3672791,7.074234-2.9585152,11.6573906-7.9099731,18.1800537c-1.2600098,1.6699829-2.5700073,3.289978-3.8800049,4.8899536
				c-0.3200073,0.3900146-0.6500244,0.8000488-1.0200195,1.0599976c-0.0499878,0.0400391-0.1099854,0.0800171-0.1699829,0.1100464
				c-0.7299805,0.4199829-1.3699951,0.1900024-1.960022,0c-2.3929768-0.7381477-5.0424786-0.3001747-7.2599487-1.6000366
				c-4.6908236-2.9304237-7.6128321-3.3019714-8.710021-8.25c-0.3300171-1.4699707-0.4000244-3.1099854-0.3800049-4.8200073
				c0.0599976-3.1799927,0.4699707-6.6199951,0.2600098-9.6599731c-0.1500244-2.2299805-0.6300049-4.2399902-0.9799805-6.3200073
				c-0.0800171-0.4299927-0.1200562-0.9500122,0.1799927-1.4400024c0-0.1001606,0-0.1101704,0-0.0100098
				c0.1499634-0.2699585,0.3899536-0.4699707,0.5999756-0.6499634c2.7600098-2.3500376,5.5200195-4.6800547,8.2700186-7.0300303
				c1.3999634-1.1799922,2.789978-2.3800044,4.2299805-3.2600093c0.1400146-0.0799561,0.2800293-0.1599731,0.4199829-0.25
				c1.8099976-1.0499878,3.6000366-1.5799563,5.3600464-2.1199954c2.4799805-0.7399902,4.9499512-1.4899901,7.4199829-2.2399902
				c0.289978-0.0900269,0.5800171-0.169983,0.7999878-0.0599976l5.3099976,3.0900269c0.0100098,0,0.0100098,0,0.0100098,0.0099487
				h0.0100098C41.6311264,4.4136996,41.4211044,5.3436923,41.231102,6.1037021z"/>
		</g>
	</g>
	<path class="st33" d="M41.2018776,4.1577282c-0.2008286-0.116251-0.4967461-0.0422554-0.7821465,0.0422554
		c-2.4732742,0.7504716-4.9466095,1.5009432-7.4199486,2.2407703c-1.7651196,0.5390644-3.5619812,1.0887094-5.3693562,2.1245184
		c-0.1374111,0.0845757-0.2748222,0.1691513-0.4228134,0.2536631c-1.4268837,0.8878822-2.8326721,2.0716829-4.2172985,3.2554836
		c-2.7586746,2.3465061-5.5174141,4.6823673-8.2760887,7.0288734c-0.2114067,0.1902466-0.4439096,0.3804932-0.6024809,0.6658955
		l-5.3351002-3.1009655c0.1585703-0.2748222,0.3910732-0.4756508,0.6024799-0.6553173
		c2.7586746-2.3464403,5.5173492-4.6823664,8.2760878-7.0288715c1.3952084-1.1838012,2.7903519-2.3781815,4.2278786-3.2554197
		c0.1374111-0.0845757,0.2748222-0.1691513,0.4227486-0.2536626c1.8074417-1.046454,3.5937233-1.585454,5.3588428-2.1245186
		c2.4733372-0.7398915,4.9466114-1.4903631,7.4199467-2.2407701c0.2854042-0.0845757,0.5813217-0.1691512,0.7927284-0.0529001
		L41.2018776,4.1577282z"/>
	<path class="st36" d="M18.4649715,47.1924934c-3.7626371-2.6918755-7.5521688-2.8146782-8.766367-8.2813606
		c-0.3286104-1.4646721-0.4008627-3.1084137-0.3786764-4.8144608c0.0585785-3.1872635,0.4679089-6.6236382,0.2632904-9.6589413
		c-0.1483088-2.2367458-0.6338902-4.2399216-0.9845543-6.3287621c-0.0755501-0.4224014-0.1175909-0.9496002,0.1784344-1.4389648
		l5.3329554,3.0965157c-0.2960253,0.4893646-0.2539845,1.0165634-0.1784344,1.4389648
		c0.3506641,2.0888386,0.8362465,4.0920143,0.9845552,6.3287621c0.2046185,3.0353012-0.2047119,6.4716778-0.2632904,9.6589413
		C14.6025219,41.0658684,15.0834608,45.227375,18.4649715,47.1924934z"/>
	<path class="st34" d="M27.635067,8.5700235c1.8067169-1.0431738,3.5966263-1.587079,5.363636-2.1244383
		c2.4718399-0.7436175,4.9504395-1.4911265,7.4222527-2.2424879c0.2836571-0.0861011,0.5875969-0.1683745,0.7907333-0.0448823
		c0.4198074,0.2547235,0.2128906,1.1819711,0.0190315,1.9463291c-1.7245674,6.8287797-0.3100052,12.2490673-0.616951,18.4224873
		c-0.3796463,6.9615307-2.7789688,11.4071884-7.9110909,18.1754379c-1.266037,1.6707726-2.5727844,3.2873726-3.8795776,4.8884621
		c-0.3233109,0.3963776-0.6533737,0.8044167-1.0176506,1.0613365c-0.0586929,0.0419083-0.1169415,0.0793495-0.1746521,0.1126671
		c-0.7248096,0.4184685-1.371954,0.1869965-1.9610214,0.0019035c-3.9134445-1.2199364-11.1816511,1.0956497-11.0168924-11.5736504
		c0.0585785-3.1872635,0.4679089-6.6236401,0.2632904-9.6589413c-0.1483088-2.2367477-0.6338911-4.2399235-0.9845552-6.3287621
		c-0.0755501-0.4224014-0.1175909-0.9496002,0.1784344-1.4389648c0.1614361-0.2796192,0.3907051-0.4741173,0.6064739-0.6608334
		c2.7579575-2.3457184,5.5159378-4.6836796,8.2738972-7.029398c1.3890934-1.1825771,2.7916641-2.3729353,4.2221851-3.2532196
		C27.3534126,8.7356005,27.4944534,8.6512203,27.635067,8.5700235z"/>
	<path class="st5" d="M27.6966095,11.8210211c1.484642-0.8571587,3.1190224-1.3502731,4.699379-1.8277369l5.6662903-1.7180099
		c-0.8326645,4.3254461-0.6464958,8.0005512-0.4673729,11.578743c0.1072121,2.0507507,0.2073326,3.98909,0.1048126,5.9745235
		c-0.2531242,5.1228981-1.6488037,8.2418556-6.5487633,14.7014847c-1.0909367,1.4453964-2.2292786,2.8560295-3.3946018,4.2900047
		l-0.1691303-0.0499268c-1.0824928-0.3459129-2.2048702-0.4590797-3.286726-0.5801163
		c-3.1421261-0.3380966-5.3803387-0.8931732-6.2661629-4.8328438c-0.226059-1.0500793-0.3242779-2.3215485-0.2953415-4.0314827
		c0.0171947-1.0895576,0.0815754-2.2218933,0.1457825-3.4162579c0.1223202-2.1599789,0.2511501-4.4013824,0.1031055-6.5528316
		c-0.1200981-1.8258343-0.422081-3.4379139-0.7171593-4.9996185l6.5003872-5.5394402
		c1.2879486-1.0931168,2.5017319-2.1201048,3.6353474-2.8212013C27.5076427,11.9301205,27.6021271,11.8755713,27.6966095,11.8210211
		z"/>
	<g>
		<path class="st11" d="M21.7444611,25.731245c0,0.0628872-0.0187359,0.125782-0.0561981,0.1886673
			c-0.0374699,0.0628967-0.082962,0.1110649-0.1364899,0.14184l-1.3099976,0.756031
			c-0.0548668,0.0321121-0.1003571,0.0374622-0.1364899,0.0160561c-0.0361309-0.0214062-0.0548573-0.0628872-0.0548573-0.1244431
			s0.0187263-0.125782,0.0548573-0.1886768c0.0347919-0.0642262,0.0802841-0.1137352,0.1351509-0.1445084l0.4924202-0.285017
			l-0.0066891-2.4326687l-0.4148159,0.4736862c-0.041481,0.0441589-0.074934,0.0735931-0.1030293,0.0883198
			c-0.0562057,0.0334511-0.1043758,0.0401402-0.1391678,0.0187263c-0.0361233-0.0200672-0.0561981-0.0642262-0.0561981-0.1284523
			c0-0.0963478,0.0388031-0.1900158,0.116415-0.2796669l0.5767212-0.6784191
			c0.0401421-0.0481701,0.0816231-0.084301,0.1231022-0.1083851l0.0883198-0.050848
			c0.0602169-0.0347919,0.1123962-0.0401421,0.1538849-0.016058c0.041481,0.024086,0.0628872,0.0709248,0.0628872,0.1391678
			l0.008028,2.73909l0.4081192-0.2355061c0.0535278-0.032114,0.100359-0.0361309,0.1378288-0.0147171
			C21.7257252,25.6268692,21.7444611,25.6696892,21.7444611,25.731245z"/>
		<path class="st11" d="M23.4841404,24.9949055c0.3724937-0.2150574,0.662508-0.5437603,0.8606682-0.976757
			c0.1973095-0.4295578,0.2968998-0.9196987,0.295372-1.4566879c-0.0015202-0.5360069-0.1035595-0.9097443-0.3026485-1.1114235
			c-0.1999645-0.2021599-0.4908943-0.195446-0.8633881,0.0196095c-0.3750515,0.2165356-0.6650658,0.545229-0.8623753,0.9767647
			c-0.1955948,0.4295502-0.2943268,0.9192009-0.2928085,1.4552021c0.0015202,0.5369873,0.1027107,0.9112225,0.3000927,1.1129017
			C22.818161,25.2181454,23.1090889,25.2114391,23.4841404,24.9949055z M24.0325623,21.9388084
			c0.1305199,0.1586628,0.1972275,0.4475822,0.1983967,0.8589115c0.0011749,0.4142761-0.0636806,0.7811203-0.1928749,1.0897465
			c-0.1274891,0.3056545-0.3142548,0.5314846-0.5551853,0.6705875c-0.2400646,0.1385956-0.4274998,0.1288204-0.556303-0.0288715
			c-0.1305199-0.1586781-0.197237-0.4495583-0.1984043-0.8638363c-0.0011673-0.4113293,0.0636864-0.7762127,0.1928825-1.0848236
			c0.1274891-0.3056698,0.3142548-0.5314999,0.5543194-0.6701031C23.7163239,21.7713242,23.903759,21.7811089,24.0325623,21.9388084
			z"/>
		<path class="st11" d="M27.0687637,22.6576214c0,0.0615559-0.0187263,0.1244507-0.0561981,0.1886768
			c-0.0374622,0.0628872-0.0829601,0.109724-0.136488,0.1418381l-1.3099995,0.7560215
			c-0.0548573,0.0307827-0.1003571,0.0361328-0.136488,0.0147266c-0.0361233-0.0200748-0.0548592-0.0615559-0.0548592-0.1231117
			c0-0.0615482,0.0187359-0.125782,0.0548592-0.1900082c0.0347919-0.0628872,0.0802898-0.1123962,0.135149-0.143177
			l0.4924202-0.285017l-0.0066891-2.4326687l-0.4148083,0.4723549c-0.0414791,0.0454903-0.0749321,0.0735931-0.103035,0.0896511
			c-0.057539,0.0334511-0.1043682,0.0401402-0.1404991,0.018734c-0.0347919-0.0214138-0.0548668-0.0642338-0.0548668-0.1284599
			c0-0.0963402,0.0388088-0.1913471,0.1164227-0.2796593l0.5753803-0.6784191
			c0.041481-0.0481777,0.082962-0.084301,0.1244431-0.1083851l0.0883121-0.050848
			c0.060215-0.0347919,0.1110649-0.0401421,0.1538849-0.0160561c0.041481,0.0240841,0.0628853,0.0709133,0.0628853,0.1391582
			l0.0080299,2.7390995l0.4081268-0.2368469c0.0535183-0.0307732,0.1003571-0.0347919,0.1378193-0.0133858
			C27.0500374,22.5532532,27.0687637,22.5960732,27.0687637,22.6576214z"/>
		<path class="st11" d="M28.8083382,21.9209785c0.3724937-0.2150574,0.662508-0.543766,0.8606682-0.9767551
			c0.1973095-0.4295578,0.2968979-0.9197083,0.295372-1.4566956c-0.0015202-0.5360012-0.1035519-0.9097443-0.3026581-1.1114082
			c-0.199955-0.2021694-0.4908848-0.1954556-0.8633709,0.0196018c-0.3750515,0.2165356-0.6650734,0.545229-0.8623753,0.9767551
			c-0.1956024,0.4295578-0.2943344,0.9192104-0.2928162,1.4552097c0.0015278,0.5369892,0.1027012,0.9112225,0.3000927,1.1129017
			C28.1423569,22.1442184,28.4332867,22.1375141,28.8083382,21.9209785z M29.35676,18.8648739
			c0.130518,0.1586704,0.1972275,0.4475899,0.1983948,0.8589191c0.0011768,0.414278-0.0636787,0.7811203-0.192873,1.0897484
			c-0.1274891,0.3056545-0.3142548,0.5314827-0.5551777,0.670578c-0.2400723,0.1386051-0.4274998,0.1288204-0.556303-0.028862
			c-0.1305275-0.15868-0.1972446-0.4495602-0.1984215-0.8638382c-0.0011673-0.4113293,0.0636959-0.7762108,0.1928921-1.0848293
			c0.1274891-0.3056641,0.3142548-0.5314922,0.554327-0.6700974C29.0405216,18.6973991,29.2279568,18.7071819,29.35676,18.8648739z"
			/>
		<path class="st11" d="M32.3930779,19.5840054c0,0.0615559-0.0187378,0.1244431-0.0562096,0.1886692
			c-0.0374603,0.0628948-0.0829582,0.109724-0.1364784,0.1405067l-1.3113384,0.7573624
			c-0.0535278,0.0307732-0.0990257,0.0361309-0.135149,0.0147171c-0.0361328-0.0200672-0.0548668-0.0615482-0.0548668-0.1231041
			s0.018734-0.125782,0.0548668-0.1900082c0.0347919-0.0642338,0.0802822-0.1124039,0.13381-0.143177l0.4937592-0.285017
			l-0.0066891-2.4340076l-0.4148159,0.4736862c-0.04282,0.0454979-0.074934,0.0735931-0.1030369,0.0896587
			c-0.0575371,0.033453-0.1043682,0.0401402-0.1404991,0.0187263c-0.0361233-0.0214062-0.0548592-0.0642262-0.0548592-0.1284523
			c0-0.0963478,0.0388031-0.1913471,0.116415-0.2796669l0.5753822-0.6784191
			c0.041481-0.049509,0.082962-0.084301,0.1244431-0.1083851l0.0883179-0.050848
			c0.0602093-0.0347919,0.1110573-0.0401421,0.1538773-0.016058c0.041481,0.024086,0.0628948,0.0709248,0.0628948,0.1391678
			l0.008028,2.737751l0.4081211-0.2355061c0.0535278-0.0307751,0.0990181-0.0347843,0.1378174-0.0147171
			C32.3743401,19.4782982,32.3930779,19.5224495,32.3930779,19.5840054z"/>
		<path class="st11" d="M34.1325417,18.847044c0.3724785-0.2150478,0.6625023-0.5437584,0.8606606-0.9767475
			c0.1973114-0.4295578,0.2968903-0.9196987,0.295372-1.4566879c-0.0015182-0.5360079-0.1035576-0.9097433-0.3026466-1.1114225
			c-0.1999664-0.2021608-0.4908943-0.1954479-0.8633804,0.0196095c-0.3750496,0.2165346-0.6650658,0.545229-0.8623772,0.9767561
			c-0.1956024,0.4295483-0.2943344,0.9192009-0.2928047,1.4552097c0.0015182,0.5369873,0.1026917,0.9112225,0.3000832,1.1129017
			C33.4665642,19.0702858,33.7574921,19.0635796,34.1325417,18.847044z M34.6809578,15.7909479
			c0.1305275,0.1586628,0.1972351,0.4475908,0.1984024,0.8589201c0.0011673,0.4142761-0.0636787,0.7811203-0.1928749,1.0897388
			c-0.1274948,0.3056622-0.3142624,0.5314922-0.5551834,0.6705856c-0.2400665,0.1386051-0.4275017,0.1288204-0.5563049-0.0288696
			c-0.1305275-0.1586704-0.1972427-0.4495506-0.19841-0.8638287c-0.0011673-0.4113293,0.0636864-0.7762127,0.1928825-1.0848312
			c0.1274948-0.3056622,0.3142624-0.5314922,0.5543251-0.6700964
			C34.3647194,15.6234722,34.5521545,15.6332483,34.6809578,15.7909479z"/>
		<path class="st11" d="M21.7605171,31.2776775c0,0.0628872-0.0187359,0.125782-0.0561981,0.1886692
			c-0.0374699,0.0628948-0.082962,0.1110649-0.136488,0.1418381l-1.3099995,0.756031
			c-0.0548668,0.0321121-0.1003571,0.0374603-0.136488,0.0160561c-0.0361328-0.0200729-0.0548592-0.061554-0.0548592-0.1244431
			c0-0.061554,0.0187263-0.125782,0.0535183-0.1886749c0.0361328-0.0642281,0.0816307-0.1123981,0.1364899-0.1431789
			l0.4924202-0.285017l-0.008028-2.4339981l-0.4134769,0.4736843c-0.0428123,0.0441608-0.074934,0.073595-0.1030293,0.0896511
			c-0.0575371,0.0321121-0.1043758,0.0388107-0.1404991,0.0187359c-0.0361309-0.0200748-0.0548668-0.0642262-0.0548668-0.1298008
			c0-0.0963402,0.0388107-0.1900082,0.116415-0.2796593l0.5753822-0.6784172
			c0.041481-0.0468311,0.0829697-0.082962,0.1244507-0.107048l0.0883102-0.050848
			c0.0602169-0.0347919,0.1110649-0.0401421,0.1538849-0.017395c0.041481,0.0240841,0.0615482,0.0722542,0.0628872,0.1404991
			l0.0066891,2.7390976l0.4094582-0.235508c0.0535278-0.0321121,0.09902-0.0361309,0.1378288-0.0147171
			C21.7417812,31.1746407,21.7605171,31.2161217,21.7605171,31.2776775z"/>
		<path class="st11" d="M23.4998627,30.5414677c0.3724937-0.2150555,0.662508-0.5437584,0.8606758-0.9757748
			c0.1973-0.4305305,0.2968903-0.9206791,0.295372-1.4566879c-0.0015278-0.5369797-0.1035595-0.9107246-0.3026581-1.1124039
			c-0.1999626-0.2021523-0.4908924-0.195446-0.8633785,0.0196095c-0.3750515,0.2165356-0.6650658,0.5452385-0.8623753,0.9767551
			c-0.1955948,0.4295502-0.2943344,0.9192104-0.2928085,1.4561996c0.0015202,0.5359993,0.1027031,0.9102325,0.3000927,1.1128922
			C22.8338909,30.7647171,23.1248188,30.7580032,23.4998627,30.5414677z M24.0482845,27.486351
			c0.1305275,0.1586628,0.1972351,0.4475918,0.1984043,0.8589211c0.0011749,0.4142685-0.0636806,0.7801399-0.1928749,1.0897388
			c-0.1274967,0.3056622-0.3142643,0.5305119-0.5551853,0.6696072c-0.2400646,0.1386032-0.4274998,0.1297989-0.556303-0.0278912
			c-0.1305199-0.1586723-0.197237-0.4495602-0.1984119-0.8638287c-0.0011597-0.4113293,0.063694-0.7762203,0.1928902-1.0848312
			c0.1274815-0.3066521,0.3142548-0.5314922,0.5543194-0.6700954C23.7320442,27.3188763,23.9194813,27.327673,24.0482845,27.486351z
			"/>
		<path class="st11" d="M27.0848217,28.2040539c0,0.0615559-0.0187283,0.125782-0.0561981,0.1886768
			c-0.0374622,0.0628872-0.082962,0.109726-0.1378212,0.1418381l-1.3086662,0.7560234
			c-0.0548592,0.0307808-0.100359,0.0374699-0.1364899,0.0160561c-0.0361233-0.0200672-0.0548592-0.0628872-0.0548592-0.1244431
			c0-0.0615463,0.0187359-0.125782,0.0535278-0.1900082c0.0361233-0.0628948,0.0816231-0.1110649,0.1364803-0.143177
			l0.4924221-0.2836781l-0.0080299-2.4340057l-0.4134674,0.472353c-0.04282,0.0454903-0.076273,0.074934-0.1030369,0.0896511
			c-0.0575371,0.033453-0.1043682,0.0401402-0.1404991,0.0200672c-0.0361309-0.0214062-0.0548592-0.0642281-0.0548592-0.1297932
			c0-0.0963478,0.0388031-0.1900082,0.116415-0.2796669l0.5753822-0.6784096
			c0.041481-0.0468388,0.082962-0.0829697,0.1244411-0.1070557l0.0883121-0.050848
			c0.0602169-0.0347843,0.1110649-0.041481,0.1538849-0.017395c0.041481,0.0240917,0.0615559,0.0709229,0.0628872,0.1405067
			l0.0066967,2.73909l0.4094582-0.2368469c0.0535202-0.0307732,0.0990181-0.0361233,0.1364822-0.0147171
			C27.0660934,28.0996857,27.0848217,28.1425056,27.0848217,28.2040539z"/>
		<path class="st11" d="M28.8240681,27.4675426c0.3724861-0.2150574,0.6625004-0.5437584,0.8606586-0.9757748
			c0.1973095-0.4305382,0.2968998-0.9206886,0.2953815-1.4566898c-0.0015202-0.5369873-0.1035595-0.9107323-0.3026657-1.112402
			c-0.1999569-0.2021523-0.4908848-0.1954479-0.8633709,0.0196095c-0.3750515,0.2165337-0.6650658,0.5452366-0.8623753,0.9767551
			c-0.1956024,0.4295578-0.2943363,0.9192104-0.2928085,1.4561977c0.0015202,0.5360012,0.1026936,0.9102421,0.3000927,1.1128941
			C28.1580868,27.6907902,28.4490166,27.6840782,28.8240681,27.4675426z M29.3724823,24.412426
			c0.130518,0.1586628,0.1972351,0.4475899,0.1984024,0.8589191c0.0011768,0.4142704-0.0636864,0.7801399-0.192873,1.0897408
			c-0.1274891,0.3056622-0.3142643,0.5305119-0.5551853,0.6696053c-0.2400646,0.1386051-0.4274998,0.1298008-0.5563049-0.0278912
			c-0.130518-0.1586704-0.1972351-0.4495583-0.1984119-0.8638287c-0.0011673-0.4113293,0.0636959-0.7762184,0.1928921-1.0848312
			c0.1274891-0.3066502,0.3142548-0.5314903,0.5543194-0.6700954C29.0562515,24.2449512,29.2436771,24.253746,29.3724823,24.412426z
			"/>
		<path class="st11" d="M32.4091339,25.1304379c0,0.0615482-0.0187378,0.125782-0.0561981,0.1886692
			c-0.0374718,0.0628948-0.0829697,0.109726-0.1378288,0.1404991l-1.3099995,0.75737
			c-0.0535278,0.0307732-0.0990181,0.0361233-0.135149,0.0160561c-0.0361309-0.0200748-0.0548668-0.0628948-0.0548668-0.1244411
			c0-0.0615559,0.0187359-0.125782,0.0535278-0.1900177c0.0361309-0.0642262,0.0816212-0.1110554,0.135149-0.1418381
			l0.4924202-0.2850075l-0.0066891-2.4353466l-0.4148159,0.4736843c-0.041481,0.0454998-0.074934,0.0735931-0.1016884,0.0896511
			c-0.0575466,0.033453-0.1043758,0.0401497-0.1405087,0.018734c-0.0361233-0.0200653-0.0548573-0.0628853-0.0548573-0.1284599
			c0-0.0963402,0.0388012-0.1900082,0.1164131-0.2796593l0.5753822-0.6784172
			c0.041481-0.0481701,0.082962-0.084301,0.1244431-0.1070461l0.0883198-0.0521889
			c0.060215-0.033453,0.1110554-0.0401421,0.1525364-0.0160561c0.04282,0.0240841,0.0628948,0.0709229,0.0628948,0.1391582
			l0.008028,2.7390995l0.4081211-0.235508c0.0548668-0.0307732,0.1003571-0.0361309,0.1378288-0.0147171
			C32.3903961,25.026062,32.4091339,25.068882,32.4091339,25.1304379z"/>
		<path class="st11" d="M34.1482658,24.3936081c0.3724861-0.2150478,0.6625061-0.5437508,0.8606682-0.9757748
			c0.1973-0.4305229,0.2968903-0.9206715,0.2953644-1.4566803c-0.0015221-0.5369797-0.1035538-0.9107246-0.3026505-1.1124039
			c-0.199955-0.2021599-0.4908943-0.195446-0.8633804,0.0196018c-0.3750496,0.2165356-0.6650658,0.5452461-0.8623734,0.9767628
			c-0.1956024,0.4295502-0.2943268,0.9192104-0.2928085,1.4561901c0.0015182,0.5360088,0.1027031,0.9102421,0.3000946,1.1129017
			C33.4822845,24.6168575,33.7732124,24.6101437,34.1482658,24.3936081z M34.6966858,21.3384991
			c0.1305199,0.1586628,0.1972275,0.4475842,0.1983986,0.8589115c0.0011749,0.414278-0.0636787,0.7801495-0.1928749,1.0897484
			c-0.127491,0.3056545-0.3142624,0.5305042-0.5551872,0.6696072c-0.2400627,0.1385956-0.4274902,0.1297913-0.5563011-0.0278912
			c-0.1305199-0.1586704-0.1972389-0.4495602-0.1984138-0.8638363c-0.0011597-0.4113293,0.063694-0.7762127,0.1928902-1.0848236
			c0.127491-0.3066597,0.3142548-0.5314999,0.5543289-0.6700954C34.3804474,21.1710167,34.5678749,21.1798115,34.6966858,21.3384991
			z"/>
		<g>
			<path class="st11" d="M21.7765732,36.8254433c0,0.061554-0.018734,0.1244392-0.0561962,0.187336
				c-0.0374718,0.0642281-0.082962,0.1123962-0.1378288,0.143177l-1.3086605,0.7560234
				c-0.0548668,0.0307808-0.1003571,0.0361328-0.136488,0.0160561c-0.0361233-0.0214043-0.0548592-0.0628853-0.0548592-0.1244431
				c0-0.0615463,0.0173969-0.125782,0.0535202-0.1900063c0.0361309-0.0628891,0.0816307-0.1123962,0.136488-0.143177
				l0.4910812-0.2850189l-0.0066891-2.4340057l-0.4148083,0.4736938c-0.041481,0.0454903-0.0749321,0.0749321-0.101696,0.0896492
				c-0.0575371,0.0334511-0.1043758,0.0401421-0.1404991,0.018734c-0.0361328-0.0200729-0.0548668-0.0642319-0.0548668-0.1284599
				c0-0.0963402,0.0388088-0.1900063,0.1164131-0.2796593l0.5753918-0.6784172
				c0.0414791-0.0481796,0.0829601-0.084301,0.1244411-0.108387l0.0883121-0.0508461
				c0.060215-0.0347939,0.1110649-0.0401497,0.152544-0.0160561c0.0428219,0.0240822,0.0628872,0.0709152,0.0628872,0.1391563
				l0.008028,2.73909l0.4081287-0.2354965c0.0548573-0.0321236,0.1003571-0.0361328,0.1378193-0.0147247
				C21.7565079,36.7210732,21.7765732,36.7638931,21.7765732,36.8254433z"/>
			<path class="st11" d="M23.5055943,32.5637627c-0.375042,0.2165337-0.6650639,0.5442505-0.8623734,0.976757
				c-0.1955948,0.4295502-0.2943268,0.9192009-0.2928085,1.4552078c0.0015202,0.5360107,0.1027107,0.9112244,0.3000927,1.1129036
				c0.1991062,0.2036285,0.490036,0.1969261,0.8650875-0.0196114c0.3724937-0.2150574,0.662508-0.5437584,0.8606663-0.9767532
				c0.1973095-0.4295578,0.2968922-0.9206886,0.2953739-1.4566994c-0.0015202-0.5359993-0.1035595-0.9097443-0.3026505-1.111412
				C24.1690197,32.341011,23.8780899,32.3487053,23.5055943,32.5637627z M22.958046,35.623291
				c-0.130518-0.1586723-0.1972275-0.4495506-0.1984024-0.8638306c-0.0011692-0.4113274,0.0636864-0.7762108,0.1928825-1.0848312
				c0.1274891-0.3056602,0.3142548-0.5314903,0.5543194-0.6700935c0.2409286-0.1390953,0.4283657-0.1293106,0.557169,0.0283813
				c0.130518,0.1586685,0.1972275,0.4475899,0.1983948,0.8589172c0.0011768,0.4142799-0.0636787,0.7811203-0.1928749,1.0897408
				c-0.1274872,0.3056641-0.3142548,0.5314903-0.5551834,0.6705856
				C23.2742863,35.7907639,23.0868511,35.7809906,22.958046,35.623291z"/>
			<path class="st11" d="M27.0433407,33.6247063c-0.0374622-0.0200768-0.082962-0.0160561-0.1378212,0.0147171l-0.4081192,0.2368469
				l-0.008028-2.7390995c0-0.0682373-0.0200748-0.1150761-0.0628948-0.1391602
				c-0.041481-0.0240841-0.092329-0.0187359-0.1525459,0.0160561l-0.0896511,0.0508499
				c-0.0401402,0.0240841-0.0816212,0.060215-0.1231022,0.1083851l-0.5753822,0.6784191
				c-0.0776119,0.0883102-0.1164131,0.1833172-0.1164131,0.279665c0,0.0642281,0.0187263,0.107048,0.0548573,0.1284523
				c0.0361309,0.0214157,0.082962,0.0147171,0.1404991-0.018734c0.0267639-0.0160561,0.0602169-0.0441513,0.1016979-0.0896492
				l0.4148083-0.4736862l0.0066967,2.4340057l-0.4910889,0.2850189c-0.0548592,0.0307732-0.100359,0.0802803-0.1364822,0.143177
				c-0.0361309,0.0642242-0.0548668,0.1284523-0.0535259,0.1900063c0,0.0615578,0.018734,0.1030388,0.0548668,0.1231041
				c0.0361233,0.0214157,0.0816212,0.0160561,0.1351414-0.0147171l1.3100071-0.756031
				c0.0535183-0.0321121,0.1003571-0.0789413,0.1378193-0.143177c0.0374699-0.0628853,0.0562057-0.125782,0.0562057-0.1873283
				C27.1008854,33.6902695,27.0808105,33.6474495,27.0433407,33.6247063z M25.433609,34.7540627
				c0.0040092,0.022747,0.0120373,0.0401421,0.0240841,0.0535278C25.4456463,34.7955437,25.4376183,34.7768097,25.433609,34.7540627
				z"/>
			<path class="st11" d="M28.8298016,29.4898281c-0.3750515,0.2165432-0.6650734,0.5442581-0.8623753,0.9767647
				c-0.1956024,0.4295502-0.2943363,0.9192009-0.2928162,1.4552097c0.0015182,0.5360069,0.1027012,0.9112206,0.3000927,1.1128998
				c0.1991062,0.2036324,0.490036,0.1969261,0.8650856-0.0196075c0.3724957-0.2150574,0.6625099-0.543766,0.8606682-0.976757
				c0.1973095-0.4295559,0.2968922-0.9206867,0.295372-1.4566956c-0.0015182-0.5359993-0.10355-0.9097443-0.3026562-1.111414
				C29.4932156,29.267086,29.2022877,29.2747726,28.8298016,29.4898281z M28.2822514,32.549366
				c-0.1305256-0.1586723-0.1972427-0.4495544-0.1984196-0.8638306c-0.0011673-0.4113293,0.0636959-0.7762203,0.1928921-1.0848312
				c0.1274967-0.3056622,0.3142529-0.5314922,0.554327-0.6700954c0.240921-0.1390953,0.4283562-0.1293106,0.5571613,0.0283813
				c0.130518,0.1586704,0.1972275,0.4475899,0.1983948,0.8589191c0.0011768,0.414278-0.0636787,0.7811203-0.1928749,1.0897388
				c-0.1274891,0.3056622-0.3142548,0.5314922-0.5551758,0.6705875
				C28.598484,32.7168388,28.4110565,32.7070541,28.2822514,32.549366z"/>
			<path class="st11" d="M32.42519,30.6782017c0,0.0615559-0.0187378,0.1244431-0.0561981,0.1873379
				c-0.0374718,0.0642262-0.084301,0.1110649-0.1378288,0.1418381L30.9211636,31.76474
				c-0.0535259,0.0307827-0.0990181,0.0347919-0.135149,0.0147266c-0.0361309-0.0200748-0.0548668-0.0615559-0.0548668-0.1231117
				c-0.0013313-0.0615482,0.0173969-0.125782,0.0535278-0.1900082s0.0816212-0.1123962,0.135149-0.1431789l0.4924202-0.2850151
				l-0.0066891-2.4340076l-0.4148159,0.4736938c-0.041481,0.0441513-0.0749321,0.0735931-0.1016884,0.0896492
				c-0.0575466,0.033453-0.1043758,0.0401421-0.1405067,0.0173969c-0.0361233-0.0200748-0.0548592-0.0628948-0.0548592-0.1284618
				c-0.001339-0.0949993,0.0388012-0.1900082,0.116415-0.2783184l0.5753803-0.6797581
				c0.0401421-0.0481701,0.082962-0.082962,0.1231117-0.1070461l0.0896511-0.050848
				c0.058876-0.0347919,0.1110649-0.0401421,0.1525459-0.016058c0.0428123,0.024086,0.0628872,0.0709152,0.0628872,0.1391602
				l0.008028,2.7377586l0.4081192-0.2355061c0.0535278-0.0307827,0.1003571-0.0347919,0.1378288-0.0147171
				C32.4051132,30.5724945,32.423851,30.6166553,32.42519,30.6782017z"/>
			<path class="st11" d="M34.1539993,26.4159031c-0.3750534,0.2165356-0.6650734,0.5442562-0.8623772,0.9767551
				c-0.1956024,0.4295578-0.2943344,0.9192104-0.2928047,1.4552097c0.0015182,0.5360088,0.1026993,0.9112225,0.3000832,1.1129017
				c0.1991158,0.2036304,0.4900436,0.1969337,0.8650932-0.0196018c0.3724785-0.2150555,0.6625023-0.543766,0.8606682-0.9767628
				c0.1973038-0.4295502,0.2968826-0.920681,0.2953644-1.4566879c-0.0015182-0.5360012-0.1035576-0.9097443-0.3026505-1.1114235
				C34.8174133,26.1931534,34.5264854,26.2008533,34.1539993,26.4159031z M33.6064491,29.4754391
				c-0.1305275-0.1586723-0.1972427-0.4495525-0.19841-0.8638287c-0.0011711-0.4113293,0.0636864-0.7762203,0.1928825-1.0848312
				c0.1274948-0.3056641,0.3142624-0.5314922,0.5543251-0.6700974c0.2409248-0.1390934,0.42836-0.1293182,0.5571632,0.0283737
				c0.1305275,0.1586704,0.1972351,0.4475994,0.1984024,0.8589191c0.0011673,0.414278-0.0636787,0.7811279-0.1928749,1.0897484
				c-0.1274948,0.3056622-0.3142624,0.5314922-0.5551834,0.6705856
				C33.9226875,29.6429138,33.7352524,29.6331291,33.6064491,29.4754391z"/>
		</g>
	</g>
	<path class="st5" d="M13.6882458,18.6080265c-1.2060204,0-2.1818151,0.9757957-2.1818151,2.1818161
		c0-0.6019592-0.2449999-1.1489887-0.6378489-1.5439529c-0.3949776-0.3928623-0.9420071-0.6378632-1.5439539-0.6378632
		c0.6019468,0,1.1489763-0.2449989,1.5439539-0.6378613c0.392849-0.3949642,0.6378489-0.9419937,0.6378489-1.543951
		c0,0.6019573,0.2450123,1.1489868,0.6378622,1.543951C12.5392561,18.3630276,13.0862989,18.6080265,13.6882458,18.6080265z"/>
</g>
</svg>
