<?xml version="1.0" encoding="utf-8"?>
<!-- Generator: Adobe Illustrator 22.0.0, SVG Export Plug-In . SVG Version: 6.00 Build 0)  -->
<svg version="1.1" id="Layer_1" xmlns="http://www.w3.org/2000/svg" xmlns:xlink="http://www.w3.org/1999/xlink" x="0px" y="0px"
	 viewBox="0 0 50 50" style="enable-background:new 0 0 50 50;" xml:space="preserve">
<style type="text/css">
	.st0{fill:#9EA9C9;}
	.st1{fill:#B0B8CF;}
	.st2{fill:#C9CEE2;}
	.st3{fill:#E3E7F0;}
	.st4{fill:#F45170;}
	.st5{fill:#FFFFFF;}
	.st6{fill:#57B3FE;}
	.st7{fill:#E8E6FB;}
	.st8{fill:#DEDFFB;}
	.st9{fill:#F3F1FC;}
	.st10{fill:#1D2943;}
	.st11{fill:#4C5C75;}
	.st12{fill:#F9A83D;}
	.st13{fill:#FFD06C;}
	.st14{fill:#FFDE9B;}
	.st15{fill:#FEBC1F;}
	.st16{fill:#5094FF;}
	.st17{fill:#F8CA2F;}
	.st18{fill:#E93565;}
	.st19{fill:#DF3260;}
	.st20{opacity:0.8;fill:#F45170;}
	.st21{opacity:0.5;}
	.st22{enable-background:new    ;}
	.st23{fill:#DBA660;}
	.st24{fill:#111D33;}
	.st25{fill:none;}
	.st26{fill:#F8F9FE;}
	.st27{fill:#E9E7FC;}
	.st28{fill:#EDEEF2;}
	.st29{fill:#DEDFFA;}
	.st30{fill:#0F1522;}
	.st31{fill:#78E75A;}
	.st32{fill:#72D561;}
	.st33{fill:#986FF9;}
	.st34{fill:#B28AFD;}
	.st35{fill:#497BFE;}
	.st36{fill:#7E5AF2;}
	.st37{fill:#3B3E3F;}
	.st38{fill:#FEFEFE;}
	.st39{fill:#BF7D5A;}
	.st40{fill:#F4D6D4;}
	.st41{fill:#F5C9C6;}
	.st42{fill:#5EC363;}
	.st43{fill:#FFD475;}
	.st44{fill:#FFDD95;}
	.st45{fill:#FFB961;}
	.st46{fill:#DADCF7;}
	.st47{fill:#AA6256;}
	.st48{fill:#8A4852;}
	.st49{fill:#CED1F2;}
	.st50{fill:#3979EA;}
	.st51{fill:#29313F;}
	.st52{fill:#3B475A;}
	.st53{fill:#414F65;}
	.st54{opacity:0.2;fill:#57B3FE;}
	.st55{fill:#50B069;}
	.st56{fill:#C8C7D9;}
	.st57{fill:#822B3C;}
	.st58{fill:#D24660;}
	.st59{fill:#7D7B87;}
	.st60{fill:#B4B3C3;}
	.st61{fill:#BD3F57;}
	.st62{fill:#CFCEEA;}
	.st63{opacity:0.7;fill:#57B3FE;}
</style>
<g id="_x31_3">
	<g>
		<g>
			<path class="st16" d="M45.5050049,25.5287609c0,2.4500122-1.7299805,5.460022-3.8900146,6.7000103L13.4949951,48.4687614
				c-1.0999756,0.6400146-2.0899658,0.6799927-2.7999878,0.2399902L4.335022,45.0187492
				c-0.7000122-0.4099731-1.1300049-1.2699585-1.1400146-2.4899902c0-2.0799561,1.210022-4.5199585,2.8599854-5.9799805
				c-0.0299683-0.2700195-0.0499878-0.5599976-0.0499878-0.8499756c-0.0100098-3.4700317,2.4199829-7.6800518,5.4199829-9.4100323
				c0.5300293-0.2999878,1.0300293-0.5200195,1.5100098-0.6300049c0.0499878-4.25,3.0200195-9.3499756,6.6900024-11.4699717
				c1.8599854-1.0800171,3.5499878-1.1700439,4.7800293-0.4700317l4.3800049,2.5499887
				c0.0700073-0.039978,0.1499634-0.0899658,0.2199707-0.1300049c1.5200195-0.8699961,2.8900146-0.9599619,3.8900146-0.3799448
				l6.4000244,3.7199717c-0.0500488-0.0299683-0.1000366-0.0499878-0.1500244-0.0700073
				c0.539978,0.2600098,0.9699707,0.710022,1.2700195,1.3200073l3.9499512,2.289978
				c-0.0499878-0.0299683-0.0999756-0.0499878-0.1499634-0.0699463C45.0050049,23.3188,45.4949951,24.2187634,45.5050049,25.5287609
				z"/>
		</g>
		<g>
			<path class="st16" d="M37.9562798,19.2977734l6.4055214,3.7224998c-0.7074318-0.4111309-1.6860352-0.3551598-2.7673759,0.2691536
				c-0.2611008,0.1507454-0.5075951,0.3264618-0.7540932,0.5188675l-6.4055405-3.7224751
				c0.2465134-0.1924152,0.4930077-0.3681316,0.7541084-0.5188789
				C36.2702408,18.942627,37.2488403,18.8866558,37.9562798,19.2977734z"/>
		</g>
		<g>
			<path class="st35" d="M32.8901749,15.7587528l6.4055138,3.7224941c-0.9926109-0.5768585-2.3681488-0.493269-3.8863907,0.3832893
				c-0.9647141,0.5569782-1.8560715,1.355444-2.6452599,2.3119755l-6.4055328-3.7224808
				c0.789196-0.9565353,1.6805515-1.755003,2.6452656-2.3119812C30.5220127,15.2654924,31.8975506,15.1819019,32.8901749,15.7587528
				z"/>
		</g>
		<g>
			<path class="st16" d="M10.7394056,48.7370071L4.3338752,45.014534c-0.6981819-0.4057541-1.1306148-1.2678986-1.1340718-2.4872818
				c-0.0058835-2.0753288,1.2077374-4.5208206,2.8600874-5.9756966l6.4055147,3.7224846
				c-1.652338,1.4548759-2.8659582,3.9003677-2.860075,5.9757004C9.6087875,47.46912,10.0412207,48.3312683,10.7394056,48.7370071z"
				/>
		</g>
		<g>
			<path class="st16" d="M30.8124866,17.445097c-1.226965-0.7157249-2.9196854-0.6134491-4.7828407,0.4658241
				c-3.6808262,2.1244278-6.6346264,7.2253304-6.6914158,11.4628143L12.93083,25.6588631
				c0.056859-4.2489243,3.0219612-9.3498268,6.6914158-11.4742556c1.8631554-1.0792713,3.5558758-1.1701069,4.7828407-0.4657545
				L30.8124866,17.445097z"/>
		</g>
		<g>
			<path class="st35" d="M12.4654179,40.2740402l-6.40554-3.7224808c-0.0370674-0.2707901-0.0524292-0.5624657-0.053256-0.8541641
				c-0.0098295-3.4672241,2.4193492-7.6747456,5.4222512-9.4084721c0.5222502-0.3015213,1.0301781-0.5196438,1.5021124-0.6334934
				l6.4055109,3.7224922c-0.4719181,0.113842-0.979845,0.3319645-1.5020962,0.6334858
				c-3.0029011,1.7337265-5.4320803,5.9412479-5.4222507,9.4084721
				C12.4129763,39.7115822,12.4283381,40.0032539,12.4654179,40.2740402z"/>
		</g>
		<g>
			<path class="st6" d="M26.0243301,17.9113884c3.7137222-2.1441183,6.7336845-0.4231472,6.7457848,3.8442039
				c0.0003777,0.1333523,0.0007782,0.2750416-0.0060768,0.4209194c0.7891884-0.9565315,1.6805458-1.7549973,2.6452599-2.3119755
				c2.3790741-1.37356,4.4077377-0.8000164,5.1617584,1.2107124c0.1976929,0.5453777,0.3084869,1.1826649,0.3105431,1.9077854
				c0.0007782,0.2750416-0.0057449,0.5459499-0.0412674,0.8252602c0.2464981-0.1924057,0.4929924-0.3681221,0.7540932-0.5188675
				c2.1542778-1.2437725,3.9007797-0.2318172,3.9077721,2.2352448c0.0069504,2.450388-1.7281418,5.4640903-3.8824196,6.7078648
				L13.4985218,48.4683495c-2.1469955,1.2395706-3.8862448,0.2317772-3.8931913-2.2186089
				c-0.0058832-2.0753326,1.207737-4.5208244,2.8600874-5.9757004c-0.0370798-0.2707863-0.0524416-0.562458-0.0532684-0.8541603
				c-0.0098295-3.4672241,2.4193497-7.6747456,5.4222507-9.4084721c0.5222511-0.3015213,1.0301781-0.5196438,1.5021133-0.6334934
				C19.3898563,25.1312237,22.3541412,20.0303726,26.0243301,17.9113884z"/>
		</g>
		<g>
			<g class="st22">
				<g>
					<path class="st2" d="M43.375,12.8287477c0.0100098,0.5-0.3499756,1.1000366-0.7699585,1.3500366
						c-0.2200317,0.1199951-0.4200439,0.1400146-0.5599976,0.0599976l-1.5600586-0.9000244
						c-0.1399536-0.0799561-0.2199707-0.2600098-0.2199707-0.5100098c-0.0100098-1.9499512-0.5700073-3.4400024-1.5200195-4.3499756
						c-1.289978-0.3800049-2.8800049-0.1199951-4.6099854,0.8800049c-0.2799683,0.1599731-0.5200195,0.1400146-0.6599731-0.039978
						c0.0299683,0.039978,0.0700073,0.0699463,0.1099854,0.0999756l-1.5499878-0.9099731
						c-0.1500244-0.0800171-0.2300415-0.25-0.2300415-0.5c0-0.5,0.3500366-1.1100464,0.7800293-1.3600464
						c2.5499878-1.4699707,4.8699951-1.5999756,6.5499878-0.6300049L40.625,6.8887453
						c0.0200195,0.0100098,0.0400391,0.0200195,0.0599976,0.0400391C42.3450317,7.8787966,43.3649902,9.9287844,43.375,12.8287477z"
						/>
					<path class="st2" d="M39.9550171,14.8087893c0,0.5-0.3499756,1.0999756-0.7800293,1.3499765
						c-0.2199707,0.1300049-0.4099731,0.1400146-0.5499878,0.0499878l-1.5599976-0.8999643
						c-0.1400146-0.0800171-0.2199707-0.25-0.2199707-0.5c-0.0100098-0.8800049-0.210022-1.5800171-0.5599976-2.0800171
						c-0.6300049-0.0700073-1.3600464,0.0999756-2.1300049,0.5499878c-0.2700195,0.1600342-0.5200195,0.1400146-0.6600342-0.0199585
						c0.0300293,0.0299683,0.0599976,0.0599976,0.0900269,0.0799561l-1.539978-0.8999634
						c-0.1400146-0.0900269-0.2300415-0.25-0.2300415-0.5100098c0-0.4899902,0.3500366-1.1000366,0.7800293-1.3400269
						c1.6099854-0.9299927,3.0700073-1.0199585,4.1099854-0.4099731l1.5599976,0.8999634
						c-0.2600098-0.1499634-0.539978-0.25-0.8499756-0.3099976C38.9450073,11.0887575,39.9450073,12.52876,39.9550171,14.8087893z"
						/>
					<path class="st2" d="M46.8049927,10.858777c0,0.5-0.3499756,1.0999756-0.7799683,1.3499756
						c-0.2299805,0.1300049-0.4299927,0.1400146-0.5700073,0.0500488l-1.5499878-0.9000244
						c-0.1400146-0.0800171-0.2300415-0.25-0.2300415-0.5c-0.0099487-3.039978-0.9499512-5.289978-2.5-6.5800171
						C39.2550049,3.5587893,36.8049927,3.8787966,34.125,5.4287844c-0.2199707,0.1300049-0.4099731,0.1400146-0.5499878,0.0499878
						l-1.5499878-0.9000244c-0.1500244-0.0799561-0.2299805-0.2599487-0.2299805-0.5
						c0-0.5099487,0.3499756-1.0999756,0.7799683-1.3599854c3.5-2.0100098,6.6799927-2.2000122,8.9700317-0.8699951
						l1.4699707,0.8599854C45.3450317,3.9987917,46.7850342,6.8287477,46.8049927,10.858777z"/>
				</g>
			</g>
		</g>
		<g>
			<g class="st22">
				<g>
					<path class="st2" d="M38.6220207,16.2118244l-1.5543213-0.9032526
						c-0.1395378-0.0811119-0.2263374-0.2537737-0.2270432-0.5019283c-0.0038071-1.3428783-0.4789581-2.2839947-1.248806-2.7227478
						l1.554306,0.9032736c0.7698555,0.4387484,1.2450066,1.3798647,1.2488136,2.722744
						C38.3956757,15.9580669,38.4824753,16.1307297,38.6220207,16.2118244z"/>
				</g>
				<g>
					<path class="st2" d="M42.0426941,14.2389412l-1.5543213-0.9032669
						c-0.139679-0.0811787-0.2254677-0.2552567-0.2261734-0.5044584c-0.0068817-2.4269066-0.8720131-4.123313-2.2634544-4.9162393
						l1.554306,0.9032769c1.391449,0.7929182,2.2565842,2.4893246,2.2634621,4.9162312
						C41.8172188,13.9836864,41.9030075,14.1577644,42.0426941,14.2389412z"/>
				</g>
				<g>
					<path class="st2" d="M45.4572029,12.2636023l-1.5543137-0.903265
						c-0.1394081-0.0810184-0.2255135-0.2533007-0.2262154-0.5004702c-0.0099525-3.51092-1.2580719-5.9747753-3.2710571-7.1219158
						l1.554306,0.9032755c2.0129929,1.1471343,3.2611122,3.6109886,3.2710686,7.1219091
						C45.2316895,12.0103054,45.3177948,12.1825876,45.4572029,12.2636023z"/>
				</g>
				<g>
					<path class="st2" d="M38.2631302,11.0817509c-1.0475502-0.6064558-2.514122-0.5293274-4.1130066,0.4079819
						c-0.4299889,0.2425556-0.7828522,0.8490782-0.7828522,1.3452253c0,0.2536602,0.0881653,0.4190207,0.2204781,0.5072527
						l-1.5436974-0.9041977c-0.1433525-0.088232-0.2315845-0.2535925-0.2315845-0.5072527
						c0-0.4961472,0.3528614-1.1026697,0.7829189-1.3452253c1.6099243-0.9262724,3.0653915-1.0144377,4.1129417-0.4079819
						L38.2631302,11.0817509z"/>
				</g>
				<g>
					<path class="st3" d="M34.1449318,11.4868526c3.2032547-1.8494005,5.802536-0.352006,5.8129463,3.320715
						c0.0014229,0.5015602-0.349472,1.101202-0.7788849,1.349123c-0.4294586,0.2479477-0.7826004,0.0547829-0.7840233-0.4467773
						c-0.0038071-1.3428793-0.4789581-2.2839956-1.2488022-2.7227478c-0.7698936-0.4387255-1.8274612-0.3791389-2.9961433,0.2956009
						c-0.4294586,0.2479486-0.7826004,0.0547962-0.7840233-0.446764
						C33.3646011,12.342535,33.7154732,11.7348013,34.1449318,11.4868526z"/>
				</g>
				<g>
					<path class="st2" d="M40.6889496,6.9246621c-1.6760139-0.970355-4.0026321-0.8380399-6.5498619,0.6285305
						c-0.4299927,0.2535925-0.782856,0.8601146-0.782856,1.3562627c0,0.2536602,0.0882339,0.4190197,0.2315178,0.5072527
						l-1.5547333-0.9041977c-0.1433525-0.088233-0.2315865-0.2535925-0.2315865-0.5072527
						c0-0.4961476,0.3528633-1.1026702,0.7829208-1.3562627c2.5471649-1.4665704,4.8737831-1.5988855,6.5498619-0.62853
						L40.6889496,6.9246621z"/>
				</g>
				<g>
					<path class="st3" d="M34.1337852,7.5552669c5.0830193-2.9265757,9.2290764-0.5638895,9.245636,5.2768731
						c0.0014229,0.5015593-0.349472,1.1012011-0.7789307,1.3491497c-0.4364777,0.2519999-0.7825546,0.0547552-0.7839775-0.446805
						c-0.0068779-2.4269066-0.8720131-4.123313-2.2634544-4.9162388c-1.3914604-0.8010321-3.3020973-0.6783724-5.4141579,0.5410261
						c-0.4294586,0.2479486-0.7826233,0.0466909-0.7840233-0.4467773
						C33.3534546,8.4109354,33.7043266,7.803215,34.1337852,7.5552669z"/>
				</g>
				<g>
					<path class="st2" d="M43.1038017,2.756604c-2.2935066-1.3342551-5.4692039-1.1468201-8.9756851,0.8710852
						c-0.4300575,0.2535927-0.7829208,0.8490775-0.7829208,1.3562629c0,0.2426224,0.0882339,0.4190202,0.2315865,0.4962149
						l-1.5548058-0.9041977c-0.1433506-0.0771947-0.2315159-0.2535925-0.2315159-0.4962149
						c0-0.5071852,0.3527966-1.1026702,0.7828541-1.3562627c3.5064812-2.0179055,6.6821785-2.2053404,8.97575-0.8710853
						L43.1038017,2.756604z"/>
				</g>
				<g>
					<path class="st3" d="M34.1226616,3.6317589c6.9697533-4.0239873,12.6485291-0.7797575,12.6782532,7.2249804
						c0.0014229,0.5015593-0.3494225,1.1011734-0.7788849,1.349122c-0.4365234,0.2520285-0.7896194,0.058835-0.7910385-0.4427252
						c-0.0099564-3.5109205-1.2580757-5.9747748-3.2710609-7.1219158c-2.012989-1.1471405-4.7767372-0.9776065-7.8321762,0.7864523
						c-0.4294586,0.2479486-0.7826233,0.0467043-0.7840233-0.4467635C33.342308,4.4793487,33.693203,3.8797073,34.1226616,3.6317589
						z"/>
				</g>
			</g>
		</g>
		<g>
			<path class="st5" d="M23.6027946,38.734787c-1.5801811,0-2.5270557-1.3024139-2.5332279-3.4838066
				c-0.0102882-3.5842133,2.5196476-7.9655151,5.6400948-9.766674c0.8176632-0.4719982,1.615572-0.7217808,2.308136-0.7217808
				c1.577301,0,2.5229416,1.2974758,2.5291138,3.4710484c0.0098763,3.5920334-2.5204716,7.9795074-5.6405087,9.7806664
				C25.0903873,38.4854164,24.2937126,38.734787,23.6027946,38.734787z"/>
			<path class="st24" d="M27.4050293,31.358778l0.4799805,2.3099957l-3.1300049,1.7999878
				c0.0162621-0.1003761,0.4763317-2.9403343,0.460022-2.8399658c-0.4299927-0.1300049-0.710022-0.5700073-0.7200317-1.2400494
				c0-1.1499634,0.8099976-2.539978,1.8099976-3.1099854c1.0624313-0.60042,1.8099976-0.0590172,1.8099976,1.0300293
				C28.1149902,29.9787731,27.835022,30.7287731,27.4050293,31.358778z"/>
			<g>
				<path class="st11" d="M27.4061413,31.3556137c0.430994-0.6231709,0.7105484-1.3803577,0.7105484-2.044302
					c-0.0058289-0.8329067-0.4251614-1.2930145-1.0309124-1.2813549c-0.0407391,0-0.0815144,0.0058308-0.1222878,0.0116253
					c0.1980057,0.2155323,0.30867,0.5474854,0.3144989,0.9785137c0,0.6639442-0.2737255,1.421133-0.7047539,2.044302
					l0.4718037,2.3122692l-0.0012798,0.0007095l0.8394127,0.287838L27.4061413,31.3556137z"/>
				<polygon class="st11" points="27.0437584,33.3773766 24.8900375,34.6172447 24.825943,35.0249519 24.7560558,35.4675713 
					27.8837032,33.667881 27.8831711,33.6652145 				"/>
			</g>
			<path class="st24" d="M26.5732346,31.0643978c0.4310284-0.6231689,0.7047539-1.3803577,0.7047539-2.044302
				c-0.0058289-0.4310284-0.1164932-0.7629814-0.3144989-0.9785137c-0.2038727,0.0233192-0.430994,0.1048679-0.6581497,0.2329865
				c-0.9959679,0.576601-1.8055553,1.9627876-1.8055553,3.1159897c0.0058289,0.6698093,0.2854214,1.1066303,0.7105827,1.2347851
				l-0.3203297,1.9919014l2.1550007-1.2405777L26.5732346,31.0643978z"/>
		</g>
	</g>
	<path class="st5" d="M24.1293888,22.1765118c-1.2479877,0-2.2577362,1.0097504-2.2577362,2.2577362
		c0-0.6229057-0.2535248-1.1889706-0.6600456-1.5976791c-0.40872-0.4065323-0.9747868-0.6600571-1.5976791-0.6600571
		c0.6228924,0,1.1889591-0.2535248,1.5976791-0.660059c0.4065208-0.4087067,0.6600456-0.9747715,0.6600456-1.5976772
		c0,0.6229057,0.2535362,1.1889706,0.6600571,1.5976772C22.9404163,21.922987,23.5064964,22.1765118,24.1293888,22.1765118z"/>
</g>
</svg>
