<?xml version="1.0" encoding="utf-8"?>
<!-- Generator: Adobe Illustrator 22.0.0, SVG Export Plug-In . SVG Version: 6.00 Build 0)  -->
<svg version="1.1" id="Layer_1" xmlns="http://www.w3.org/2000/svg" xmlns:xlink="http://www.w3.org/1999/xlink" x="0px" y="0px"
	 viewBox="0 0 50 50" style="enable-background:new 0 0 50 50;" xml:space="preserve">
<style type="text/css">
	.st0{fill:#9EA9C9;}
	.st1{fill:#B0B8CF;}
	.st2{fill:#C9CEE2;}
	.st3{fill:#E3E7F0;}
	.st4{fill:#F45170;}
	.st5{fill:#FFFFFF;}
	.st6{fill:#57B3FE;}
	.st7{fill:#E8E6FB;}
	.st8{fill:#DEDFFB;}
	.st9{fill:#F3F1FC;}
	.st10{fill:#1D2943;}
	.st11{fill:#4C5C75;}
	.st12{fill:#F9A83D;}
	.st13{fill:#FFD06C;}
	.st14{fill:#FFDE9B;}
	.st15{fill:#FEBC1F;}
	.st16{fill:#5094FF;}
	.st17{fill:#F8CA2F;}
	.st18{fill:#E93565;}
	.st19{fill:#DF3260;}
	.st20{opacity:0.8;fill:#F45170;}
	.st21{opacity:0.5;}
	.st22{enable-background:new    ;}
	.st23{fill:#DBA660;}
	.st24{fill:#111D33;}
	.st25{fill:none;}
	.st26{fill:#F8F9FE;}
	.st27{fill:#E9E7FC;}
	.st28{fill:#EDEEF2;}
	.st29{fill:#DEDFFA;}
	.st30{fill:#0F1522;}
	.st31{fill:#78E75A;}
	.st32{fill:#72D561;}
	.st33{fill:#986FF9;}
	.st34{fill:#B28AFD;}
	.st35{fill:#497BFE;}
	.st36{fill:#7E5AF2;}
	.st37{fill:#3B3E3F;}
	.st38{fill:#FEFEFE;}
	.st39{fill:#BF7D5A;}
	.st40{fill:#F4D6D4;}
	.st41{fill:#F5C9C6;}
	.st42{fill:#5EC363;}
	.st43{fill:#FFD475;}
	.st44{fill:#FFDD95;}
	.st45{fill:#FFB961;}
	.st46{fill:#DADCF7;}
	.st47{fill:#AA6256;}
	.st48{fill:#8A4852;}
	.st49{fill:#CED1F2;}
	.st50{fill:#3979EA;}
	.st51{fill:#29313F;}
	.st52{fill:#3B475A;}
	.st53{fill:#414F65;}
	.st54{opacity:0.2;fill:#57B3FE;}
	.st55{fill:#50B069;}
	.st56{fill:#C8C7D9;}
	.st57{fill:#822B3C;}
	.st58{fill:#D24660;}
	.st59{fill:#7D7B87;}
	.st60{fill:#B4B3C3;}
	.st61{fill:#BD3F57;}
	.st62{fill:#CFCEEA;}
	.st63{opacity:0.7;fill:#57B3FE;}
</style>
<g id="_x39_3">
	<path class="st8" d="M49.0006561,20.6182613c0.0100098,3.6500244-2.5700073,8.1199951-5.75,9.960022
		c-1.4700317,0.8499756-27.4700336,15.8599873-28.4000263,16.3999653c-1.9899902,1.1400146-3.789978,1.25-5.0899658,0.4899902
		c-0.0400391-0.0199585-0.0900269-0.0499878-0.1300049-0.0799561l-6.5400391-3.7900391
		c-1.2899781-0.75-2.0799561-2.3299561-2.0899658-4.5899658c-0.0100097-4.1300049,2.6300049-9.080019,6.0700073-11.6400166
		c0.7199707-4.0599976,3.5499878-8.4099731,6.9500122-10.3599854c1.4400024-0.8400269,2.7799683-1.1300039,3.8999634-0.9199829
		c0.1000481-0.1000481,0.1100578-0.1100578,0.0100098-0.0100098c0.7600098-3.1400137,2.4099731-6.3300161,4.5700073-8.8900146
		c1.3300171-1.5800171,2.789978-2.789978,4.4400024-3.8300169c2.6699829-1.5299683,5.080019-1.6799927,6.8099995-0.6699829
		l6.4899902,3.779968l0.1699829,0.1000366c-0.0264282-0.0146484-0.055481-0.0293579-0.0821533-0.0440063
		c1.7563477,0.973877,2.852356,3.0964971,2.8621826,6.1339726c0,0.5900269-0.0300293,1.1900024-0.1099854,1.7900391
		l4.2399902,2.45996c-0.0700073-0.039978-0.1400146-0.0799561-0.2200317-0.1099854
		C48.2606659,17.3382931,48.9906464,18.6682491,49.0006561,20.6182613z"/>
	<path class="st8" d="M37.9330521,11.4590425l9.3827667,5.4526758c-1.0502243-0.6103306-2.5044708-0.5238094-4.1074295,0.401659
		c-0.309082,0.1784496-0.6257896,0.3968868-0.9269905,0.6241627l-9.3827782-5.4526615
		c0.3012123-0.2272835,0.6179199-0.4457207,0.927002-0.6241693C35.4285812,10.9352407,36.8828278,10.8487186,37.9330521,11.4590425z
		"/>
	<path class="st27" d="M26.9452095,3.3619196c2.6625156-1.5369236,5.0709-1.6821672,6.8016243-0.6777132l6.6679344,3.8803172
		c-1.7307205-1.0044541-4.1391068-0.8713446-6.7895546,0.6656222c-4.2358761,2.4447284-7.7940121,7.648787-9.0284157,12.7318497
		l-6.6679363-3.8803177c0.7570095-3.1404428,2.4145164-6.3365669,4.5700169-8.8927937
		C23.8353119,5.6041794,25.2908611,4.394043,26.9452095,3.3619196z"/>
	<path class="st8" d="M13.7442427,31.247385l-6.6712761-3.8747387c0.7160277-4.0597343,3.5518942-8.4095306,6.9440641-10.368
		c1.4449539-0.8342457,2.7830887-1.1265764,3.9059258-0.9210587l6.6712646,3.874752
		c-1.1228333-0.2055225-2.460968,0.0868092-3.9059219,0.9210548C17.2961292,22.8378639,14.4602633,27.1876602,13.7442427,31.247385z
		"/>
	<path class="st27" d="M9.757163,47.4722214l-6.6712837-3.8747406c-1.2836964-0.7460175-2.0801244-2.3323097-2.086524-4.5896149
		C0.9876505,34.879158,3.628329,29.9305744,7.0729737,27.3726368l6.6712527,3.8747482
		c-3.4446287,2.5579395-6.0853071,7.5065212-6.0736022,11.6352291C7.6770234,45.1399193,8.4734516,46.7262115,9.757163,47.4722214z"
		/>
	<path class="st9" d="M14.8491631,46.9734612c-3.9485111,2.2796745-7.1656508,0.4551773-7.1785388-4.090847
		c-0.0117049-4.1287079,2.6289735-9.0772896,6.0736184-11.6352291c0.7160206-4.0597248,3.5518866-8.4095211,6.9440565-10.3679905
		c1.4449539-0.8342457,2.7830887-1.1265774,3.9059258-0.9210587c1.2316895-5.0778236,4.8003941-10.2865124,9.0270824-12.7267933
		c5.2698364-3.042541,9.556778-0.608418,9.5738945,5.4292922c0.0048332,1.7047558-0.3228989,3.4947929-0.9138031,5.2767048
		c0.3012009-0.2272758,0.6179085-0.445713,0.9269905-0.6241627c3.1835365-1.8380146,5.7804985-0.3669376,5.7908974,3.3000793
		c0.0103683,3.6581039-2.5697517,8.1270695-5.7532883,9.965086C41.7766533,31.4268684,15.7822981,46.4347191,14.8491631,46.9734612z
		"/>
	<g>
		<g>
			<g>
				<g>
					<g>
						<polygon class="st10" points="47.2306366,31.5782833 47.2406464,37.2482681 31.59062,46.2882462 18.550642,38.7182388 
							18.5406322,33.0482559 19.7306347,32.3582535 18.550642,31.6782589 18.5406322,25.9982662 34.1906586,16.9582882 
							47.2306366,24.5382442 47.2406464,30.2082882 46.0506439,30.8982906 						"/>
					</g>
				</g>
			</g>
		</g>
	</g>
	<g>
		<g>
			<polygon class="st10" points="31.586853,46.2916145 18.5520954,38.7166405 18.5360126,33.0435905 31.5707703,40.6185646 			"/>
			<polygon class="st11" points="31.5707703,40.6185646 18.5360126,33.0435905 34.1925964,24.0042572 47.227356,31.5792313 			"/>
			<polygon class="st10" points="21.2693005,33.0476189 34.1908798,25.5874596 44.494297,31.5753212 31.5727158,39.0351448 			"/>
			<polygon class="st24" points="47.227356,31.5792313 47.2434387,37.2522812 31.586853,46.2916145 31.5707703,40.6185646 			"/>
			<polygon class="st10" points="32.2570229,41.0131493 46.5458832,32.7636604 46.5572548,36.8574677 32.2683945,45.1072922 			"/>
			<g>
				<polygon class="st13" points="32.9518623,41.8177528 39.8000832,37.8636475 39.8053894,39.5073242 32.9565773,43.4608421 				
					"/>
				<g>
					<g>
						<path class="st4" d="M41.2255516,37.1034851c0.3661575-0.2114029,0.6658249-0.0406342,0.6670189,0.3800774
							c0.0011902,0.4207077-0.2965584,0.9253387-0.6627197,1.1367455c-0.366127,0.2113838-0.6754341,0.0572319-0.6766281-0.3634758
							C40.5520325,37.8361244,40.8594208,37.3148689,41.2255516,37.1034851z"/>
					</g>
					<g>
						<path class="st31" d="M43.2104721,35.957489c0.3661613-0.2114029,0.6658249-0.0406303,0.6670189,0.3800774
							c0.0011902,0.4207077-0.2965584,0.9253426-0.6627197,1.1367455s-0.6657944,0.0516701-0.6669884-0.3690376
							C42.5465927,36.6845627,42.8443108,36.1688919,43.2104721,35.957489z"/>
					</g>
					<g>
						<path class="st6" d="M45.2050285,34.8059311c0.3661613-0.2114029,0.656189-0.0350685,0.657383,0.3856392
							c0.0011902,0.4207115-0.2869186,0.9197769-0.65308,1.1311836c-0.3661613,0.2114029-0.6754341,0.0572319-0.6766281-0.3634758
							C44.5315132,35.5385704,44.838871,35.017334,45.2050285,34.8059311z"/>
					</g>
				</g>
			</g>
		</g>
		<g>
			<polygon class="st10" points="31.586853,39.2494354 18.5520954,31.6744633 18.5360126,26.0014153 31.5707703,33.5763893 			"/>
			<polygon class="st11" points="31.5707703,33.5763893 18.5360126,26.0014153 34.1925964,16.9620819 47.227356,24.5370541 			"/>
			<polygon class="st10" points="21.2693005,26.0054436 34.1908798,18.5452824 44.494297,24.533144 31.5727158,31.9929714 			"/>
			<polygon class="st24" points="47.227356,24.5370541 47.2434387,30.210104 31.586853,39.2494354 31.5707703,33.5763893 			"/>
			<polygon class="st10" points="32.2570229,33.970974 46.5458832,25.7214851 46.5572548,29.8152924 32.2683945,38.0651169 			"/>
			<g>
				<polygon class="st13" points="32.9518623,34.7755775 39.8000832,30.8214703 39.8053894,32.4651489 32.9565773,36.4186668 				
					"/>
				<g>
					<g>
						<path class="st4" d="M41.2255516,30.0613079c0.3661575-0.2114029,0.6658249-0.0406322,0.6670189,0.3800774
							c0.0011902,0.4207096-0.2965584,0.9253407-0.6627197,1.1367455c-0.366127,0.2113838-0.6754341,0.0572338-0.6766281-0.3634739
							C40.5520325,30.7939472,40.8594208,30.2726936,41.2255516,30.0613079z"/>
					</g>
					<g>
						<path class="st31" d="M43.2104721,28.9153137c0.3661613-0.2114029,0.6658249-0.0406322,0.6670189,0.3800774
							c0.0011902,0.4207096-0.2965584,0.9253407-0.6627197,1.1367435s-0.6657944,0.051672-0.6669884-0.3690376
							C42.5465927,29.6423874,42.8443108,29.1267166,43.2104721,28.9153137z"/>
					</g>
					<g>
						<path class="st6" d="M45.2050285,27.7637539c0.3661613-0.2114029,0.656189-0.0350666,0.657383,0.3856411
							c0.0011902,0.4207096-0.2869186,0.9197769-0.65308,1.1311817c-0.3661613,0.2114029-0.6754341,0.0572338-0.6766281-0.3634739
							C44.5315132,28.4963932,44.838871,27.9751587,45.2050285,27.7637539z"/>
					</g>
				</g>
			</g>
		</g>
	</g>
</g>
</svg>
