<?xml version="1.0" encoding="utf-8"?>
<!-- Generator: Adobe Illustrator 22.0.0, SVG Export Plug-In . SVG Version: 6.00 Build 0)  -->
<svg version="1.1" id="Layer_1" xmlns="http://www.w3.org/2000/svg" xmlns:xlink="http://www.w3.org/1999/xlink" x="0px" y="0px"
	 viewBox="0 0 50 50" style="enable-background:new 0 0 50 50;" xml:space="preserve">
<style type="text/css">
	.st0{fill:#9EA9C9;}
	.st1{fill:#B0B8CF;}
	.st2{fill:#C9CEE2;}
	.st3{fill:#E3E7F0;}
	.st4{fill:#F45170;}
	.st5{fill:#FFFFFF;}
	.st6{fill:#57B3FE;}
	.st7{fill:#E8E6FB;}
	.st8{fill:#DEDFFB;}
	.st9{fill:#F3F1FC;}
	.st10{fill:#1D2943;}
	.st11{fill:#4C5C75;}
	.st12{fill:#F9A83D;}
	.st13{fill:#FFD06C;}
	.st14{fill:#FFDE9B;}
	.st15{fill:#FEBC1F;}
	.st16{fill:#5094FF;}
	.st17{fill:#F8CA2F;}
	.st18{fill:#E93565;}
	.st19{fill:#DF3260;}
	.st20{opacity:0.8;fill:#F45170;}
	.st21{opacity:0.5;}
	.st22{enable-background:new    ;}
	.st23{fill:#DBA660;}
	.st24{fill:#111D33;}
	.st25{fill:none;}
	.st26{fill:#F8F9FE;}
	.st27{fill:#E9E7FC;}
	.st28{fill:#EDEEF2;}
	.st29{fill:#DEDFFA;}
	.st30{fill:#0F1522;}
	.st31{fill:#78E75A;}
	.st32{fill:#72D561;}
	.st33{fill:#986FF9;}
	.st34{fill:#B28AFD;}
	.st35{fill:#497BFE;}
	.st36{fill:#7E5AF2;}
	.st37{fill:#3B3E3F;}
	.st38{fill:#FEFEFE;}
	.st39{fill:#BF7D5A;}
	.st40{fill:#F4D6D4;}
	.st41{fill:#F5C9C6;}
	.st42{fill:#5EC363;}
	.st43{fill:#FFD475;}
	.st44{fill:#FFDD95;}
	.st45{fill:#FFB961;}
	.st46{fill:#DADCF7;}
	.st47{fill:#AA6256;}
	.st48{fill:#8A4852;}
	.st49{fill:#CED1F2;}
	.st50{fill:#3979EA;}
	.st51{fill:#29313F;}
	.st52{fill:#3B475A;}
	.st53{fill:#414F65;}
	.st54{opacity:0.2;fill:#57B3FE;}
	.st55{fill:#50B069;}
	.st56{fill:#C8C7D9;}
	.st57{fill:#822B3C;}
	.st58{fill:#D24660;}
	.st59{fill:#7D7B87;}
	.st60{fill:#B4B3C3;}
	.st61{fill:#BD3F57;}
	.st62{fill:#CFCEEA;}
	.st63{opacity:0.7;fill:#57B3FE;}
</style>
<g id="_x36_9">
	<g>
		<g>
			<path class="st35" d="M49.0007706,16.8426685c-0.0700073,2.5200195-1.1199951,5.3200073-2.7200317,7.6900024
				c-1.2799683,1.9000244-2.8899536,3.5200195-4.6199951,4.5200195L14.2807398,44.86269
				c-0.4699707,0.2699585-0.9400024,0.4899902-1.3899536,0.6199951c-1.1300049,0.3499756-2.1500244,0.2699585-2.9500122-0.1900024
				l-7.2399907-4.210022c-1-0.5800171-1.6400146-1.75-1.7000122-3.4500122
				c-0.1300048-3.7699585,2.539978-8.4899921,5.8499756-10.3999653c0.5200195-0.2999878,0.9899902-0.4800415,1.5300298-0.710022
				c0.592144-5.0696754,4.7684116-9.4910736,7.7600088-9.8900146c0-0.1006927,0-0.1106415,0-0.0099487
				c1.7426643-7.7491999,9.4346581-14.828846,14.0700073-12.1200552l5.4699707,3.1800537
				c1.5499878-0.6100464,2.9299927-0.5599976,3.9799805,0.0499878l7.1600342,4.1699829
				C48.2207413,12.6626768,49.0607681,14.3826475,49.0007706,16.8426685z"/>
		</g>
		<g>
			<path class="st35" d="M39.6629257,7.7330728l7.2418442,4.2085128c-1.3102722-0.7614622-3.1266022-0.6530342-5.130558,0.5039501
				c-0.6261292,0.361496-1.2452202,0.8351736-1.8779106,1.2701941l-7.2418671-4.208498
				c0.6327019-0.4350262,1.2517929-0.9087029,1.8779221-1.2701998C36.5363121,7.0800481,38.3526421,6.9716201,39.6629257,7.7330728z
				"/>
		</g>
		<g>
			<path class="st16" d="M37.4413185,8.7037344c-1.5290756-0.8963208-3.6591721-0.769783-6.010807,0.5905313
				c-3.7962666,2.1934309-7.0125561,6.9599056-8.0460339,11.5470657l-7.2443981-4.213768
				c1.0334148-4.587224,4.2497044-9.3536348,8.0565243-11.5365105c2.3410797-1.3603787,4.4712429-1.4869168,6.010807-0.5905318
				L37.4413185,8.7037344z"/>
		</g>
		<g>
			<path class="st35" d="M15.6264086,30.7346325L8.3845501,26.526144c0.401413-3.5174141,2.8516865-7.4660473,5.8073702-9.1725121
				c0.6867666-0.3965034,1.3469667-0.6459217,1.9469252-0.7210865l7.2418518,4.2085114
				c-0.5999565,0.0751572-1.2601566,0.3245754-1.9469223,0.7210789
				C18.4780903,23.2686005,16.0278168,27.2172318,15.6264086,30.7346325z"/>
		</g>
		<g>
			<path class="st16" d="M9.9402037,45.2924614l-7.2418613-4.2084923c-0.9930254-0.5770988-1.6327493-1.7555504-1.6937437-3.4545326
				c-0.138817-3.7634201,2.5385737-8.4863663,5.8510876-10.3988457c0.5184193-0.2993107,0.9899807-0.4785748,1.5288682-0.7044621
				l7.2418509,4.2085056c-0.5388842,0.2258854-1.0104456,0.4051495-1.5288649,0.7044601
				c-3.3125134,1.9124794-5.9899044,6.6354256-5.8510866,10.3988457C8.3074474,43.5369225,8.9471712,44.715374,9.9402037,45.2924614
				z"/>
		</g>
		<g>
			<path class="st6" d="M31.4337978,9.2948418c3.4135151-1.9707928,6.3555965-1.3446765,7.6981487,1.2278318
				c0.4475174,0.8575201,0.7135696,1.928277,0.7643547,3.1930561c0.6326904-0.4350204,1.2517815-0.9086981,1.8779106-1.2701941
				c4.0598679-2.3439674,7.3496552-0.3842554,7.2216072,4.3934174c-0.0670204,2.5261745-1.117878,5.3258953-2.716156,7.6977367
				c-1.2759552,1.8990498-2.8898506,3.520504-4.6202126,4.5195293L14.2772427,44.8653412
				c-0.4712982,0.2721062-0.9359922,0.4861641-1.3874826,0.6150818c-2.5469055,0.7885399-4.5334692-0.5829811-4.6433067-3.6424828
				c-0.1388178-3.7634201,2.5385733-8.4863663,5.8510866-10.3988457c0.5184193-0.2993107,0.9899807-0.4785748,1.5288687-0.7044621
				c0.4014082-3.5174007,2.8516817-7.466032,5.8073664-9.1724968c0.6867657-0.3965034,1.3469658-0.6459217,1.9469242-0.7210865
				C24.4197121,16.2503567,27.6365166,11.4872026,31.4337978,9.2948418z"/>
		</g>
		<g>
			<path class="st4" d="M41.9079895,23.3209038l0.0000114,6.0580196c-0.0036201,1.277689-0.8432503,2.5534496-2.5205727,3.5282001
				c-3.3763199,1.9621048-8.8666801,1.9605751-12.2651062-0.0015068c-1.7091045-0.9867535-2.5632095-2.2824821-2.5595417-3.5763664
				l-0.0000134-6.0580139c-0.0036659,1.2938824,0.8504391,2.5896111,2.5595436,3.5763626
				c3.3984241,1.9620819,8.8887863,1.9636116,12.2651062,0.0015087
				C41.0647392,25.8743553,41.9043694,24.5985947,41.9079895,23.3209038z"/>
			<g>
				<path class="st2" d="M43.0007706,27.0226612c-0.0100098,0.5-0.1199951,1-0.3400269,1.4799805
					c0.2200317,0.4900513,0.3400269,0.9900513,0.3400269,1.4900513v3.7500019c-0.0100098,0.5-0.1199951,1-0.3400269,1.4799805
					c0.2300415,0.4899902,0.3400269,0.9899902,0.3400269,1.4799805v3.7600098
					c-0.0100098,1.4299927-0.9500122,2.8699951-2.8400269,3.9700317c-3.7999878,2.2099609-9.9799805,2.1999512-13.8099976,0
					c-1.9199829-1.1200562-2.8800049-2.5700073-2.8800049-4.0300293v-3.7399902c0-0.5,0.1199951-1,0.3400269-1.4799805
					c-0.2299805-0.4900513-0.3400269-1-0.3400269-1.5v-3.7400532c0-0.5,0.1199951-1,0.3400269-1.4799805
					c-0.2299805-0.4899902-0.3400269-0.9899902-0.3400269-1.4899902v-3.75c0-1.4400024,0.9500122-2.8699951,2.8400269-3.9700317
					c3.7999878-2.2099609,9.9799805-2.2099609,13.7999878-0.0099487c1.9299927,1.1099854,2.8900146,2.5699463,2.8900146,4.0299683
					V27.0226612z"/>
			</g>
			<g>
				<path class="st2" d="M42.9963913,36.7059631l0.0000114,3.7528725c-0.0040779,1.4380341-0.9490776,2.8739014-2.8368988,3.9709854
					c-3.800045,2.2083435-9.9794388,2.2066231-13.8043613-0.0016975c-1.9235935-1.1105881-2.8848877-2.5689316-2.8807602-4.0251961
					l-0.0000153-3.752861c-0.0041275,1.4562607,0.9571686,2.9146004,2.8807621,4.0251884
					c3.8249226,2.2083206,10.0043182,2.210041,13.8043594,0.0016975
					C42.0473099,39.5798721,42.9923134,38.1440048,42.9963913,36.7059631z"/>
				<path class="st9" d="M40.1144714,32.6791992c3.8249245,2.2083206,3.8450813,5.7893982,0.0450172,7.9977531
					c-3.8000412,2.2083435-9.9794369,2.2066231-13.8043594-0.0016975c-3.8218708-2.2065582-3.8450394-5.7858887-0.0449963-7.9942322
					C30.1101971,30.4726677,36.2926025,30.4726391,40.1144714,32.6791992z"/>
			</g>
			<g>
				<path class="st4" d="M41.9972801,29.91959l0.0000114,6.0580177c-0.0036201,1.2776909-0.8432503,2.5534515-2.5205727,3.5282021
					c-3.3763199,1.9621048-8.8666801,1.9605751-12.2651062-0.0015068c-1.7091045-0.9867516-2.5632095-2.2824821-2.5595417-3.5763664
					l-0.0000134-6.0580139c-0.0036678,1.2938824,0.8504391,2.5896111,2.5595417,3.5763626
					c3.3984261,1.9620819,8.8887882,1.9636116,12.2651081,0.0015106C41.1540298,32.4730415,41.99366,31.1972809,41.9972801,29.91959
					z"/>
				<path class="st2" d="M42.9963913,29.9897442l0.0000114,3.7528706c-0.0040779,1.4380379-0.9490776,2.8739014-2.8368988,3.9709854
					c-3.800045,2.2083435-9.9794388,2.2066231-13.8043613-0.0016975c-1.9235935-1.1105881-2.8848877-2.5689278-2.8807602-4.0251961
					l-0.0000153-3.752861c-0.0041275,1.4562607,0.9571686,2.9146004,2.8807621,4.0251884
					c3.8249226,2.2083206,10.0043182,2.210041,13.8043594,0.0016975
					C42.0473099,32.8636513,42.9923134,31.427784,42.9963913,29.9897442z"/>
				<path class="st9" d="M40.1144714,25.9629784c3.8249245,2.2083206,3.8450813,5.7893982,0.0450172,7.9977531
					c-3.8000412,2.2083435-9.9794369,2.2066231-13.8043594-0.0016975c-3.8218708-2.2065582-3.8450394-5.7858868-0.0449963-7.9942303
					C30.1101971,23.7564468,36.2926025,23.7564201,40.1144714,25.9629784z"/>
			</g>
			<g>
				<path class="st2" d="M42.9963913,23.2735252l0.0000114,3.7528706c-0.0040779,1.438036-0.9490776,2.8739033-2.8368988,3.9709854
					c-3.800045,2.2083416-9.9794388,2.2066212-13.8043613-0.0016994c-1.9235935-1.1105862-2.8848877-2.5689278-2.8807602-4.0251942
					l-0.0000153-3.7528629c-0.0041275,1.4562607,0.9571686,2.9146023,2.8807621,4.0251904
					c3.8249226,2.2083206,10.0043182,2.210041,13.8043594,0.0016975
					C42.0473099,26.1474304,42.9923134,24.711565,42.9963913,23.2735252z"/>
				<path class="st9" d="M40.1144714,19.2467575c3.8249245,2.2083206,3.8450813,5.7894001,0.0450172,7.9977551
					c-3.8000412,2.2083435-9.9794369,2.2066231-13.8043594-0.0016975c-3.8218708-2.2065582-3.8450394-5.7858887-0.0449963-7.9942322
					C30.1101971,17.0402279,36.2926025,17.0401993,40.1144714,19.2467575z"/>
			</g>
		</g>
	</g>
	<path class="st5" d="M20.233675,25.3464317c-1.3669014,0-2.4728661,1.1059647-2.4728661,2.472868
		c0-0.6822605-0.2776814-1.3022633-0.7229366-1.7499161c-0.4476662-0.4452686-1.0676699-0.7229519-1.7499151-0.7229519
		c0.6822453,0,1.302249-0.2776814,1.7499151-0.7229519c0.4452553-0.4476509,0.7229366-1.0676537,0.7229366-1.7499008
		c0,0.6822472,0.2776966,1.3022499,0.7229519,1.7499008C18.9314117,25.0687504,19.5514297,25.3464317,20.233675,25.3464317z"/>
</g>
</svg>
