<?xml version="1.0" encoding="utf-8"?>
<!-- Generator: Adobe Illustrator 22.0.0, SVG Export Plug-In . SVG Version: 6.00 Build 0)  -->
<svg version="1.1" id="Layer_1" xmlns="http://www.w3.org/2000/svg" xmlns:xlink="http://www.w3.org/1999/xlink" x="0px" y="0px"
	 viewBox="0 0 50 50" style="enable-background:new 0 0 50 50;" xml:space="preserve">
<style type="text/css">
	.st0{fill:#9EA9C9;}
	.st1{fill:#B0B8CF;}
	.st2{fill:#C9CEE2;}
	.st3{fill:#E3E7F0;}
	.st4{fill:#F45170;}
	.st5{fill:#FFFFFF;}
	.st6{fill:#57B3FE;}
	.st7{fill:#E8E6FB;}
	.st8{fill:#DEDFFB;}
	.st9{fill:#F3F1FC;}
	.st10{fill:#1D2943;}
	.st11{fill:#4C5C75;}
	.st12{fill:#F9A83D;}
	.st13{fill:#FFD06C;}
	.st14{fill:#FFDE9B;}
	.st15{fill:#FEBC1F;}
	.st16{fill:#5094FF;}
	.st17{fill:#F8CA2F;}
	.st18{fill:#E93565;}
	.st19{fill:#DF3260;}
	.st20{opacity:0.8;fill:#F45170;}
	.st21{opacity:0.5;}
	.st22{enable-background:new    ;}
	.st23{fill:#DBA660;}
	.st24{fill:#111D33;}
	.st25{fill:none;}
	.st26{fill:#F8F9FE;}
	.st27{fill:#E9E7FC;}
	.st28{fill:#EDEEF2;}
	.st29{fill:#DEDFFA;}
	.st30{fill:#0F1522;}
	.st31{fill:#78E75A;}
	.st32{fill:#72D561;}
	.st33{fill:#986FF9;}
	.st34{fill:#B28AFD;}
	.st35{fill:#497BFE;}
	.st36{fill:#7E5AF2;}
	.st37{fill:#3B3E3F;}
	.st38{fill:#FEFEFE;}
	.st39{fill:#BF7D5A;}
	.st40{fill:#F4D6D4;}
	.st41{fill:#F5C9C6;}
	.st42{fill:#5EC363;}
	.st43{fill:#FFD475;}
	.st44{fill:#FFDD95;}
	.st45{fill:#FFB961;}
	.st46{fill:#DADCF7;}
	.st47{fill:#AA6256;}
	.st48{fill:#8A4852;}
	.st49{fill:#CED1F2;}
	.st50{fill:#3979EA;}
	.st51{fill:#29313F;}
	.st52{fill:#3B475A;}
	.st53{fill:#414F65;}
	.st54{opacity:0.2;fill:#57B3FE;}
	.st55{fill:#50B069;}
	.st56{fill:#C8C7D9;}
	.st57{fill:#822B3C;}
	.st58{fill:#D24660;}
	.st59{fill:#7D7B87;}
	.st60{fill:#B4B3C3;}
	.st61{fill:#BD3F57;}
	.st62{fill:#CFCEEA;}
	.st63{opacity:0.7;fill:#57B3FE;}
</style>
<g id="_x32_7">
	<g>
		<path class="st10" d="M48.9972382,30.9304199c0,0.3699951-0.2400513,0.75-0.75,1.039978L30.5872021,42.1704102
			c-0.9899902,0.5700073-2.5899658,0.5700073-3.5700073,0L1.7472367,27.4504395
			c-0.4900513-0.2800293-0.7400513-0.6500244-0.7400513-1.0200195v-4.039978c0,0.0048218,0.0025635,0.0101318,0.0026855,0.0150146
			c-0.0108032-0.3840942,0.2282104-0.7741089,0.7373657-1.0650635l17.6699829-10.1999512
			c0.9899902-0.5700073,2.5899658-0.5800171,3.5700073,0l25.2699604,14.7199707
			c0.4900513,0.2800293,0.7300415,0.6599731,0.7300415,1.0300293L48.9972382,30.9304199z"/>
		<path class="st11" d="M49,30.9281235c0,0.3704643-0.2441483,0.7493572-0.7493057,1.0440216l-17.663702,10.1980705
			c-0.9935074,0.572525-2.5932522,0.572525-3.5699043,0L1.7444053,27.4534855
			c-0.4883-0.2862892-0.7325014-0.6567535-0.7325014-1.0271664l-0.0083765-4.0387783
			c0,0.3704643,0.24415,0.7409286,0.7325014,1.0271664l25.264204,14.7167816c0.9851303,0.572525,2.5848236,0.572525,3.5699043,0
			l17.6721306-10.198122c0.496727-0.2946663,0.7493553-0.6735573,0.7493553-1.0440216L49,30.9281235z"/>
		<path class="st10" d="M1.7472726,21.3437252c-0.9891192,0.5710678-0.9996673,1.4928513-0.0116345,2.0670338l25.2674217,14.7211418
			c0.9826908,0.5710754,2.5794258,0.5710831,3.5685444,0.0000153l17.6695728-10.2015324
			c0.9944763-0.5741615,0.9996834-1.4990501,0.0169945-2.0701275L22.9907494,11.1391144
			c-0.9880333-0.5741816-2.5794277-0.571084-3.5739059,0.0030775L1.7472726,21.3437252z"/>
		<path class="st5" d="M3.6708255,22.2499237c-0.32792,0.1893253-0.3296852,0.4996872-0.0038962,0.6890144l23.1899052,13.5138206
			c0.3257904,0.1893311,0.8616028,0.1893234,1.1895218-0.0000038l17.6695709-10.2015324
			c0.3332787-0.1924171,0.3350449-0.5027809,0.0092545-0.6921082L22.5352764,12.0452929
			c-0.3257885-0.1893282-0.8616009-0.1893206-1.1948795,0.0030985L3.6708255,22.2499237z"/>
		<path class="st11" d="M37.2387848,31.8526535c-0.4300346,0.2482796-0.437664,0.6486549-0.0050659,0.9000511
			c0.4219131,0.2451897,1.1238441,0.2482986,1.553875,0.0000191c0.424675-0.2451859,0.4216042-0.6517792-0.000309-0.8969688
			C38.3546829,31.6043568,37.6634598,31.6074677,37.2387848,31.8526535z"/>
		<path class="st11" d="M9.7435131,17.4959888c-0.1343756,0.0775814-0.135128,0.207943-0.0016069,0.2855358
			c0.1335211,0.0775948,0.3585768,0.0775852,0.4929523,0.0000038l3.1071301-1.7939024
			c0.1343756-0.0775824,0.1297321-0.2048273-0.0037889-0.2824221c-0.1335211-0.0775938-0.3531809-0.080699-0.4875565-0.0031166
			L9.7435131,17.4959888z"/>
		<g>
			<path class="st3" d="M3.3806169,25.532402c-0.4818776-0.2782135-0.8766551-0.0578346-0.878238,0.5004959
				c-0.0015697,0.5536995,0.3906698,1.2284775,0.8725476,1.506691c0.4818776,0.2782116,0.8766823,0.0578327,0.878252-0.4958668
				C4.2547612,26.4853935,3.8624947,25.8106136,3.3806169,25.532402z"/>
		</g>
		<g>
			<path class="st3" d="M5.9909759,27.0587063c-0.4818778-0.2782116-0.8766551-0.0578327-0.8782382,0.5004978
				c-0.0015697,0.5536976,0.3906698,1.2284775,0.8725476,1.5066891c0.4818778,0.2782135,0.8766823,0.0578327,0.878252-0.4958649
				C6.8651199,28.0116978,6.4728532,27.3369179,5.9909759,27.0587063z"/>
		</g>
		<g>
			<g>
				<g>
					<polygon class="st35" points="30.1872387,10.7504272 30.1672192,20.0203857 24.4172192,23.3604126 18.6172314,20.0203857 
						18.6471996,10.7404175 24.3971996,7.4003901 					"/>
				</g>
			</g>
			<g class="st22">
				<g>
					<polygon class="st35" points="30.1918507,10.7471533 30.1655617,20.0199623 24.4152737,23.3616638 24.4415627,14.0888557 					
						"/>
				</g>
				<g>
					<polygon class="st16" points="24.4415627,14.0888557 24.4152737,23.3616638 18.6218166,20.0168095 18.6481056,10.7440023 					
						"/>
				</g>
				<g>
					<polygon class="st6" points="30.1918507,10.7471533 24.4415627,14.0888557 18.6481056,10.7440023 24.3983936,7.4022999 					
						"/>
				</g>
			</g>
			<g>
				<g>
					<polygon class="st12" points="39.337204,16.0303955 39.3072357,25.300415 33.5572357,28.6404419 27.7772045,25.300415 
						27.797224,16.0303955 33.547226,12.6904297 					"/>
				</g>
			</g>
			<g class="st22">
				<g>
					<polygon class="st12" points="39.337429,16.0273552 39.3111382,25.3001633 33.5608521,28.6418648 33.5871391,19.3690567 					
						"/>
				</g>
				<g>
					<polygon class="st15" points="33.5871391,19.3690567 33.5608521,28.6418648 27.7729626,25.3002262 27.7992516,16.02742 					
						"/>
				</g>
				<g>
					<polygon class="st13" points="39.337429,16.0273552 33.5871391,19.3690567 27.7992516,16.02742 33.5495415,12.6857166 					"/>
				</g>
			</g>
			<g>
				<g>
					<polygon class="st18" points="22.2272167,15.3804321 22.1971874,24.6503906 16.4471874,27.9904175 10.6572094,24.6503906 
						10.6872387,15.3704224 16.4372387,12.0303955 					"/>
				</g>
			</g>
			<g>
				<g>
					<polygon class="st18" points="22.2272167,15.3804321 22.1971874,24.6503906 16.4471874,27.9904175 10.6572094,24.6503906 
						10.6872387,15.3704224 16.4372387,12.0303955 					"/>
				</g>
			</g>
			<g class="st22">
				<g>
					<polygon class="st19" points="22.226923,15.375864 22.200634,24.6486721 16.450346,27.9903736 16.476635,18.7175655 					"/>
				</g>
				<g>
					<polygon class="st18" points="16.476635,18.7175655 16.450346,27.9903736 10.6568899,24.6455193 10.6831779,15.3727121 					
						"/>
				</g>
				<g>
					<polygon class="st4" points="22.226923,15.375864 16.476635,18.7175655 10.6831779,15.3727121 16.433466,12.0310097 					"/>
				</g>
			</g>
			<g>
				<g>
					<polygon class="st32" points="31.3772411,20.6604004 31.3472118,29.9304199 25.5972118,33.2703857 19.8072338,29.9304199 
						19.8372021,20.6604004 25.5872021,17.3104248 					"/>
				</g>
			</g>
			<g class="st22">
				<g>
					<polygon class="st42" points="31.3724995,20.656065 31.3462105,29.9288731 25.5959225,33.2705765 25.6222115,23.9977684 					
						"/>
				</g>
				<g>
					<polygon class="st32" points="25.6222115,23.9977684 25.5959225,33.2705765 19.8080368,29.9289379 19.8343239,20.6561298 					
						"/>
				</g>
				<g>
					<polygon class="st31" points="31.3724995,20.656065 25.6222115,23.9977684 19.8343239,20.6561298 25.5846119,17.3144264 					
						"/>
				</g>
			</g>
		</g>
	</g>
	<g>
		<g>
			<polygon class="st10" points="40.8721542,33.4596825 40.5275803,35.5308952 38.1056747,36.9291801 37.7459564,35.264595 			"/>
		</g>
		<g>
			<g>
				<g>
					<path class="st10" d="M31.6905441,38.8838158c0.3703117-0.2137985,0.6713409-0.0495682,0.6725273,0.3686142
						c0.0012054,0.4254913-0.2978897,0.9435539-0.6682014,1.1573524c-0.3703117,0.2138023-0.6649837,0.0385475-0.6661911-0.3869438
						C31.0274944,39.60466,31.3202324,39.0976181,31.6905441,38.8838158z"/>
				</g>
				<g>
					<path class="st10" d="M34.0847931,37.5014992c0.3703117-0.2138023,0.6713371-0.0495682,0.6725235,0.3686104
						c0.0012054,0.4254913-0.2978859,0.9435539-0.6681976,1.1573563c-0.3703156,0.2137985-0.6649857,0.0385475-0.6661949-0.3869438
						C33.4217415,38.2223396,33.7144775,37.7152977,34.0847931,37.5014992z"/>
				</g>
				<g>
					<path class="st10" d="M36.4790382,36.1191788c0.3703117-0.2137985,0.6713409-0.0495682,0.6725273,0.3686104
						c0.0012054,0.4254913-0.2978897,0.9435577-0.6682014,1.1573563s-0.6649857,0.0385475-0.6661911-0.3869438
						C35.8159866,36.840023,36.1087265,36.3329773,36.4790382,36.1191788z"/>
				</g>
			</g>
			<g>
				<g>
					<path class="st10" d="M42.2013283,32.8078384c0.3703117-0.2138023,0.6713409-0.0495682,0.6725273,0.3686104
						c0.0012054,0.4254913-0.2978897,0.9435539-0.6682014,1.1573563c-0.3703117,0.2137985-0.6649857,0.0385475-0.6661911-0.3869476
						C41.5382767,33.5286789,41.8310165,33.021637,42.2013283,32.8078384z"/>
				</g>
				<g>
					<path class="st10" d="M44.5955772,31.425518c0.3703117-0.2138004,0.6713371-0.0495682,0.6725235,0.3686104
						c0.0012054,0.4254913-0.2978859,0.9435539-0.6681976,1.1573563c-0.3703156,0.2137985-0.6649857,0.0385475-0.6661911-0.3869438
						C43.9325256,32.1463623,44.2252617,31.6393185,44.5955772,31.425518z"/>
				</g>
				<g>
					<path class="st10" d="M46.9898224,30.0431976c0.3703117-0.2137985,0.6713409-0.0495663,0.6725273,0.3686123
						c0.0012054,0.4254913-0.2978897,0.9435558-0.6682014,1.1573544c-0.3703117,0.2138004-0.6649857,0.0385494-0.6661911-0.3869438
						C46.3267708,30.7640419,46.6195107,30.2569981,46.9898224,30.0431976z"/>
				</g>
			</g>
		</g>
	</g>
</g>
</svg>
