<?xml version="1.0" encoding="utf-8"?>
<!-- Generator: Adobe Illustrator 22.0.0, SVG Export Plug-In . SVG Version: 6.00 Build 0)  -->
<svg version="1.1" id="Layer_1" xmlns="http://www.w3.org/2000/svg" xmlns:xlink="http://www.w3.org/1999/xlink" x="0px" y="0px"
	 viewBox="0 0 50 50" style="enable-background:new 0 0 50 50;" xml:space="preserve">
<style type="text/css">
	.st0{fill:#9EA9C9;}
	.st1{fill:#B0B8CF;}
	.st2{fill:#C9CEE2;}
	.st3{fill:#E3E7F0;}
	.st4{fill:#F45170;}
	.st5{fill:#FFFFFF;}
	.st6{fill:#57B3FE;}
	.st7{fill:#E8E6FB;}
	.st8{fill:#DEDFFB;}
	.st9{fill:#F3F1FC;}
	.st10{fill:#1D2943;}
	.st11{fill:#4C5C75;}
	.st12{fill:#F9A83D;}
	.st13{fill:#FFD06C;}
	.st14{fill:#FFDE9B;}
	.st15{fill:#FEBC1F;}
	.st16{fill:#5094FF;}
	.st17{fill:#F8CA2F;}
	.st18{fill:#E93565;}
	.st19{fill:#DF3260;}
	.st20{opacity:0.8;fill:#F45170;}
	.st21{opacity:0.5;}
	.st22{enable-background:new    ;}
	.st23{fill:#DBA660;}
	.st24{fill:#111D33;}
	.st25{fill:none;}
	.st26{fill:#F8F9FE;}
	.st27{fill:#E9E7FC;}
	.st28{fill:#EDEEF2;}
	.st29{fill:#DEDFFA;}
	.st30{fill:#0F1522;}
	.st31{fill:#78E75A;}
	.st32{fill:#72D561;}
	.st33{fill:#986FF9;}
	.st34{fill:#B28AFD;}
	.st35{fill:#497BFE;}
	.st36{fill:#7E5AF2;}
	.st37{fill:#3B3E3F;}
	.st38{fill:#FEFEFE;}
	.st39{fill:#BF7D5A;}
	.st40{fill:#F4D6D4;}
	.st41{fill:#F5C9C6;}
	.st42{fill:#5EC363;}
	.st43{fill:#FFD475;}
	.st44{fill:#FFDD95;}
	.st45{fill:#FFB961;}
	.st46{fill:#DADCF7;}
	.st47{fill:#AA6256;}
	.st48{fill:#8A4852;}
	.st49{fill:#CED1F2;}
	.st50{fill:#3979EA;}
	.st51{fill:#29313F;}
	.st52{fill:#3B475A;}
	.st53{fill:#414F65;}
	.st54{opacity:0.2;fill:#57B3FE;}
	.st55{fill:#50B069;}
	.st56{fill:#C8C7D9;}
	.st57{fill:#822B3C;}
	.st58{fill:#D24660;}
	.st59{fill:#7D7B87;}
	.st60{fill:#B4B3C3;}
	.st61{fill:#BD3F57;}
	.st62{fill:#CFCEEA;}
	.st63{opacity:0.7;fill:#57B3FE;}
</style>
<g id="_x33_4_1_">
	<g id="_x31_6">
		<polygon class="st24" points="9.6772575,36.0618515 9.6794519,36.8359032 12.0438881,35.4707947 12.0416937,34.6967468 		"/>
		<polygon class="st24" points="12.0421152,34.6994858 9.6821299,36.0594711 9.6821299,36.8394394 5.7021499,34.5294418 
			5.7021499,33.7494736 8.0621347,32.3894882 		"/>
		<polygon class="st24" points="5.7019,33.7516289 5.7040944,34.5256767 9.6794519,36.8359032 9.6772575,36.0618515 		"/>
		<polygon class="st10" points="5.7019,33.7516289 9.6772575,36.0618515 12.0416937,34.6967468 8.0663357,32.3865204 		"/>
		<polygon class="st24" points="27.5079517,25.7676888 27.5101452,26.5417385 29.8745823,25.17663 29.8723869,24.4025822 		"/>
		<polygon class="st24" points="29.8721333,24.399435 27.5121479,25.7694302 27.5121479,26.5394497 23.5321674,24.2294521 
			23.5321674,23.4594326 25.8921528,22.0894375 		"/>
		<polygon class="st24" points="23.5325928,23.4574642 23.5347881,24.2315121 27.5101452,26.5417385 27.5079517,25.7676888 		"/>
		<polygon class="st10" points="23.5325928,23.4574642 27.5079517,25.7676888 29.8723869,24.4025822 25.8970299,22.0923557 		"/>
		<path class="st2" d="M47.3378296,34.4669342c0,0.1508446-0.0942726,0.2923088-0.2828712,0.396019L22.8496609,48.8373566
			c-0.3677597,0.2168579-0.9712563,0.2168579-1.3295212,0l-15.407692-8.9485054
			c-0.1791615-0.1037674-0.2734327-0.2451744-0.2734327-0.3772011l-0.0025644-2.4106712
			c0,0.1320267,0.0942712,0.2734909,0.2734327,0.3772011l15.407691,8.9485054c0.3677044,0.2168579,0.9617615,0.2168579,1.3295231,0
			L47.0523949,32.452282c0.1885986-0.1037102,0.2829285-0.254612,0.2829285-0.396019L47.3378296,34.4669342z"/>
		<path class="st3" d="M6.1184368,36.7076912c-0.3672395,0.2120247-0.3751483,0.5561523-0.004323,0.7716522l15.4016638,8.9504662
			c0.3648624,0.2120361,0.9649487,0.2120438,1.3321877,0.0000191l24.2078743-13.9764252
			c0.3732605-0.2154999,0.3752098-0.5630932,0.0103455-0.7751274l-15.4016628-8.95047
			c-0.3708248-0.2154999-0.9649487-0.2120438-1.3382092,0.0034599L6.1184368,36.7076912z"/>
		<path class="st2" d="M23.6605015,38.4286385c-0.0846405,0.0488663-0.0920601,0.1262627-0.001009,0.1791763l4.6482372,2.7403603
			c0.0911007,0.0529404,0.2316799,0.0529289,0.3163204,0.0040588l9.1068764-5.2578545
			c0.0916939-0.0529404,0.0921783-0.1343689,0.0010757-0.1873131l-4.6482353-2.7403564
			c-0.091053-0.0529175-0.2246933-0.0488701-0.316391,0.0040703L23.6605015,38.4286385z"/>
		<path class="st11" d="M18.8042431,31.3652306c-0.0916843,0.0529346-0.0851231,0.1302967,0.0059776,0.1832371l1.0160751,0.5904789
			c0.0911007,0.0529442,0.2176495,0.0529366,0.3093338,0.0000038l1.1003208-0.635273
			c0.0916977-0.0529404,0.099165-0.1303082,0.0080643-0.1832504l-1.0160751-0.5904789
			c-0.0911007-0.0529423-0.2316799-0.0529289-0.3233757,0.0000134L18.8042431,31.3652306z"/>
		<path class="st11" d="M31.2062378,28.7915993c-0.0846405,0.0488663-0.0850754,0.1303215-0.0010071,0.1791763l1.0231094,0.5945663
			c0.0840645,0.0488548,0.2246933,0.0488701,0.3093338,0.0000019l1.1073647-0.6393375
			c0.0846405-0.0488663,0.0850754-0.1303234,0.0010071-0.1791763l-1.0231094-0.5945663
			c-0.0840683-0.0488548-0.2246933-0.0488701-0.3093338-0.0000019L31.2062378,28.7915993z"/>
		<path class="st11" d="M35.2982788,28.7264633c-0.0846405,0.0488663-0.0920601,0.1262627-0.0010071,0.1791763l1.0161247,0.5905075
			c0.0910988,0.0529404,0.231678,0.0529289,0.3163185,0.0040607l1.1073647-0.6393375
			c0.0846405-0.0488663,0.0851326-0.1303024-0.0059662-0.1832447l-1.0161247-0.5905056
			c-0.091053-0.0529137-0.2247047-0.0488625-0.3093452,0.0000057L35.2982788,28.7264633z"/>
		<path class="st11" d="M33.1893463,29.9440556c-0.0846405,0.0488682-0.0920601,0.1262627-0.0010071,0.1791782l1.0161247,0.5905056
			c0.0910988,0.0529423,0.231678,0.0529289,0.3163185,0.0040607l1.1073647-0.6393356
			c0.0846405-0.0488682,0.0851212-0.1302967-0.0059776-0.183239l-1.0161247-0.5905056
			c-0.091053-0.0529137-0.2246933-0.0488682-0.3093338-0.0000019L33.1893463,29.9440556z"/>
		<path class="st11" d="M29.3559856,25.2731781c-0.0846405,0.0488682-0.0851231,0.1302967,0.0059776,0.183239l1.016077,0.5904789
			c0.0911007,0.0529404,0.2246914,0.0488682,0.3093338,0l1.1073627-0.6393356
			c0.0846424-0.0488682,0.0921211-0.1262436,0.0010204-0.1791859l-1.0160751-0.5904789
			c-0.0911007-0.0529404-0.2316914-0.0529213-0.3163319-0.0040531L29.3559856,25.2731781z"/>
		<path class="st11" d="M27.2470531,26.4907722c-0.0846405,0.0488663-0.0851231,0.1302948,0.0059776,0.1832371l1.016077,0.5904789
			c0.0910988,0.0529423,0.2246914,0.0488682,0.3093338,0.0000019l1.1073627-0.6393375
			c0.0846405-0.0488682,0.0921097-0.126236,0.001009-0.1791782l-1.0160751-0.5904789
			c-0.0911007-0.0529404-0.2316799-0.052927-0.3163204-0.0040607L27.2470531,26.4907722z"/>
		<path class="st11" d="M29.2301636,27.6432285c-0.0846424,0.0488682-0.0921097,0.126236-0.001009,0.1791782l1.0230618,0.5945377
			c0.0841141,0.0488834,0.2246933,0.0488701,0.3093338,0.0000019l1.9537621-1.1280041l1.8219604,1.0588074
			c0.0840645,0.0488548,0.2246933,0.0488682,0.3093338,0.0000019l1.1073647-0.6393375
			c0.0846405-0.0488682,0.0850868-0.130331,0.0010185-0.179184L32.755806,25.786293
			c-0.0911026-0.0529404-0.2247047-0.0488605-0.3093452,0.0000057L29.2301636,27.6432285z"/>
		<path class="st11" d="M25.1381092,27.7083721c-0.0846405,0.0488663-0.0851231,0.1302948,0.0059776,0.1832371l1.0160751,0.5904789
			c0.0911007,0.0529423,0.2246933,0.0488682,0.3093338,0.0000019l1.1003208-0.6352711
			c0.0916958-0.0529404,0.099165-0.1303101,0.0080643-0.1832504l-1.016077-0.5904789
			c-0.0910988-0.0529423-0.231678-0.0529289-0.3233738,0.0000114L25.1381092,27.7083721z"/>
		<path class="st11" d="M27.1212177,28.8608284c-0.0846405,0.0488682-0.0851231,0.1302967-0.001009,0.1791782l1.0230618,0.5945377
			c0.084116,0.0488834,0.2246933,0.0488701,0.3093338,0.0000019l1.1003208-0.6352711
			c0.0916977-0.0529404,0.0921783-0.1343689,0.0080643-0.1832504l-1.0230618-0.5945377
			c-0.0841141-0.0488834-0.2246933-0.0488701-0.3163891,0.0040722L27.1212177,28.8608284z"/>
		<path class="st11" d="M23.0221214,28.9300385c-0.0846424,0.0488682-0.0851231,0.1302948,0.0059776,0.1832371l1.0160751,0.5904789
			c0.0911007,0.0529423,0.2246933,0.0488682,0.3093338,0.0000019l1.1073761-0.6393452
			c0.0846291-0.0488605,0.0921078-0.126236,0.001009-0.1791763l-1.016077-0.5904789
			c-0.0911007-0.0529423-0.2316895-0.0529213-0.3163185-0.0040607L23.0221214,28.9300385z"/>
		<path class="st11" d="M25.0052299,30.0824947c-0.0846405,0.0488682-0.0851231,0.1302967-0.001009,0.1791782l1.0230618,0.5945377
			c0.0841141,0.0488834,0.2246933,0.0488701,0.3093338,0.0000019l1.1073761-0.6393433
			c0.0846291-0.0488605,0.0851231-0.1302967,0.001009-0.1791782l-1.0230618-0.5945377
			c-0.084116-0.0488834-0.2247047-0.0488625-0.3093338-0.0000019L25.0052299,30.0824947z"/>
		<path class="st11" d="M20.9131889,30.1476307c-0.0846424,0.0488682-0.0851231,0.1302967,0.0059757,0.1832371l1.016077,0.5904789
			c0.0911007,0.0529423,0.2246933,0.0488701,0.3093338,0.0000019l1.1073627-0.6393375
			c0.0846424-0.0488663,0.0921097-0.126236,0.001009-0.1791763l-1.0160751-0.5904789
			c-0.0911007-0.0529423-0.2316799-0.0529289-0.3163204-0.0040607L20.9131889,30.1476307z"/>
		<path class="st11" d="M26.9813061,31.2308655c-0.0846424,0.0488663-0.0850773,0.1303234-0.001009,0.1791763l1.0231094,0.5945663
			c0.0840664,0.0488548,0.2246933,0.0488701,0.3093338,0l1.1073761-0.6393414
			c0.0846291-0.0488605,0.0850754-0.1303234,0.0010071-0.1791782l-1.0231094-0.5945663
			c-0.0840664-0.0488548-0.2247028-0.0488625-0.3093319-0.0000019L26.9813061,31.2308655z"/>
		<path class="st11" d="M22.8962975,31.3000889c-0.0846405,0.0488663-0.0851231,0.1302948-0.001009,0.1791763l1.0230618,0.5945377
			c0.0841141,0.0488815,0.2246933,0.0488701,0.3093338,0.0000038l1.1073647-0.6393375
			c0.0846405-0.0488682,0.0851231-0.1302967,0.0010071-0.1791782l-1.0230618-0.5945377
			c-0.0841141-0.0488834-0.2246914-0.0488701-0.3093338-0.0000019L22.8962975,31.3000889z"/>
		<path class="st11" d="M24.8723717,32.4484596c-0.0846405,0.0488663-0.0850754,0.1303215-0.0010071,0.1791763l1.0231094,0.5945663
			c0.0840664,0.0488548,0.2246914,0.0488663,0.3093338,0l1.1073627-0.6393356
			c0.0846405-0.0488663,0.0850754-0.1303253,0.001009-0.1791801l-1.0231094-0.5945644
			c-0.0840664-0.0488548-0.2246933-0.0488682-0.3093338-0.0000019L24.8723717,32.4484596z"/>
		<path class="st11" d="M20.7873516,32.5176888c-0.0916843,0.0529327-0.0851231,0.1302948-0.0010071,0.1791763l1.0230618,0.5945396
			c0.0841141,0.0488815,0.2176495,0.0529366,0.3093338,0l1.1003189-0.6352692
			c0.0916977-0.0529404,0.0921803-0.1343689,0.0080643-0.1832504l-1.0230618-0.5945396
			c-0.0841141-0.0488815-0.2246933-0.0488682-0.3163891,0.0040722L20.7873516,32.5176888z"/>
		<path class="st11" d="M22.7634277,33.6660576c-0.0916843,0.0529327-0.0850754,0.1303215-0.001009,0.1791763l1.0231094,0.5945663
			c0.0840683,0.0488548,0.2176495,0.0529366,0.3093338,0.0000038l1.1003208-0.635273
			c0.0916958-0.0529404,0.0921307-0.1343956,0.0080643-0.1832504l-1.0231094-0.5945663
			c-0.0840664-0.0488548-0.2246933-0.0488663-0.3163891,0.0040741L22.7634277,33.6660576z"/>
		<path class="st11" d="M18.6713638,33.7393532c-0.0846405,0.0488701-0.0851231,0.1302986-0.001009,0.1791801l1.0230618,0.5945358
			c0.084116,0.0488853,0.2246933,0.0488701,0.3093338,0.0000038l1.1073761-0.6393433
			c0.0846291-0.0488625,0.0851231-0.1302986,0.001009-0.1791801l-1.0230618-0.5945358
			c-0.0841141-0.0488853-0.2247047-0.0488625-0.3093338-0.0000038L18.6713638,33.7393532z"/>
		<path class="st11" d="M20.64744,34.8877258c-0.0846405,0.0488663-0.0850754,0.1303215-0.001009,0.1791763l1.0231094,0.5945663
			c0.0840664,0.0488548,0.2246933,0.0488701,0.3093338,0l1.1073761-0.6393433
			c0.0846291-0.0488586,0.0850754-0.1303215,0.001009-0.1791763l-1.0231094-0.5945663
			c-0.0840683-0.0488548-0.2247047-0.0488625-0.3093338-0.0000038L20.64744,34.8877258z"/>
		<path class="st11" d="M12.4703894,35.0220833c-0.0916958,0.0529404-0.0921783,0.1343689-0.0010777,0.1873093l1.0160761,0.5904808
			c0.0910997,0.0529404,0.2246923,0.0488701,0.3163891-0.0040741l1.1003084-0.6352615
			c0.0916958-0.0529404,0.099164-0.1303101,0.0080633-0.1832504l-1.0160751-0.5904808
			c-0.0911007-0.0529404-0.231679-0.0529289-0.3233757,0.0000153L12.4703894,35.0220833z"/>
		<path class="st11" d="M10.3543892,36.2437553c-0.0846405,0.0488701-0.0851231,0.1302986,0.0059776,0.183239l1.0160761,0.590477
			c0.0910997,0.0529442,0.2246923,0.0488701,0.3093338,0.0000038l1.1073761-0.6393433
			c0.0846405-0.0488701,0.0921087-0.126236,0.001008-0.1791801l-1.0160761-0.590477
			c-0.0911007-0.0529442-0.231678-0.0529289-0.3163195-0.0040627L10.3543892,36.2437553z"/>
		<path class="st11" d="M20.521616,37.2577744c-0.0846405,0.0488663-0.092062,0.1262627-0.001009,0.1791763l1.0161228,0.5905075
			c0.0911007,0.0529404,0.2316799,0.0529289,0.3163204,0.0040627l11.6591072-6.73139
			c0.0916977-0.0529423,0.0921783-0.1343689,0.0010796-0.1873112l-1.0161247-0.5905075
			c-0.091053-0.0529137-0.2246933-0.0488682-0.316391,0.0040722L20.521616,37.2577744z"/>
		<path class="st11" d="M12.3374987,37.3962135c-0.0846415,0.0488663-0.0851231,0.1302948-0.001009,0.1791763l1.0230618,0.5945396
			c0.084115,0.0488815,0.2246933,0.0488701,0.3093338,0l3.2163095-1.8569336
			c0.0916958-0.0529442,0.0921783-0.1343689,0.0080624-0.1832542l-1.0230608-0.5945358
			c-0.084115-0.0488815-0.2246933-0.0488701-0.3163891,0.0040703L12.3374987,37.3962135z"/>
		<path class="st11" d="M14.3135738,38.5445824c-0.0846405,0.0488701-0.0850754,0.1303253-0.001008,0.1791801l1.0231085,0.5945663
			c0.0840673,0.048851,0.2246933,0.0488663,0.3093338,0l5.3322964-3.0786018
			c0.0846424-0.0488701,0.0850773-0.1303253,0.001009-0.1791801l-1.0231094-0.5945663
			c-0.0840664-0.0488548-0.2246914-0.0488663-0.3093338,0L14.3135738,38.5445824z"/>
		<path class="st11" d="M16.6882553,32.5868988c-0.0846405,0.0488663-0.0851231,0.1302948,0.0059776,0.1832352l1.0160751,0.5904808
			c0.0911007,0.0529404,0.2246933,0.0488663,0.3093338,0l1.1073761-0.6393433
			c0.0846291-0.0488625,0.0921097-0.126236,0.001009-0.1791763l-1.016077-0.5904808
			c-0.0910988-0.0529423-0.2316895-0.0529213-0.3163185-0.0040607L16.6882553,32.5868988z"/>
		<path class="st11" d="M16.5624313,34.9569473c-0.0846405,0.0488663-0.0851231,0.1302948-0.001009,0.1791763l1.0230618,0.5945396
			c0.084116,0.0488815,0.2246933,0.0488701,0.3093338,0l1.1073647-0.6393356
			c0.0846405-0.0488663,0.0851231-0.1302948,0.001009-0.1791763l-1.0230618-0.5945396
			c-0.084116-0.0488815-0.2246933-0.0488701-0.3093338,0L16.5624313,34.9569473z"/>
		<path class="st11" d="M14.5793228,33.8044891c-0.0846415,0.0488701-0.085124,0.1302986,0.0059767,0.183239l1.0160761,0.590477
			c0.0911007,0.0529442,0.2246923,0.0488701,0.3093338,0.0000038l1.1073647-0.6393394
			c0.0846405-0.0488663,0.0921078-0.126236,0.0010071-0.1791763l-1.0160751-0.590477
			c-0.0911007-0.0529442-0.231679-0.0529289-0.3163195-0.0040627L14.5793228,33.8044891z"/>
		<path class="st11" d="M18.4126835,38.4753685c-0.0916977,0.0529404-0.0991173,0.1303368-0.0080643,0.1832504l1.0161228,0.5905037
			c0.0911007,0.0529442,0.2316799,0.0529289,0.3233757-0.0000114l1.1003075-0.6352615
			c0.0916977-0.0529404,0.0921803-0.1343689,0.0010796-0.1873131L19.82938,37.8360329
			c-0.091053-0.0529175-0.2246914-0.0488701-0.3163891,0.0040703L18.4126835,38.4753685z"/>
		<path class="st10" d="M30.3121357,20.4794521c0,0.4299927-0.2999878,0.9500122-0.6699829,1.1600342L5.4421401,35.6094589
			c-0.210022,0.1199951-0.4000244,0.1199951-0.5200195,0.0200195l-2.009949-1.1600342
			c-0.1300049-0.0700073-0.2000122-0.2199707-0.2000122-0.4199829l-0.0499878-17.830019
			c0-0.419982,0.289978-0.9400015,0.6699829-1.1599722L27.5421162,1.0894381
			c0.1900024-0.0999756,0.3500366-0.1099854,0.4800415-0.0499878l2.0099487,1.1799928
			c0.1400146,0.0599976,0.2300415,0.210022,0.2300415,0.4400024L30.3121357,20.4794521z"/>
		<path class="st10" d="M30.0616856,2.2337542c-0.1131477-0.0660129-0.2828712-0.0565743-0.4714699,0.0471356L5.3849196,16.255291
			c-0.3771996,0.216917-0.6789479,0.7355232-0.6695094,1.1598587l0.0471358,17.8215599
			c0,0.2074776,0.0754514,0.358326,0.1980381,0.4243355l-2.0516391-1.1918983
			c-0.122587-0.0660133-0.1980386-0.2168579-0.1980386-0.4243355L2.6637709,16.2232475
			c0-0.4243345,0.2923098-0.9429417,0.6695094-1.1598568L27.5385761,1.0890461
			c0.1886005-0.1037673,0.3583221-0.1132059,0.4809093-0.0471931L30.0616856,2.2337542z"/>
		<path class="st11" d="M29.5911999,2.2814238c0.367239-0.2120259,0.6692371-0.0399153,0.670433,0.3820825l0.0505199,17.8203621
			c0.0011978,0.421999-0.2988377,0.9416924-0.6660767,1.153717L5.4382,35.6140099
			c-0.3732615,0.2155037-0.6752582,0.0433922-0.6764545-0.3786049L4.7112246,17.415041
			c-0.0011964-0.4219971,0.2988391-0.9416904,0.6721005-1.1571941L29.5911999,2.2814238z"/>
		<path class="st5" d="M5.6539779,17.4121571c0.0036836-0.0930061,0.1197095-0.2896061,0.2007437-0.3374901L28.8980522,3.7705088
			c0.1882782-0.1087031,0.4237041,0.0267725,0.424324,0.2441769l0.0469532,16.4721603
			c-0.003685,0.090704-0.1164875,0.2854614-0.1947594,0.3342667L6.1252518,34.1284981
			c-0.1882782,0.1087036-0.4237018-0.0267754-0.4243217-0.2441788L5.6539779,17.4121571z"/>
		<path class="st5" d="M5.7263236,16.950573c-0.6839943,0-1.2374158,0.553421-1.2374158,1.2374153
			c0-0.3414021-0.1389513-0.6516495-0.3617558-0.8756523c-0.2240112-0.2228127-0.5342588-0.361763-0.8756528-0.361763
			c0.3413939,0,0.6516416-0.1389523,0.8756528-0.3617649c0.2228045-0.2240028,0.3617558-0.5342503,0.3617558-0.8756523
			c0,0.3414021,0.1389585,0.6516495,0.361763,0.8756523C5.0746746,16.8116207,5.3849297,16.950573,5.7263236,16.950573z"/>
		<g>
			<g>
				<polygon class="st6" points="13.1357336,16.0911484 13.1656485,26.6430569 7.4841695,29.9059887 7.4841695,19.3540802 				"/>
				<polygon class="st16" points="8.4046469,19.8854504 12.2196217,17.6830502 12.2429981,26.1109695 8.4046469,28.3156166 				"/>
				<g>
					<g>
						<g>
							<path class="st5" d="M11.2168522,23.5904102c0.0369663,0.0194511,0.0544806,0.0622578,0.0544806,0.1206226
								c0,0.058363-0.0175142,0.1167259-0.0525331,0.1789837c-0.0369654,0.0583649-0.0797615,0.1031189-0.1303463,0.134243
								l-1.5058374,0.8677101c-0.0642061,0.0369644-0.1186867,0.04669-0.1595345,0.0233459
								c-0.0428085-0.0233459-0.0642061-0.0719852-0.0642061-0.145916
								c-0.0019474-0.1595345,0.0389128-0.3307419,0.1206217-0.5116749c0.0778265-0.1789856,0.1770496-0.3540878,0.2898817-0.519453
								c0.1147919-0.1673241,0.2646008-0.3735485,0.4455338-0.6167412c0.1595345-0.2081718,0.2859869-0.3793678,0.3774328-0.5116749
								c0.0914345-0.1342411,0.16926-0.2645874,0.2315187-0.3949356c0.058363-0.1264629,0.0875387-0.2412434,0.0875387-0.3443623
								c0-0.1634178-0.0486374-0.2665367-0.1420193-0.3093319c-0.0933819-0.0428085-0.2470856-0.0019474-0.4571943,0.1206207
								c-0.2315187,0.1322956-0.4533119,0.3132286-0.6595373,0.5408516
								c-0.0272398,0.0311356-0.0544806,0.0544796-0.0817089,0.0700359
								c-0.044755,0.0272408-0.0856037,0.0311356-0.1167383,0.0116844
								c-0.0311232-0.0194626-0.0486383-0.0544796-0.0486383-0.1128445c0-0.0797729,0.0311346-0.1595345,0.0933933-0.2354126
								c0.2665367-0.3073959,0.5603132-0.5564175,0.8735399-0.7354031c0.16926-0.0992241,0.3249006-0.1478615,0.4630375-0.1498089
								c0.1381245-0.0038948,0.2490215,0.0427952,0.3307295,0.1361885c0.0817213,0.0914345,0.12257,0.2334652,0.12257,0.4143982
								c0,0.1789856-0.0447435,0.3754864-0.1342421,0.5817108c-0.0914345,0.2023315-0.2003832,0.4007797-0.3248997,0.587553
								c-0.1245174,0.1867638-0.2879353,0.4124527-0.4883299,0.6789875
								c-0.1789856,0.2431927-0.3171225,0.4357967-0.408556,0.5739231
								c-0.0797739,0.1186848-0.1381369,0.2295818-0.1751022,0.3268585l1.3287992-0.7665386
								C11.1370907,23.5748425,11.1818342,23.5690117,11.2168522,23.5904102z"/>
						</g>
					</g>
				</g>
			</g>
			<g>
				<polygon class="st4" points="20.3224773,12.0420828 20.3523922,22.5939903 14.6709137,25.8569241 14.6709137,15.3050156 				"/>
				<polygon class="st18" points="15.5913286,15.8362532 19.4063034,13.6338539 19.4296799,22.0617752 15.5913286,24.2664223 				
					"/>
				<path class="st5" d="M18.498415,19.6084557c0,0.0754719-0.0222073,0.148737-0.0643883,0.2175579
					c-0.042181,0.068819-0.097681,0.122097-0.1598358,0.1598339c-0.0333061,0.0177631-0.066597,0.0266533-0.097681,0.028862
					c-0.0333061,0-0.0599442-0.0110989-0.084362-0.0310707l-0.7548103-0.7414913l-0.3640728,0.590519l0.0022087,0.6504765
					c0,0.0710297-0.0221958,0.1442928-0.0665989,0.2175579c-0.042181,0.0732632-0.095459,0.1287651-0.1554031,0.162056
					c-0.0643768,0.0377502-0.1154327,0.042181-0.1576138,0.017765c-0.0421791-0.0244179-0.0643883-0.0732651-0.0643883-0.1420841
					l-0.0088749-3.3189297c0-0.0710297,0.0199852-0.1442928,0.0621662-0.2175579
					c0.0421677-0.0754738,0.095459-0.1309738,0.1576138-0.166502c0.0599442-0.0355129,0.1132221-0.039957,0.1576252-0.0155411
					c0.0444031,0.0266399,0.0665989,0.0732651,0.0665989,0.1443062l0.0044441,2.0401974l1.0234241-1.6827774
					c0.0488338-0.0776958,0.097681-0.1309872,0.1465149-0.1576252c0.0754871-0.0443897,0.1309872-0.0488338,0.1642933-0.0199738
					c0.0355148,0.028862,0.0510559,0.0776958,0.0510559,0.1420841c0,0.0665989-0.0266399,0.1442928-0.0799179,0.2375298
					l-0.6260452,1.0101204l0.796978,0.7503662C18.4806519,19.5152054,18.498415,19.5551643,18.498415,19.6084557z"/>
			</g>
			<g>
				<polygon class="st31" points="27.509222,7.9930172 27.5391369,18.5449257 21.8576584,21.8078575 21.8576584,11.25595 				"/>
				<polygon class="st32" points="22.7780113,11.7875071 26.5929852,9.5851078 26.6163635,18.012579 22.7780113,20.217226 				"/>
				<path class="st5" d="M25.7757301,14.9668036c0,0.3299227-0.0981369,0.6577673-0.2923355,0.9730835
					c-0.194212,0.3174067-0.4886398,0.5888662-0.870779,0.8102121c-0.3403721,0.1962891-0.6452389,0.2777309-0.902092,0.2380562
					c-0.0292244-0.0083485-0.0522041-0.0208912-0.0689011-0.0375862c-0.0146179-0.0187988-0.0229797-0.0522041-0.0229797-0.1002407
					c0-0.0626431,0.0167103-0.1273766,0.050127-0.1900196c0.0334053-0.0647316,0.0793514-0.1148472,0.1357231-0.1461735
					c0.0334187-0.0208778,0.0647335-0.0292377,0.0960617-0.0292377c0.2150745,0.0083599,0.4385109-0.0542812,0.6619473-0.1837482
					c0.2589321-0.1503544,0.4594002-0.3153162,0.5951366-0.4928188c0.1336346-0.1753988,0.2004566-0.3863068,0.2004566-0.6222715
					c-0.0020905-0.1921082-0.0584621-0.3132257-0.1691418-0.3591728c-0.1127567-0.0459337-0.2672787-0.0146055-0.4635677,0.1002417
					c-0.2276173,0.1294661-0.4406147,0.3215742-0.6348133,0.5700674c-0.006258,0.0083475-0.0229664,0.0250568-0.0480232,0.056385
					c-0.0292377,0.0375853-0.0647335,0.0689125-0.1064987,0.0939703c-0.083519,0.0480232-0.1524334,0.0605526-0.2088184,0.0375853
					c-0.0584621-0.0229797-0.0876999-0.0793514-0.0876999-0.1670513c0-0.0396757,0.0020905-0.0814419,0.0083485-0.1252985
					l0.1858501-1.388628c0.006258-0.0814419,0.0334053-0.1607933,0.0772629-0.2317963
					c0.0438557-0.073081,0.0981503-0.1273756,0.1607933-0.1628714l1.3426933-0.7747173
					c0.0542946-0.0334053,0.1023197-0.0396757,0.1419945-0.0167084c0.0396767,0.0229788,0.0584621,0.0647326,0.0584621,0.127388
					c0,0.0647326-0.0208759,0.1294661-0.0584621,0.1941986s-0.0856094,0.1127567-0.139904,0.144084l-1.1986103,0.691186
					l-0.1232071,1.0336485c0.206728-0.2380552,0.4364338-0.4322538,0.6828365-0.5742483
					c0.2088184-0.1211176,0.3904877-0.1775026,0.5408306-0.1691418c0.1482639,0.0083485,0.2631111,0.0751715,0.3403721,0.1962767
					C25.7360554,14.5846643,25.7736397,14.7538061,25.7757301,14.9668036z"/>
			</g>
		</g>
	</g>
	<path class="st11" d="M31.5321064,29.9494839l-1.0999756,0.6399536c-0.0900269,0.0500488-0.2299805,0.0500488-0.3099976,0
		l-1.0300293-0.5999756c-0.0799561-0.0499878-0.0799561-0.1300049,0.0100098-0.1799927l1.1000366-0.6300049
		c0.0899658-0.0499878,0.2299805-0.0499878,0.3099976-0.0100098l1.0199585,0.5999756
		C31.6221333,29.819479,31.6221333,29.899435,31.5321064,29.9494839z"/>
	<path class="st11" d="M18.7321186,39.649437c0.0900269,0.0500488,0.0900269,0.1300049,0,0.1800537l-1.0999756,0.6399536
		c-0.0900269,0.0499878-0.2299805,0.0499878-0.3200073,0l-1.0200195-0.5899658
		c-0.0899658-0.0599976-0.0799561-0.1300049,0-0.1799927l1.1100464-0.6400146c0.0899658-0.0499878,0.2199707-0.0499878,0.3099976,0
		L18.7321186,39.649437z"/>
</g>
</svg>
