<?xml version="1.0" encoding="utf-8"?>
<!-- Generator: Adobe Illustrator 22.0.0, SVG Export Plug-In . SVG Version: 6.00 Build 0)  -->
<svg version="1.1" id="Layer_1" xmlns="http://www.w3.org/2000/svg" xmlns:xlink="http://www.w3.org/1999/xlink" x="0px" y="0px"
	 viewBox="0 0 50 50" style="enable-background:new 0 0 50 50;" xml:space="preserve">
<style type="text/css">
	.st0{fill:#9EA9C9;}
	.st1{fill:#B0B8CF;}
	.st2{fill:#C9CEE2;}
	.st3{fill:#E3E7F0;}
	.st4{fill:#F45170;}
	.st5{fill:#FFFFFF;}
	.st6{fill:#57B3FE;}
	.st7{fill:#E8E6FB;}
	.st8{fill:#DEDFFB;}
	.st9{fill:#F3F1FC;}
	.st10{fill:#1D2943;}
	.st11{fill:#4C5C75;}
	.st12{fill:#F9A83D;}
	.st13{fill:#FFD06C;}
	.st14{fill:#FFDE9B;}
	.st15{fill:#FEBC1F;}
	.st16{fill:#5094FF;}
	.st17{fill:#F8CA2F;}
	.st18{fill:#E93565;}
	.st19{fill:#DF3260;}
	.st20{opacity:0.8;fill:#F45170;}
	.st21{opacity:0.5;}
	.st22{enable-background:new    ;}
	.st23{fill:#DBA660;}
	.st24{fill:#111D33;}
	.st25{fill:none;}
	.st26{fill:#F8F9FE;}
	.st27{fill:#E9E7FC;}
	.st28{fill:#EDEEF2;}
	.st29{fill:#DEDFFA;}
	.st30{fill:#0F1522;}
	.st31{fill:#78E75A;}
	.st32{fill:#72D561;}
	.st33{fill:#986FF9;}
	.st34{fill:#B28AFD;}
	.st35{fill:#497BFE;}
	.st36{fill:#7E5AF2;}
	.st37{fill:#3B3E3F;}
	.st38{fill:#FEFEFE;}
	.st39{fill:#BF7D5A;}
	.st40{fill:#F4D6D4;}
	.st41{fill:#F5C9C6;}
	.st42{fill:#5EC363;}
	.st43{fill:#FFD475;}
	.st44{fill:#FFDD95;}
	.st45{fill:#FFB961;}
	.st46{fill:#DADCF7;}
	.st47{fill:#AA6256;}
	.st48{fill:#8A4852;}
	.st49{fill:#CED1F2;}
	.st50{fill:#3979EA;}
	.st51{fill:#29313F;}
	.st52{fill:#3B475A;}
	.st53{fill:#414F65;}
	.st54{opacity:0.2;fill:#57B3FE;}
	.st55{fill:#50B069;}
	.st56{fill:#C8C7D9;}
	.st57{fill:#822B3C;}
	.st58{fill:#D24660;}
	.st59{fill:#7D7B87;}
	.st60{fill:#B4B3C3;}
	.st61{fill:#BD3F57;}
	.st62{fill:#CFCEEA;}
	.st63{opacity:0.7;fill:#57B3FE;}
</style>
<g id="_x38_7">
	<g>
		<path class="st2" d="M48.2788963,25.863203L30.0489159,15.3432446c-0.1400146-0.0800171-0.2799683-0.1500244-0.4400024-0.2000122
			v-4.710022c0-0.25-0.1699829-0.5100098-0.5-0.7000122c-0.0100098-0.0099487-0.0299683-0.0099487-0.039978-0.0199585V1.3632033
			c0-0.1699829-0.1100464-0.3399658-0.3400269-0.4699707c-0.4500122-0.2600098-1.1799927-0.2600098-1.6300049,0
			c-0.2199707,0.1300049-0.3299561,0.2999878-0.3299561,0.4699707v8.3600464c-0.0200195,0-0.0300293,0.0099487-0.0500488,0.0199585
			c-0.3299561,0.1900024-0.4899902,0.4400024-0.4899902,0.6900024v5.1099854L7.1589017,26.6232128v-3.1900024
			c0,0.02948-0.0099487,0.0570068-0.0141602,0.0855103c0.0420532-0.2816162-0.1235962-0.5695801-0.4958496-0.7855225
			c-0.0099487-0.0099487-0.0199585-0.0099487-0.0299683-0.0099487V14.363203c0-0.1699829-0.1199951-0.3399658-0.3499756-0.4799805
			c-0.4500122-0.2600098-1.1700439-0.25-1.6200562,0.0100098c-0.2299805,0.1300049-0.3399658,0.2999878-0.3399658,0.4699707
			v8.3500366c-0.0100098,0.0100098-0.0300293,0.0100098-0.039978,0.0199585c-0.3300171,0.1900024-0.5,0.4400024-0.5,0.6900024
			v5.1700439L1.728909,29.783247c-0.5153809,0.2935181-0.7490234,0.6848145-0.7166748,1.0714722
			c-0.0016479-0.0206909-0.0133057-0.0407715-0.0133057-0.0615234l0.0100098,6.5500507
			c0,0.3800049,0.2299805,0.7399902,0.7199707,1.0199585l18.2200317,10.5200195
			c0.9599609,0.5599976,2.5099487,0.5599976,3.4799805,0h0.0100098v-0.0100098l24.8399658-14.4400024
			c0.4900513-0.2699585,0.7200317-0.6400146,0.7200317-0.9899902v-6.5599995
			C49.0089378,26.5132275,48.7689476,26.1432323,48.2788963,25.863203z M7.1426663,23.5311718
			c-0.0158691,0.0928955-0.0471191,0.1831665-0.1137695,0.2720337C7.089993,23.7152538,7.1267972,23.623518,7.1426663,23.5311718z
			 M1.1114163,31.1915722c-0.020752-0.0397949-0.0377197-0.0787354-0.0522461-0.1195068
			C1.0733304,31.1122875,1.0912137,31.1520214,1.1114163,31.1915722z"/>
	</g>
	<g>
		<path class="st0" d="M48.9962692,26.8783207l0.0048027,6.5617161c0,0.3552322-0.2368202,0.7203407-0.7203407,0.9966698
			L23.4333115,48.8833008l0.0050144-6.561657l24.8474216-14.4466534
			C48.759449,27.5986614,48.9962692,27.2434292,48.9962692,26.8783207z"/>
		<path class="st2" d="M19.9549809,42.3216438l-0.0050755,6.561657L1.7262735,38.362175
			c-0.4835185-0.276329-0.7203391-0.6414375-0.7203391-1.0164261l-0.004863-6.551836
			c0,0.3651676,0.246698,0.7302761,0.7302768,1.006546L19.9549809,42.3216438z"/>
		<path class="st1" d="M23.436367,42.3209953l-0.0012817,6.5578804c-0.9639359,0.5601807-2.5213375,0.5601845-3.4852867,0.0036507
			l0.0012817-6.5578842C20.9150314,42.8811798,22.4724312,42.8811722,23.436367,42.3209953z"/>
		<path class="st3" d="M48.2747726,25.8647137c0.9639511,0.5565357,0.9690285,1.4586411,0.0113525,2.0151806L23.436367,42.3209953
			c-0.9639359,0.5601768-2.5213356,0.5601845-3.4852867,0.0036469L1.7296448,31.804493
			c-0.9639499-0.5565376-0.9690328-1.4586449-0.0050974-2.0188236l24.8497581-14.4411011
			c0.957674-0.5565395,2.5150795-0.5565434,3.4790306-0.0000067L48.2747726,25.8647137z"/>
		<path class="st2" d="M22.0657501,35.0886612c-0.095129,0-0.1610813-0.0170174-0.1765804-0.023098l-9.6085787-5.5493603
			l13.7632284-7.9983845c-0.0033436,0.0021267-0.0027351,0.0030384,0.001215,0.0030384
			c0.0142841,0,0.0692959-0.0100288,0.1422367-0.0100288c0.0957375,0,0.161993,0.0173225,0.1774921,0.0234013l9.6091862,5.5493603
			l-13.7595806,7.9962597c0.0024319-0.0015221,0.0018234-0.0024338-0.0012169-0.0024338
			C22.2000847,35.0774155,22.142643,35.0886612,22.0657501,35.0886612z"/>
		<polygon class="st10" points="46.9688988,33.5332489 25.0089378,46.2931976 24.9789085,41.4332123 20.708889,38.9632416 
			42.668911,26.2032299 46.9389305,28.6732006 		"/>
		<polygon class="st10" points="24.9787998,41.4306564 46.935688,28.6708603 46.969101,33.5354385 25.0097275,46.2967224 		"/>
		<polygon class="st11" points="20.7072029,38.9644203 42.6640892,26.2046242 46.935688,28.6708603 24.9787998,41.4306564 		"/>
		<g>
			<g>
				<g>
					<path class="st10" d="M7.688931,30.3132153v0.9100342c0,0.3299561-0.210022,0.6599731-0.6500244,0.9099751
						c-0.8599854,0.5-2.2699585,0.5100098-3.1499634,0c-0.4400024-0.2600117-0.6600342-0.5900288-0.6500244-0.9199848v-0.8800049
						c0,0.0081177,0.0019531,0.0161743,0.0020142,0.024292c-0.0198364-0.3383179,0.1918945-0.6936646,0.6480103-0.9542847
						c0.8599854-0.5100098,2.2699585-0.5100098,3.1399536-0.0100098c0.4524536,0.2623901,0.663269,0.5985718,0.6571655,0.9343262
						C7.6861234,30.3226757,7.688931,30.3180981,7.688931,30.3132153z"/>
				</g>
			</g>
			<g class="st22">
				<g>
					<path class="st10" d="M7.6934934,30.315588l0.0000029,0.9061966c-0.0009174,0.3288231-0.2191854,0.6567478-0.6519914,0.9082661
						c-0.8602796,0.499939-2.2725787,0.5100479-3.1559918,0.0000114c-0.4368508-0.2522163-0.6523125-0.5825348-0.6513777-0.9123096
						l-0.0000288-0.9061699c-0.0009236,0.3297653,0.2145379,0.6600838,0.6513889,0.9123001
						c0.8834131,0.5100384,2.2957122,0.4999294,3.1559918-0.0000095C7.4742932,30.972353,7.6925611,30.6444302,7.6934934,30.315588z
						"/>
				</g>
				<g>
					<path class="st11" d="M7.0311904,29.3958054c0.8834133,0.5100384,0.8792982,1.3230591,0.0102968,1.8280678
						c-0.8602796,0.499939-2.2725787,0.5100479-3.1559918,0.0000095c-0.8746638-0.5049877-0.8618195-1.3230724-0.0015402-1.8230114
						C4.7529564,28.8958626,6.1565266,28.8908176,7.0311904,29.3958054z"/>
				</g>
			</g>
			<g>
				<g class="st22">
					<g>
						<path class="st1" d="M7.1550932,23.4310379l0.0000024,6.8301392c-0.0006962,0.249424-0.1662588,0.4981632-0.494556,0.6889496
							c-0.6525497,0.3792191-1.7238235,0.3868885-2.3939204,0.0000076
							c-0.3313656-0.1913147-0.4948001-0.4418716-0.4940908-0.6920166l-0.0000219-6.8301182
							c-0.0007007,0.2501373,0.1627338,0.5006943,0.4940994,0.692009c0.6700969,0.3868809,1.7413707,0.3792114,2.3939199-0.0000076
							C6.9888229,23.9292145,7.154386,23.6804752,7.1550932,23.4310379z"/>
					</g>
					<g>
						<path class="st3" d="M6.6527157,22.7333527c0.6700969,0.3868809,0.6669755,1.003582,0.0078101,1.3866482
							c-0.6525493,0.3792191-1.7238231,0.3868885-2.3939199,0.0000076c-0.6634607-0.383049-0.6537178-1.0035934-0.0011683-1.3828125
							C4.9246025,22.3541298,5.989255,22.3503036,6.6527157,22.7333527z"/>
					</g>
				</g>
			</g>
			<g>
				<g class="st22">
					<g>
						<path class="st2" d="M6.6150894,14.3628197l0.0000019,9.113409c-0.000474,0.1697865-0.1131754,0.3391075-0.3366523,0.468977
							c-0.4442005,0.2581425-1.1734333,0.263361-1.6295786,0.0000057c-0.2255659-0.1302299-0.3368182-0.3007889-0.3363352-0.4710655
							L4.31251,14.3607521c-0.0004768,0.1702728,0.1107755,0.3408308,0.3363414,0.4710608
							c0.4561453,0.2633562,1.1853781,0.2581358,1.6295786-0.0000048
							C6.5019069,14.7019367,6.6146083,14.5326157,6.6150894,14.3628197z"/>
					</g>
					<g>
						<path class="st3" d="M6.2731133,13.8878946c0.4561453,0.2633562,0.4540205,0.6831551,0.0053167,0.9439135
							c-0.4442005,0.2581406-1.1734333,0.263361-1.6295786,0.0000048c-0.4516282-0.260747-0.4449959-0.6831608-0.0007954-0.9413023
							C5.0967598,13.6297522,5.8214855,13.6271477,6.2731133,13.8878946z"/>
					</g>
				</g>
			</g>
		</g>
		<g>
			<g>
				<g>
					<path class="st10" d="M30.1488914,17.323225v0.9000244c0,0.3299561-0.2199707,0.6599731-0.6499634,0.9099731
						c-0.8599854,0.5-2.2800293,0.5100098-3.1600342,0c-0.4400024-0.25-0.6499634-0.5800171-0.6499634-0.9099731v-0.9100342
						c0-0.3300171,0.2199707-0.6599731,0.6499634-0.9099731c0.8699951-0.5,2.2700195-0.5100098,3.1500244,0
						C29.9289207,16.6632519,30.1488914,16.9932079,30.1488914,17.323225z"/>
				</g>
			</g>
			<g class="st22">
				<g>
					<path class="st10" d="M30.1471519,17.3187332l0.0000019,0.9061966
						c-0.0009174,0.328825-0.2191849,0.6567478-0.6519909,0.9082661c-0.8602791,0.4999409-2.2725792,0.5100498-3.1559925,0.0000114
						c-0.4368496-0.2522163-0.6523113-0.5825348-0.6513767-0.9123096l-0.0000286-0.9061699
						c-0.0009251,0.3297672,0.2145367,0.6600857,0.6513882,0.9123001c0.8834133,0.5100403,2.2957115,0.4999294,3.1559925-0.0000095
						C29.9279518,17.9754982,30.1462193,17.6475754,30.1471519,17.3187332z"/>
				</g>
				<g>
					<path class="st11" d="M29.484848,16.3989506c0.8834133,0.5100384,0.8792973,1.3230591,0.0102978,1.8280678
						c-0.860281,0.499939-2.2725792,0.5100498-3.1559925,0.0000095c-0.8746643-0.5049858-0.8618202-1.3230724-0.0015411-1.8230114
						C27.2066135,15.8990078,28.6101837,15.8939629,29.484848,16.3989506z"/>
				</g>
			</g>
			<g>
				<g class="st22">
					<g>
						<path class="st1" d="M29.6087513,10.4341831l0.0000019,6.8301392
							c-0.0006962,0.249424-0.1662598,0.4981632-0.4945564,0.6889496c-0.6525497,0.3792191-1.7238235,0.3868885-2.393919,0.0000076
							c-0.3313656-0.1913147-0.4948006-0.4418716-0.494091-0.6920166l-0.0000229-6.8301182
							c-0.0007,0.2501383,0.162735,0.5006952,0.4940987,0.692009c0.6700974,0.3868809,1.7413712,0.3792124,2.3939209-0.0000076
							C29.4424801,10.9323606,29.6080437,10.6836205,29.6087513,10.4341831z"/>
					</g>
					<g>
						<path class="st3" d="M29.1063728,9.7364979c0.6700974,0.3868809,0.6669769,1.003583,0.0078106,1.3866482
							c-0.6525497,0.37922-1.7238235,0.3868885-2.3939209,0.0000076c-0.6634598-0.383049-0.653717-1.0035925-0.0011673-1.3828125
							C27.3782597,9.357276,28.4429131,9.3534489,29.1063728,9.7364979z"/>
					</g>
				</g>
			</g>
			<g>
				<g class="st22">
					<g>
						<path class="st2" d="M29.0687466,1.3659655l0.0000019,9.1134081c-0.000473,0.1697855-0.1131744,0.3391075-0.3366508,0.4689779
							c-0.4442005,0.2581406-1.1734333,0.263361-1.6295795,0.0000048c-0.225565-0.1302299-0.3368187-0.3007879-0.3363361-0.4710655
							l-0.0000134-9.1133938c-0.0004768,0.1702729,0.110775,0.3408309,0.33634,0.4710613
							c0.4561462,0.2633556,1.185379,0.2581357,1.6295795-0.0000054
							C28.9555645,1.7050827,29.0682659,1.5357615,29.0687466,1.3659655z"/>
					</g>
					<g>
						<path class="st3" d="M28.7267704,0.8910406c0.4561462,0.2633558,0.4540215,0.6831544,0.0053177,0.9439127
							c-0.4442005,0.258141-1.1734333,0.263361-1.6295795,0.0000054c-0.4516277-0.2607476-0.4449959-0.6831611-0.0007954-0.9413022
							C27.5504169,0.6328982,28.2751427,0.6302932,28.7267704,0.8910406z"/>
					</g>
				</g>
			</g>
		</g>
		<g>
			<g>
				
					<ellipse transform="matrix(0.999996 -0.0028245 0.0028245 0.999996 -0.0892661 0.1062162)" class="st6" cx="37.5604019" cy="31.6570797" rx="1.7162824" ry="0.9941189"/>
			</g>
			<g>
				
					<ellipse transform="matrix(0.999996 -0.0028285 0.0028285 0.999996 -0.0832698 0.1169315)" class="st13" cx="41.299366" cy="29.4983883" rx="1.716285" ry="0.9941218"/>
			</g>
			<g>
				
					<ellipse transform="matrix(0.999996 -0.0028271 0.0028271 0.999996 -0.0954666 0.0957529)" class="st31" cx="33.8214417" cy="33.8157692" rx="1.716285" ry="0.9941204"/>
			</g>
			<g>
				
					<ellipse transform="matrix(0.999996 -0.0028271 0.0028271 0.999996 -0.1077023 0.0746291)" class="st4" cx="26.3435173" cy="38.133152" rx="1.716285" ry="0.9941204"/>
			</g>
			<g>
				
					<ellipse transform="matrix(0.999996 -0.0028271 0.0028271 0.999996 -0.1015844 0.085191)" class="st23" cx="30.0824795" cy="35.9744606" rx="1.716285" ry="0.9941204"/>
			</g>
		</g>
		<polygon class="st11" points="5.4477782,35.7317505 5.4381385,39.1319847 2.4790206,37.4235344 2.4886603,34.023304 		"/>
		<polygon class="st10" points="2.7665157,34.7007751 2.7614963,36.4713173 3.2402906,36.7477493 3.2389188,37.2317123 
			3.5508988,37.4118347 3.5498824,37.7703209 4.3051448,38.2063751 4.3061609,37.8478851 4.6181469,38.0280113 
			4.6195188,37.5440483 5.1602831,37.8562584 5.1653028,36.0857124 		"/>
		<polygon class="st11" points="9.8208904,38.2564964 9.8112507,41.6567307 6.8521328,39.9482841 6.8617725,36.5480499 		"/>
		<polygon class="st10" points="7.1396279,37.2255211 7.1346083,38.996067 7.6134028,39.2724991 7.612031,39.7564583 
			7.9240108,39.9365807 7.9229946,40.2950706 8.678257,40.7311211 8.6792727,40.3726311 8.9912586,40.5527573 8.992631,40.0687943 
			9.5333948,40.3810043 9.538415,38.6104622 		"/>
	</g>
</g>
</svg>
