<?xml version="1.0" encoding="utf-8"?>
<!-- Generator: Adobe Illustrator 22.0.0, SVG Export Plug-In . SVG Version: 6.00 Build 0)  -->
<svg version="1.1" id="Layer_1" xmlns="http://www.w3.org/2000/svg" xmlns:xlink="http://www.w3.org/1999/xlink" x="0px" y="0px"
	 viewBox="0 0 50 50" style="enable-background:new 0 0 50 50;" xml:space="preserve">
<style type="text/css">
	.st0{fill:#9EA9C9;}
	.st1{fill:#B0B8CF;}
	.st2{fill:#C9CEE2;}
	.st3{fill:#E3E7F0;}
	.st4{fill:#F45170;}
	.st5{fill:#FFFFFF;}
	.st6{fill:#57B3FE;}
	.st7{fill:#E8E6FB;}
	.st8{fill:#DEDFFB;}
	.st9{fill:#F3F1FC;}
	.st10{fill:#1D2943;}
	.st11{fill:#4C5C75;}
	.st12{fill:#F9A83D;}
	.st13{fill:#FFD06C;}
	.st14{fill:#FFDE9B;}
	.st15{fill:#FEBC1F;}
	.st16{fill:#5094FF;}
	.st17{fill:#F8CA2F;}
	.st18{fill:#E93565;}
	.st19{fill:#DF3260;}
	.st20{opacity:0.8;fill:#F45170;}
	.st21{opacity:0.5;}
	.st22{enable-background:new    ;}
	.st23{fill:#DBA660;}
	.st24{fill:#111D33;}
	.st25{fill:none;}
	.st26{fill:#F8F9FE;}
	.st27{fill:#E9E7FC;}
	.st28{fill:#EDEEF2;}
	.st29{fill:#DEDFFA;}
	.st30{fill:#0F1522;}
	.st31{fill:#78E75A;}
	.st32{fill:#72D561;}
	.st33{fill:#986FF9;}
	.st34{fill:#B28AFD;}
	.st35{fill:#497BFE;}
	.st36{fill:#7E5AF2;}
	.st37{fill:#3B3E3F;}
	.st38{fill:#FEFEFE;}
	.st39{fill:#BF7D5A;}
	.st40{fill:#F4D6D4;}
	.st41{fill:#F5C9C6;}
	.st42{fill:#5EC363;}
	.st43{fill:#FFD475;}
	.st44{fill:#FFDD95;}
	.st45{fill:#FFB961;}
	.st46{fill:#DADCF7;}
	.st47{fill:#AA6256;}
	.st48{fill:#8A4852;}
	.st49{fill:#CED1F2;}
	.st50{fill:#3979EA;}
	.st51{fill:#29313F;}
	.st52{fill:#3B475A;}
	.st53{fill:#414F65;}
	.st54{opacity:0.2;fill:#57B3FE;}
	.st55{fill:#50B069;}
	.st56{fill:#C8C7D9;}
	.st57{fill:#822B3C;}
	.st58{fill:#D24660;}
	.st59{fill:#7D7B87;}
	.st60{fill:#B4B3C3;}
	.st61{fill:#BD3F57;}
	.st62{fill:#CFCEEA;}
	.st63{opacity:0.7;fill:#57B3FE;}
</style>
<g id="_x37_">
	<path class="st24" d="M33.5107346,39.786972v2.4599609c0,0.25-0.1699829,0.5100098-0.5,0.7000122l-9.1799908,5.3599854v0.0100098
		H23.820734c-0.6599731,0.3800049-1.7299805,0.3699951-2.3800049,0c-0.039978-0.0199585-0.0800171-0.039978-0.1199951-0.0599976
		V48.246933l-5.5599976-4.6300049c-0.25-0.1699829-0.3900146-0.3899536-0.3900146-0.6099854v-2.4599609
		c0,0.0599976,0.0100098,0.1099854,0.0300293,0.1599731c-0.0800171-0.2999878,0.0700073-0.6199951,0.4699707-0.8499756
		l7.3099976-4.2700195c0.6000366-0.3500366,1.5800171-0.3800049,2.25-0.0599976l7.4600201,3.5100098
		c0.039978,0.0199585,0.0899658,0.039978,0.1300049,0.0700073c0.3291016,0.1880493,0.4923706,0.4468384,0.4865112,0.7015991
		C33.5075607,39.8014984,33.5107346,39.7939911,33.5107346,39.786972z"/>
	<path class="st24" d="M33.5111237,39.7875137l-0.0037956,2.4602661c0.0005417,0.2472496-0.16745,0.5061188-0.4930382,0.6979637
		l-9.1826725,5.3592033l0.0000248,0.0112495l-0.0112514,0.0000267c-0.6622887,0.3835754-1.730135,0.3746681-2.3828926,0.0052223
		c-0.0337334-0.0224266-0.0787868-0.0448303-0.1125202-0.0671883l-0.0000248-0.0112534l-5.5595627-4.6212082
		c-0.258894-0.1792412-0.3942375-0.3925133-0.3947306-0.6173286l0.003727-2.4602661
		c0.0004921,0.2248154,0.1358366,0.4380836,0.3947992,0.6173286l5.5595627,4.6212082
		c0.0337582,0.0336075,0.078743,0.0560112,0.1125202,0.0671883c0.6527824,0.3806953,1.7318115,0.3895798,2.3829174,0.0060272
		l-0.0000248-0.0112495l9.193924-5.3592262C33.343605,40.2937012,33.5116653,40.0347633,33.5111237,39.7875137z"/>
	<path class="st11" d="M33.0188332,39.1050148c0.6508789,0.3738289,0.6672096,0.9911156,0.0036545,1.3786812l-9.1928043,5.3692741
		c-0.6605492,0.385807-1.7343712,0.3790054-2.3900967,0.0023346c-0.0369987-0.0212517-0.0726967-0.0436859-0.1068859-0.0672874
		l-5.5627775-4.620327c-0.5537958-0.3841209-0.5081673-0.9518547,0.1042128-1.3095322l7.3058147-4.2671318
		c0.605257-0.3535156,1.5850105-0.3846779,2.2527351-0.0671005l7.4568901,3.5140305
		C32.9351006,39.0592651,32.9782257,39.0817032,33.0188332,39.1050148z"/>
	<polygon class="st1" points="27.7107487,40.4869232 23.1007633,43.1569672 20.2507267,41.5069427 20.2307072,34.6269379 
		23.0607243,33.7769623 27.6707096,31.1069775 	"/>
	<polygon class="st1" points="23.102253,43.1592293 20.2532463,41.5111313 20.227335,34.6281319 23.060112,33.7794304 	"/>
	<polygon class="st3" points="27.7080116,40.4846611 23.102253,43.1592293 23.060112,33.7794304 27.6658058,31.1048622 	"/>
	<path class="st10" d="M38.7507248,25.3669262c0,1.3500366-0.960022,3-2.1300049,3.6800537L11.2207584,43.7169647
		c-0.3400269,0.2000122-0.6700439,0.289978-0.960022,0.289978c-0.1699829,0-0.3400269-0.0299683-0.4799805-0.0999756
		c-0.0599976-0.0300293-0.1199951-0.0700073-0.1799927-0.1099854c-0.0100098,0-0.0200195-0.0100098-0.0200195-0.0100098
		l-3.0700073-1.7800293c-0.3900146-0.2199707-0.6199951-0.6900024-0.6199951-1.3599854L5.8407536,20.0469799
		c-0.0100098-1.3600464,0.9499512-3.0100098,2.1199951-3.6900024L33.3607101,1.6969439
		c0.6000366-0.3499756,1.1300049-0.3800049,1.5200195-0.1499634l3.1099854,1.8099977
		c0.0100098,0.0099487,0.0300293,0.0099487,0.0400391,0.0199585c0.0099487,0.0100098,0.0199585,0.0100098,0.0199585,0.0100098
		c0.0100098,0,0.0100098,0.0100098,0.0200195,0.0100098c0.039978,0.0200195,0.0700073,0.0499878,0.1099854,0.0700073
		l0.0100098,0.0100098c0.3824234,0.3186193,0.5,0.7960508,0.5,1.2899778L38.7507248,25.3669262z"/>
	<path class="st0" d="M38.7507248,25.3669262c0,1.3500366-0.960022,3-2.1300049,3.6800537L11.2207584,43.7169647
		c-0.6600342,0.3800049-1.25,0.3800049-1.6400146,0.0700073l-3.0700073-1.7800293
		c-0.3900146-0.2199707-0.6199951-0.6900024-0.6199951-1.3599854L5.8407536,20.0469799
		c-0.0100098-1.3600464,0.9499512-3.0100098,2.1199951-3.6900024L33.3607101,1.6969439
		c0.6000366-0.3499756,1.1300049-0.3800049,1.5200195-0.1499634l3.0900269,1.7999879c0.0099487,0,0.0099487,0,0.0199585,0.0100098
		c0.0100098,0.0099487,0.0300293,0.0099487,0.0400391,0.0199585c0.4099731,0.210022,0.6599731,0.6900022,0.6599731,1.3900144
		L38.7507248,25.3669262z"/>
	<path class="st0" d="M33.3632164,1.6943297c0.5954285-0.3466579,1.1305008-0.376834,1.5224228-0.1507888l3.1880035,1.8540864
		c-0.3918762-0.2260454-0.9269981-0.195961-1.5223808,0.1432447L11.1526356,18.2072258
		c-1.1757212,0.6782284-2.1328945,2.3363533-2.12535,3.6929016L9.072504,42.4900246
		c0.0075436,0.6784096,0.2411785,1.1455879,0.6255569,1.371727l-3.1880479-1.8539963
		c-0.384378-0.2185936-0.6180134-0.693409-0.6180134-1.3641815L5.8392835,20.046133
		c-0.007544-1.3566399,0.9495835-3.0071297,2.1253042-3.6929016L33.3632164,1.6943297z"/>
	<path class="st10" d="M36.551693,3.5445168c1.1789284-0.6806543,2.1396103-0.1331718,2.1434669,1.2270191l0.050724,20.5905113
		c0.0038414,1.354641-0.9506035,3.007822-2.1295319,3.6884766L11.21908,43.7136459
		c-1.1789284,0.6806564-2.1396112,0.1331711-2.1434517-1.2214699L9.0249023,21.9016666
		c-0.0038557-1.3601913,0.9505882-3.0133724,2.1295156-3.6940269L36.551693,3.5445168z"/>
	<path class="st5" d="M11.0923748,21.8968029c-0.0018559-0.6959476,0.4897537-1.5500641,1.0924654-1.898035l22.901741-13.2221756
		c0.6874046-0.3968678,1.546917,0.0978484,1.5490341,0.8915882l0.0441818,16.5741348
		c0.0018501,0.6927471-0.4875031,1.5429325-1.0874443,1.8893013L12.6855841,39.3564911
		c-0.6874027,0.396862-1.5469093-0.0978546-1.5490255-0.8915901L11.0923748,21.8968029z"/>
	<path class="st5" d="M36.6831741,24.2469311c0,0.6900024-0.4899902,1.5400391-1.0899658,1.8800049l-7.4000244,4.2700195
		l-1.8499756,1.0800171h-0.0100098l-6.8300171,3.9400043l-1.1400146,0.6599731l-5.6799927,3.2800293
		c-0.6799927,0.3999634-1.539978-0.1000366-1.5499878-0.8900146l-0.039978-16.5700092
		c0-0.7000122,0.4899902-1.5499878,1.0899658-1.9000244l4.7000122-2.7099609l0.6199951-0.3600464l7.6799927-4.4299917v-0.0100098
		l1.5-0.8599854l0.4700317-0.2699585l4.2399902-2.4500122l3.6900024-2.1300054
		c0.6900024-0.4000244,1.5499878,0.0999756,1.5499878,0.8900146L36.6831741,24.2469311z"/>
	<path class="st5" d="M13.2461576,40.2142563c0.3015099-0.1740761,0.5435019-0.0361671,0.5444717,0.3056755
		c0.0009556,0.3372078-0.2394524,0.7582588-0.5409622,0.9323349c-0.2934666,0.1694336-0.5354719,0.0269051-0.5364285-0.3103027
		C12.7122698,40.8001213,12.9526911,40.3836899,13.2461576,40.2142563z"/>
	<path class="st5" d="M15.1195297,39.1326637c0.2974882-0.1717529,0.5394793-0.033844,0.5404482,0.3079987
		c0.0009565,0.3372078-0.2394505,0.7582588-0.5369377,0.9300117c-0.2974882,0.1717567-0.5394945,0.0292282-0.5404501-0.3079796
		C14.5816202,39.7208481,14.8220415,39.3044205,15.1195297,39.1326637z"/>
	<path class="st5" d="M16.9888783,38.0533943c0.2974892-0.1717529,0.5394821-0.033844,0.540451,0.3079987
		c0.0009556,0.3372078-0.2394524,0.7582588-0.5369396,0.9300156c-0.2934685,0.1694298-0.5354729,0.0269012-0.5364304-0.3103065
		C16.4549904,38.6392593,16.6954117,38.2228279,16.9888783,38.0533943z"/>
	<path class="st27" d="M22.8532181,27.9369335c-0.0599976,0.1500244-0.0900269,0.2999878-0.1400146,0.460022
		c-0.0300293,0.0899658-0.0499878,0.2199707-0.1000366,0.2600098c-0.289978,0.2799683-0.2799683,0.5599976-0.3299561,0.8399658
		c-0.0500488,0.3000488-0.0400391,0.6000366-0.25,0.9200439l-0.1400146,0.1900024
		c-0.25,0.1499634-0.3300171,0.4899902-0.5100098,0.7099609c-0.0499878,0.0499878-0.0700073,0.1699829-0.0599976,0.2300415
		c0.0200195,0.3799438-0.0900269,0.7599506-0.3900146,1.1399555c-0.0599976,0.0700073-0.0999756,0.1700439-0.1300049,0.25
		c-0.0799561,0.2700195-0.1699829,0.4200439-0.2999878,0.5c-0.0599976,0.0300293-0.1400146,0.0599976-0.2399902,0.0700073
		h-0.0700073l-0.0700073,0.1000366c0.0499878,0.0799561,0.1000366,0.1999512,0.1799927,0.25
		c0.0900269,0.0599976,0.0900269,0.1499634,0.0100098,0.289978c-0.1199951,0.2600098-0.289978,0.4299927-0.4599609,0.5200195
		c-0.1200562,0.1900024-0.210022,0.3299561-0.2600098,0.4799805c-0.0300293,0.0899658-0.0599976,0.1799927-0.0900269,0.2700195
		l-1.1400146,0.6599731c0-0.3200073,0.0100098-0.6400146,0.0100098-0.960022c0-0.0899658,0.0400391-0.2099609,0.0599976-0.3199463
		c0.0400391-0.1400146,0.0900269-0.2800293,0.0900269-0.4000244c0.0499878-0.8499756,0.0800171-1.6900024,0.1199951-2.5399799
		c0.0100098-0.2600098-0.0999756-0.3900146-0.2999878-0.3700562c-0.3400269,0.0200195-0.5499878-0.25-0.5599976-0.6699829
		c0-0.1599731-0.0200195-0.3399658-0.1000366-0.4199829c-0.3899536-0.3900146-0.289978-0.6300049,0.0499878-1.5
		c0.1400146-0.3400269,0.2800293-0.6400146,0.1800537-0.8800049c-0.4800415,0.0100098-1.0500488-0.0100098-1.1700439-0.1699829
		c-0.0299683-0.0400391-0.0799561-0.0900269-0.1399536-0.0700073c-0.210022,0.0499878-0.3700562-0.0100098-0.5100098-0.0900269
		c-0.0300293-0.0199585-0.0900269,0-0.1400146,0.0400391c-0.0700073,0.039978-0.0999756,0.0599976-0.1300049,0.0799561
		c-0.539978,0.3099976-1.1699829,0.1600342-1.3099976-0.3599854c-0.0800171-0.2999878-0.2299805-0.5-0.4099731-0.6799927
		c-0.0900269-0.0800171-0.1400146-0.2299805-0.2300415-0.3400269c-0.039978-0.0499878-0.1300049-0.0499878-0.2199707-0.0199585
		c0.1799927,0.3200073,0.3499756,0.6499634,0.5199585,0.9699707l-0.0699463,0.1199951
		c-0.0599976-0.0100098-0.1500244-0.0100098-0.1800537-0.0599976c-0.0899658-0.1300049-0.5599976-0.4299927-0.9799805-0.7099609
		c0.3300171-1.6799927,0.8699951-3.3900146,1.5900269-5.0599976c0.3499756-0.8200073,0.7600098-1.6500244,1.1900024-2.4500122
		l0.0799561-0.1400146c0.1100464-0.2000122,0.2200317-0.3900146,0.3300171-0.5800171
		c0.1500244-0.2600098,0.3200073-0.5299683,0.4700317-0.7799683l0.0999756-0.1600342l0.0499878-0.0799561
		c0.0400391-0.0599976,0.0800171-0.1300049,0.1300049-0.1900024l0.6199951-0.3600464
		c-0.1199951,0.3099976-0.3200073,0.5900269-0.5700073,0.8500366c-0.3999634,0.4099731-0.6599731,1.0700073-0.5799561,1.4400024
		l0.0499878,0.0999756c0.1099854-0.0199585,0.1199951,0.0499878,0.1300049,0.1500244
		c0.0100098,0.1799927,0.1199951,0.1599731,0.25,0.0800171c0.0499878-0.0300293,0.0599976-0.0400391,0.0799561-0.0500488
		c0.1100464-0.0599976,0.1900024-0.0700073,0.2300415,0.0599976c0.0199585,0.0500488,0.1599731,0.0200195,0.25-0.0299683
		c0.2299805-0.1199951,0.2600098-0.1099854,0.2399902,0.1699829c-0.0100098,0.289978,0.1900024,0.2200317,0.3800049,0.25
		c0.0199585-0.2700195,0.039978-0.4899902,0.0700073-0.7299805c0.0100098-0.1000366,0.0499878-0.210022,0.0999756-0.2999878
		c0.0900269-0.2000122,0.1600342-0.3699951,0.1099854-0.5300293c-0.0299683-0.0599976-0.0199585-0.1699829-0.0199585-0.25
		c0-0.1699829,0.0299683-0.3599854,0-0.5100098c-0.0200195-0.1300049,0.0299683-0.2099609,0.1300049-0.289978
		c0.0499878-0.0300293,0.0999756-0.0599976,0.1399536-0.0900269c0.1500244-0.0799561,0.2800293-0.1099854,0.4000244-0.039978
		c0.1199951,0.0800171,0.289978,0.0599976,0.4400024,0.0900269c-0.0100098,0.1599731-0.0300293,0.3399658-0.039978,0.5
		l0.0999756,0.0199585c0.0999756-0.2199707,0.1799927-0.4299927,0.2799683-0.6499634l0.0800171-0.0200195
		c0.1500244,0.5499878,0.4500122,0.8699951,1.0200195,0.9500122c-0.0700073,0.0700073-0.1400146,0.1399536-0.2000122,0.2099609
		c-0.2299805,0.3000488-0.460022,0.5900269-0.7000122,0.8800049c-0.289978,0.3600464-0.4500122,0.7300415-0.4199829,1.1100464
		c0.0100098,0.1299438-0.039978,0.2099609-0.1500244,0.2699585c-0.0499878,0.0400391-0.1099854,0.0800171-0.1699829,0.1300049
		c-0.1900024,0.1199951-0.289978,0.2800293-0.2600098,0.5100098c0.0200195,0.1300049-0.0199585,0.2299805-0.1599731,0.3300171
		c-0.2900391,0.1900024-0.4400024,0.4599609-0.4899902,0.8200073c-0.0500488,0.4400024-0.210022,0.8599854-0.5,1.2999878
		c-0.1000366,0.1599731-0.1600342,0.3800049-0.1799927,0.5499878c-0.0100098,0.25,0.039978,0.4699707,0.0499878,0.710022
		c0,0.0499878,0,0.1099854-0.0200195,0.1900024c-0.1500244-0.1200562-0.3900146-0.1000366-0.4099731-0.4100342
		c0-0.0800171-0.1000366-0.0899658-0.1700439-0.1099854c-0.0499878-0.0100098-0.1300049,0.039978-0.1900024,0.0499878
		c-0.039978,0-0.0799561,0.0100098-0.1099854,0.0300293c-0.0499878,0.0299683-0.0899658,0.0799561-0.1099854,0.1900024
		c-0.0200195,0.1099854-0.0499878,0.1599731-0.1000366,0.1799927c-0.039978,0.0199585-0.0799561,0.0199585-0.1299438,0.0100098
		c-0.0800171-0.0100098-0.1700439,0.0099487-0.25,0.0599976c-0.210022,0.1199951-0.4000244,0.3999634-0.4500122,0.6900024
		c-0.0700073,0.4799805-0.0900269,0.8999634,0.0100098,1.2699585c0.039978,0.1699829,0.1699829,0.2200317,0.2999878,0.1400146
		c0.0700073-0.039978,0.1499634-0.1099854,0.2199707-0.2200317c0.1199951-0.1699829,0.2200317-0.3799438,0.3400269-0.5899658
		c0.2799683-0.1199951,0.2799683-0.0900269,0.1799927,0.2700195c-0.0499878,0.1799927-0.0499878,0.3599854-0.039978,0.5199585
		h0.1799927c0.0299683-0.0299683,0.0599976-0.0599976,0.0899658-0.0700073c0.0900269-0.0599976,0.1400146,0,0.1600342,0.1000366
		c0.039978,0.1199951,0.0499878,0.2699585,0.0700073,0.4199829c0.0199585,0.2399902,0.4400024,0.1199951,0.8399658-0.039978
		c0.1199951-0.2200317,0.2600098-0.4100342,0.3800049-0.6100464c0.0700073-0.0999756,0.1500244-0.1799927,0.2299805-0.2199707
		c0.0900269-0.0499878,0.1800537-0.0700073,0.2600098-0.0499878c0.1000366,0.0199585,0.2200317,0.0199585,0.3400269-0.0499878
		c0.039978-0.0300293,0.0599976-0.0400391,0.0800171-0.0500488c0.3799438-0.2199707,0.7199707-0.1499634,0.8299561,0.2300415
		c0.0400391,0.1199951,0.0900269,0.1699829,0.1900024,0.1199951c0.0400391-0.0200195,0.0700073-0.0599976,0.1199951-0.1000366
		c0.0400391-0.039978,0.0700073-0.0599976,0.1100464-0.0899658c0.2199707-0.1300049,0.4599609-0.0400391,0.4899902,0.1900024
		c0.039978,0.3300171,0.1699829,0.4099731,0.4199829,0.2699585c0.039978-0.0299683,0.0900269-0.0599976,0.1400146-0.0999756
		c0.0199585-0.0200195,0.039978-0.0299683,0.0499878-0.039978c0.0599976-0.0300293,0.1199951-0.0499878,0.1799927-0.0599976
		c0.3800049-0.0599976,0.6699829,0.1099854,0.9700317,0.2399902C22.9531937,27.3469677,22.9632034,27.6369457,22.8532181,27.9369335
		z"/>
	<path class="st27" d="M25.0831985,13.3269491c0.0200195-0.2700195,0.0499878-0.5499878,0.0999756-0.8300171v-0.0100098
		l1.5-0.8599854c-0.0799561,0.2700195-0.1300049,0.5400391-0.1300049,0.7999878c0,0.2300415-0.039978,0.4900513-0.0999756,0.75
		c-0.0200195,0.0900269-0.1400146,0.2400513-0.210022,0.2900391c-0.039978,0.0199585-0.0999756-0.0800171-0.1399536-0.1300049
		c-0.1300049-0.1199951-0.25-0.25-0.4100342-0.3200073c-0.0700073,0.0300293-0.1799927,0.1900024-0.2600098,0.2700195
		c-0.0700073,0.0799561-0.1599731,0.2099609-0.2000122,0.2399902
		C25.1532059,13.5269613,25.0831985,13.4269247,25.0831985,13.3269491z"/>
	<path class="st27" d="M35.4032059,16.4669628c-0.1000366,0.2099609-0.210022,0.4199829-0.3099976,0.6300049l-0.1100464,0.2199707
		c-0.289978,0.2900391-0.2699585,0.5700073-0.2699585,0.8599854c-0.0200195,0.2000122,0,0.3900146-0.0599976,0.6100464
		c-0.0300293,0.1599731-0.1400146,0.3599854-0.25,0.4699707c-0.0700073,0.0800171-0.1400146,0.1400146-0.1900024,0.1699829
		c-0.1300049,0.0700073-0.1699829-0.039978-0.2000122-0.3099976c-0.0300293-0.5799561-0.1099854-1.1199951-0.3900146-1.4599609
		l-0.0799561-0.0800171c-0.3800049,0.0499878-0.460022-0.3400269-0.6000366-0.6400146
		c-0.0299683-0.0700073-0.1199951-0.0999756-0.1799927-0.0700073c-0.2199707,0.1000366-0.4500122,0.2400513-0.6699829,0.3400269
		c-0.1199951,0.0499878-0.2800293,0.1799927-0.3200073-0.0300293c-0.0100098-0.039978-0.1300049,0-0.2000122,0.0300293
		c-0.3099976,0.1599731-0.5499878,0.1599731-0.710022-0.1199951c-0.039978-0.0900269-0.2199707-0.0100098-0.3399658,0
		l-0.0599976,0.1300049c0.1300049,0.2699585,0.2299805,0.5800171,0.3999634,0.7999878
		c0.0599976,0.0800171,0.1300049,0.0999756,0.2000122,0.0599976c0.1000366-0.0599976,0.2200317-0.2399902,0.3699951-0.539978
		c0.0900269,0.0599976,0.1799927,0.1199951,0.2600098,0.1900024c0.1099854,0.1099854,0.1500244,0.2699585-0.0100098,0.5499878
		c-0.039978,0.0700073-0.0799561,0.1799927-0.0599976,0.2399902c0.0499878,0.3699951-0.1400146,0.6799927-0.3900146,0.9699707
		c-0.2099609,0.2300415-0.4399414,0.460022-0.6399536,0.6900024c-0.1400146,0.1600342-0.2800293,0.3400269-0.4700317,0.5800171
		c-0.1199951,0.0400391-0.2299805-0.0200195-0.2600098-0.25c0-0.0999756-0.0499878-0.1699829-0.0799561-0.2299805
		c-0.1199951-0.2600098-0.2300415-0.5200195-0.3600464-0.7700195c-0.039978-0.0800171-0.0999756-0.1300049-0.1599731-0.1900024
		l-0.039978-0.0499878c-0.0500488-0.0599976-0.1100464-0.1199951-0.1300049-0.210022
		c-0.0400391-0.1300049-0.0200195-0.2999878-0.0499878-0.4400024c-0.0300293-0.0999756-0.0800171-0.1799927-0.1500244-0.2399902
		c-0.039978-0.0199585-0.1300049,0.0400391-0.2000122,0.0499878c-0.0100098,0.1000366-0.039978,0.210022-0.0200195,0.2700195
		c0.0599976,0.2399902,0.1500244,0.4700317,0.2300415,0.7000122c0.0499878,0.1599731,0.0899658,0.3399658,0.1300049,0.5100098
		c0.0599976,0.1900024,0.1099854,0.3699951,0.1900024,0.5299683c0.1300049,0.2800293,0.3099976,0.5100098,0.4699707,0.7600098
		c0.1099854,0.1699829,0.2999878,0.1300049,0.5100098,0.0100098c0.0999756-0.0599976,0.210022-0.1400146,0.3099976-0.2200317
		c0.0300293-0.0199585,0.0499878-0.039978,0.0700073-0.0499878c0.0599976-0.0299683,0.1300049-0.0499878,0.1900024-0.0799561
		c-0.0100098,0.1199951-0.0200195,0.2399902-0.0599976,0.3699951c-0.0800171,0.2599487-0.1799927,0.5099487-0.25,0.7699585
		c-0.1600342,0.5599976-0.4100342,1.0900269-0.7600098,1.5500488c-0.3800049,0.4799805-0.5100098,0.8699951-0.4299927,1.3699951
		c0.039978,0.289978,0.0999756,0.5699463,0.1599731,0.8399658c0.1199951,0.4400024-0.0599976,1.210022-0.4099731,1.6900024
		c-0.2900391,0.3900146-0.4100342,0.7200317-0.4100342,1.1600342c0.0100098,0.3199463-0.1599731,0.7399902-0.2399902,1.1199951
		c-0.0499878,0.1699829-0.1099854,0.3399658-0.1400146,0.5099487c-0.0099487,0.0500488-0.0199585,0.1100464-0.039978,0.1600342
		l-1.8499756,1.0800171h-0.0100098c-0.1000366-0.2000122-0.210022-0.4100342-0.25-0.6799927
		c-0.0800171-0.5300293-0.210022-1.0300293-0.2700195-1.6100464c-0.0499878-0.5100098-0.0299683-1.0899658-0.0100098-1.6499634
		c0.0200195-0.5-0.2199707-0.6799927-0.3599854-0.9800415c-0.0999756-0.1900024-0.1699829-0.3299561-0.0499878-0.6699829
		c0.0800171-0.2000122,0.0499878-0.4400024,0.039978-0.6400146c0-0.0599976-0.1199951-0.0599976-0.1900024-0.0299683
		c-0.1300049,0.0499878-0.2199707,0.1199951-0.3099976,0.0100098c-0.0599976-0.0700073-0.1300049-0.0599976-0.2099609-0.0200195
		c-0.0900269,0.0599976-0.1900024,0.1599731-0.2800293,0.25c-0.25,0.25-0.5100098,0.5100098-0.7600098,0.6599731
		c-0.1399536,0.0700073-0.2799683,0.1199951-0.4199829,0.1199951c-0.3400269,0.0100098-0.7000122,0.0200195-0.8200073-0.4399414
		c-0.0200195-0.0800171-0.0899658-0.1300049-0.1499634-0.1800537c-0.2400513-0.1399536-0.3100586-0.4499512-0.2700195-0.8599854
		c0.039978-0.4199829,0.1699829-0.8800049,0.0299683-1.2099609c-0.0199585-0.0500488,0.0900269-0.2600098,0.1500244-0.3900146
		c0.0700073-0.1700439,0.1799927-0.3400269,0.2399902-0.5100098c0.0599976-0.2000122,0.0900269-0.4000244,0.2600098-0.5499878
		l0.0800171-0.1600342c-0.0300293-0.2600098,0.1199951-0.5,0.2399902-0.75l0.039978-0.1199951
		c0-0.3200073,0.1300049-0.4899902,0.3099976-0.5999756c0.0400391-0.0200195,0.0900269-0.0499878,0.1400146-0.0599976
		c0.039978-0.4000244,0.1699829-0.5900269,0.4400024-0.7999878c0.0700073-0.0599976,0.1300049-0.1200562,0.2000122-0.1800537
		c0.1099854-0.1099854,0.2199707-0.2299805,0.3399658-0.3399658l0.1100464-0.1300049
		c0.3599854-0.25,0.7299805-0.5100098,1.1499634-0.7999878c-0.0499878,0.2399902-0.0700073,0.4199829-0.1199951,0.5999756
		c-0.0800171,0.2700195-0.039978,0.2999878,0.1400146,0.2700195c0.2399902-0.0499878,0.4500122-0.0100098,0.6699829,0.0100098
		c0.0700073,0.0100098,0.1300049,0.0700073,0.2000122,0.0999756c0.039978,0,0.0800171,0,0.1099854-0.0200195
		c0.0400391-0.0299683,0.0700073-0.0899658,0.0800171-0.1999512c0.039978-0.2900391,0.0700073-0.4200439,0.1699829-0.4800415
		c0.0599976-0.0299683,0.1300049-0.039978,0.2399902-0.039978c0.3099976-0.0100098,0.6100464-0.1199951,0.9299927-0.2999878
		c0.1000366-0.0599976,0.2000122-0.1199951,0.3000488-0.2000122c0.1799927-0.1199951,0.2999878-0.289978,0.3699951-0.5300293
		c0.039978-0.2299805,0.0999756-0.4599609,0.1300049-0.6599731c0.0299683-0.2399902-0.0400391-0.2999878-0.2000122-0.210022
		c-0.0200195,0.0100098-0.0400391,0.0200195-0.0700073,0.0400391c-0.1799927,0.1300049-0.3599854,0.25-0.539978,0.3499756
		c-0.2000122,0.1199951-0.3000488,0.0200195-0.3300171-0.2000122c-0.0200195-0.1199951-0.0499878-0.2399902-0.1099854-0.3099976
		c-0.0400391-0.039978-0.1300049-0.0199585-0.2000122-0.0199585c-0.0300293,0.1099854-0.0900269,0.2299805-0.0800171,0.2999878
		c0.0300293,0.2699585-0.0800171,0.4599609-0.2700195,0.7099609c-0.0799561-0.2299805-0.1699829-0.4400024-0.2199707-0.6799927
		c-0.039978-0.2000122-0.1300049-0.2699585-0.3200073-0.1799927c-0.210022,0.1000366-0.3900146,0.1400146-0.4099731-0.1900024
		c-0.0100098-0.0499878-0.1100464-0.039978-0.1799927-0.0299683c0,0.3299561,0.1499634,0.4099731,0.3499756,0.4400024
		c0.1599731,0.0099487,0.1599731,0.1799927,0.1500244,0.3800049c-0.0200195,0.1900024-0.0400391,0.3799438-0.1800537,0.4799805
		c-0.0599976-0.1900024-0.0999756-0.3900146-0.1799927-0.5300293c-0.0499878-0.0799561-0.1699829-0.0899658-0.2399902-0.1099854
		l-0.1599731,0.0300293c-0.2399902-0.0200195-0.5200195,0.0599976-0.7800293,0.2099609L24.813179,17.376936
		c-0.1499634,0.3200073-0.289978,0.6300049-0.4299927,0.9299927c-0.1300049,0.2900391-0.2600098,0.5800171-0.2399902,0.8500366
		l-0.0599976,0.1599731c-0.1000366-0.0599976-0.2000122-0.0700073-0.289978-0.0100098
		c-0.0700073,0.0400391-0.1400146,0.1000366-0.2000122,0.1900024c-0.1300049,0-0.2399902-0.0100098-0.3699951-0.0199585
		c0.0199585-0.1799927,0.039978-0.4000244,0.0599976-0.6100464c0.0100098-0.0899658,0.039978-0.2099609,0.0100098-0.2699585
		c-0.0700073-0.1700439-0.0200195-0.2900391,0.1199951-0.3800049l0.0599976-0.0300293
		c0.0999756-0.0599976,0.1599731-0.0999756,0.2199707-0.1499634c0.3599854-0.2600098,0.3900146-0.3500366,0.4000244-0.8099976
		c0.0100098-0.1799927,0-0.3200073-0.1000366-0.4200439c-0.1199951-0.0799561-0.0299683-0.2799683,0.1400146-0.3999634
		c0.0900269-0.0700073,0.1900024-0.1799927,0.2600098-0.2999878c0.1799927-0.3300161,0.3599854-0.6800528,0.5200195-1.0300283
		c0.0799561-0.1599731,0.1699829-0.2600098,0.2699585-0.3099976c0.0300293-0.0200195,0.0599976-0.0300293,0.0800171-0.039978
		c0.0300293-0.0100098,0.0499878-0.0200195,0.0700073-0.0400391c0.1400146-0.0799561,0.210022-0.2299805,0.210022-0.4299927
		c-0.0100098-0.1900024,0-0.3999634,0.0299683-0.6499634c0.0599976,0.0499878,0.1099854,0.1099854,0.1599731,0.1699829
		c0.1700439,0.1699829,0.4500122,0.1499634,0.7200317-0.0100098c0.2399902-0.1400146,0.4799805-0.3800049,0.6500244-0.6799927
		c0.1699829-0.2800293,0.5999756-1.039978,0.5999756-1.039978c-0.2476654-0.2094412-0.6099854-0.4500122-0.5499878-0.6900024
		l4.2399902-2.4500122c2.58358,1.5504637,3.7383766,4.2923117,3.960022,6.9500122
		C35.3831863,16.0669384,35.3931961,16.2669506,35.4032059,16.4669628z"/>
	<path class="st35" d="M44.160759,20.0369701c-0.5300293,6.0799561-2.8500366,11.4199829-6.4400024,15.6499653
		c-0.9900513-0.0899658-1.8699951-0.3699951-2.6300049-0.8099976l-1.4200439-0.8200073
		c-2.2299786-1.289978-3.4799786-4.0000019-3.7299786-7.4599628c2.2700176-2.0700073,4.3499737-4.6500244,6.2999859-7.5900269
		c2.0499878,0.6000366,4.1500244,0.8900146,6.4800415,0.210022L44.160759,20.0369701z"/>
	<path class="st16" d="M37.6768608,19.8290443l-1.4355164-0.8191681c2.0525475,0.5981903,4.1513634,0.8897762,6.4831619,0.2116776
		l1.4355011,0.8191795C41.8282166,20.7188263,39.7294006,20.4272404,37.6768608,19.8290443z"/>
	<path class="st16" d="M35.1045227,34.8781738l-1.4355164-0.8191719c-2.2315693-1.2968521-3.4734287-4.0050926-3.7236843-7.4593849
		l1.4355049,0.8191776C31.6310883,30.8730831,32.8729477,33.5813217,35.1045227,34.8781738z"/>
	<path class="st35" d="M31.3808327,27.4187908l-1.4355145-0.8191643c2.2649899-2.0706501,4.343874-4.6523514,6.2960339-7.589756
		l1.4355011,0.8191833C35.7247047,22.7664471,33.6458168,25.3481483,31.3808327,27.4187908z"/>
	<path class="st6" d="M37.6768608,19.8290443c2.0525398,0.598196,4.1513557,0.889782,6.4831543,0.2116814
		c-0.5249634,6.0726166-2.8513794,11.420166-6.4382019,15.6444283c-3.8905258-0.3496437-6.0056992-3.6384354-6.3409805-8.2663631
		C33.6458168,25.3481483,35.7247047,22.7664471,37.6768608,19.8290443z"/>
	<path class="st5" d="M37.7013855,21.9071693c1.5145226,0.4413948,3.0631905,0.6565495,4.7837715,0.1561947
		c-0.3873596,4.4808445-2.1039696,8.4266796-4.7506027,11.5436649c-2.8707314-0.2579956-4.4314651-2.6847191-4.6788635-6.0995598
		C34.7269707,25.9795895,36.2609329,24.0746117,37.7013855,21.9071693z"/>
	<path class="st24" d="M38.6907272,27.4269238l0.4000244,1.9400024l-2.6199951,1.5100098
		c0.0159683-0.1004219,0.3959961-2.4904346,0.3800049-2.3900146c-0.3600464-0.0999756-0.5900269-0.4699707-0.6000366-1.0299683
		c0-0.9700317,0.6799927-2.1300049,1.5200195-2.6099854c0.1900024-0.1100464,0.3800049-0.1799927,0.5499878-0.2000122h0.0999756
		c0.5100098-0.0100098,0.8600464,0.3699951,0.8600464,1.0700073C39.2807541,26.2669506,39.0507126,26.9069653,38.6907272,27.4269238
		z"/>
	<path class="st11" d="M38.6900826,27.427866c0.3610229-0.5219975,0.595192-1.1562557,0.595192-1.7124081
		c-0.0048828-0.6976833-0.3561401-1.0830917-0.8635445-1.0733261c-0.0341263,0-0.0682793,0.0048847-0.1024361,0.009737
		c0.1658592,0.180542,0.2585564,0.4586029,0.263443,0.8196526c0,0.5561523-0.2292862,1.1904106-0.5903397,1.7124081
		L38.3876038,29.1208l-0.0010719,0.0005951l0.7031326,0.2411079L38.6900826,27.427866z"/>
	<polygon class="st11" points="38.3865318,29.1213951 36.5824699,30.1599712 36.5287819,30.5014877 36.4702377,30.8722477 
		39.0901108,29.3647366 39.0896645,29.3625031 	"/>
	<path class="st24" d="M37.9923973,27.1839294c0.3610535-0.5219975,0.5903397-1.1562557,0.5903397-1.7124081
		c-0.0048866-0.3610497-0.0975838-0.6391106-0.263443-0.8196526c-0.1707726,0.0195351-0.3610191,0.0878448-0.5512962,0.1951618
		c-0.8342743,0.4829884-1.5124245,1.6441288-1.5124245,2.6101074c0.0048828,0.5610657,0.2390823,0.9269695,0.5952187,1.034317
		l-0.268322,1.6685162L38.3876038,29.1208L37.9923973,27.1839294z"/>
	<path class="st5" d="M9.8700972,20.0451584c-0.9852972,0-1.7825031,0.7972069-1.7825031,1.7825031
		c0-0.4917889-0.20016-0.9387035-0.521111-1.2613811c-0.3226886-0.320961-0.7696018-0.521122-1.2613816-0.521122
		c0.4917798,0,0.938693-0.2001591,1.2613816-0.5211201c0.320951-0.3226795,0.521111-0.7695923,0.521111-1.2613716
		c0,0.4917793,0.2001705,0.9386921,0.521121,1.2613716C8.9313936,19.8449993,9.3783178,20.0451584,9.8700972,20.0451584z"/>
</g>
</svg>
