<?xml version="1.0" encoding="utf-8"?>
<!-- Generator: Adobe Illustrator 22.0.0, SVG Export Plug-In . SVG Version: 6.00 Build 0)  -->
<svg version="1.1" id="Layer_1" xmlns="http://www.w3.org/2000/svg" xmlns:xlink="http://www.w3.org/1999/xlink" x="0px" y="0px"
	 viewBox="0 0 50 50" style="enable-background:new 0 0 50 50;" xml:space="preserve">
<style type="text/css">
	.st0{fill:#9EA9C9;}
	.st1{fill:#B0B8CF;}
	.st2{fill:#C9CEE2;}
	.st3{fill:#E3E7F0;}
	.st4{fill:#F45170;}
	.st5{fill:#FFFFFF;}
	.st6{fill:#57B3FE;}
	.st7{fill:#E8E6FB;}
	.st8{fill:#DEDFFB;}
	.st9{fill:#F3F1FC;}
	.st10{fill:#1D2943;}
	.st11{fill:#4C5C75;}
	.st12{fill:#F9A83D;}
	.st13{fill:#FFD06C;}
	.st14{fill:#FFDE9B;}
	.st15{fill:#FEBC1F;}
	.st16{fill:#5094FF;}
	.st17{fill:#F8CA2F;}
	.st18{fill:#E93565;}
	.st19{fill:#DF3260;}
	.st20{opacity:0.8;fill:#F45170;}
	.st21{opacity:0.5;}
	.st22{enable-background:new    ;}
	.st23{fill:#DBA660;}
	.st24{fill:#111D33;}
	.st25{fill:none;}
	.st26{fill:#F8F9FE;}
	.st27{fill:#E9E7FC;}
	.st28{fill:#EDEEF2;}
	.st29{fill:#DEDFFA;}
	.st30{fill:#0F1522;}
	.st31{fill:#78E75A;}
	.st32{fill:#72D561;}
	.st33{fill:#986FF9;}
	.st34{fill:#B28AFD;}
	.st35{fill:#497BFE;}
	.st36{fill:#7E5AF2;}
	.st37{fill:#3B3E3F;}
	.st38{fill:#FEFEFE;}
	.st39{fill:#BF7D5A;}
	.st40{fill:#F4D6D4;}
	.st41{fill:#F5C9C6;}
	.st42{fill:#5EC363;}
	.st43{fill:#FFD475;}
	.st44{fill:#FFDD95;}
	.st45{fill:#FFB961;}
	.st46{fill:#DADCF7;}
	.st47{fill:#AA6256;}
	.st48{fill:#8A4852;}
	.st49{fill:#CED1F2;}
	.st50{fill:#3979EA;}
	.st51{fill:#29313F;}
	.st52{fill:#3B475A;}
	.st53{fill:#414F65;}
	.st54{opacity:0.2;fill:#57B3FE;}
	.st55{fill:#50B069;}
	.st56{fill:#C8C7D9;}
	.st57{fill:#822B3C;}
	.st58{fill:#D24660;}
	.st59{fill:#7D7B87;}
	.st60{fill:#B4B3C3;}
	.st61{fill:#BD3F57;}
	.st62{fill:#CFCEEA;}
	.st63{opacity:0.7;fill:#57B3FE;}
</style>
<g id="_x31_00">
	<g>
		<path class="st0" d="M34.2310791,23.5700665c0.0100098,3.7200317-2.6099854,8.2600098-5.8499756,10.1400127
			c-3.25,1.8699951-5.8900146,0.3699951-5.9000244-3.3599834c-0.0099487-3.7400513,2.6100464-8.2800293,5.8600464-10.1600342
			C31.5811157,18.3200665,34.2211304,19.8300762,34.2310791,23.5700665z"/>
		<path class="st0" d="M34.2310791,23.5700665c0.0100098,3.7200317-2.6099854,8.2600098-5.8499756,10.1400127
			c-3.25,1.8699951-5.8900146,0.3699951-5.9000244-3.3599834c-0.0099487-3.7400513,2.6100464-8.2800293,5.8600464-10.1600342
			C31.5811157,18.3200665,34.2211304,19.8300762,34.2310791,23.5700665z"/>
		<g>
			<path class="st0" d="M34.2310791,23.5700665c0.0100098,3.7200317-2.6099854,8.2600098-5.8499756,10.1400127
				c-3.25,1.8699951-5.8900146,0.3699951-5.9000244-3.3599834c-0.0099487-3.7400513,2.6100464-8.2800293,5.8600464-10.1600342
				C31.5811157,18.3200665,34.2211304,19.8300762,34.2310791,23.5700665z"/>
		</g>
		<g>
			<path class="st0" d="M42.5911255,8.4300508l-4.25-2.4699702c-0.0500488-0.3200073-0.0900269-0.6799927-0.1100464-1.0599976
				l-6.7099609-3.9000244c-7.1001472,2.8483939-13.9268589,6.9284267-19.8400269,11.460022v0.0100098
				c-0.0199585,3.7600107-1.3200073,6.6300058-4.25,8.4899912c-0.7000122,14.2399883,2.0700073,20.3200054,6.2000122,22.7199688
				l6.710021,3.9000244c2.3899536,1.3800049,5.2299805,1.5499878,8.1300049,1.3499756
				C38.7510986,38.2800865,43.3811035,26.8700542,42.5911255,8.4300508z M28.3811035,33.7100792
				c-3.25,1.8699951-5.8900146,0.3699951-5.9000244-3.3599834c-0.0099487-3.7400513,2.6100464-8.2800293,5.8600464-10.1600342
				c3.2399902-1.8699951,5.8800049-0.3599854,5.8899536,3.3800049
				C34.2410889,27.2900982,31.6210938,31.8300762,28.3811035,33.7100792z"/>
			<path class="st0" d="M34.2310791,23.5700665c0.0100098,3.7200317-2.6099854,8.2600098-5.8499756,10.1400127
				c-3.25,1.8699951-5.8900146,0.3699951-5.9000244-3.3599834c-0.0099487-3.7400513,2.6100464-8.2800293,5.8600464-10.1600342
				C31.5811157,18.3200665,34.2211304,19.8300762,34.2310791,23.5700665z"/>
		</g>
		<g>
			<g>
				<path class="st0" d="M31.7128792,23.8002148l-3.9299927,6.8099976
					c-0.1199951,0.2000122-0.2700195,0.3600464-0.4200439,0.4500122c-0.2212906,0.1106453-0.3356342,0.0921288-0.4599609,0.0300293
					l-1.8900146-1.0800171c-0.2989712-0.1493721-0.2037201-0.6714878-0.0200195-0.9899902
					c0.1698895-0.2933273,0.5909557-0.6586266,0.8800049-0.4899902l1.4400024,0.8299561l3.5-6.0699463
					c0.1715641-0.2963829,0.6005077-0.6662788,0.8800049-0.4800415
					C31.9702168,22.9335785,31.9215698,23.4611015,31.7128792,23.8002148z"/>
			</g>
		</g>
	</g>
	<path class="st0" d="M20.3399963,47.5767899l-6.7072992-3.8970146c-4.1359606-2.4035873-6.904511-8.4794426-6.203701-22.7189865
		l6.7072582,3.8970604C13.4354668,39.0973663,16.2040176,45.1732216,20.3399963,47.5767899z"/>
	<path class="st1" d="M14.1362772,24.8578205l-6.707304-3.8970222c2.9307909-1.8562965,4.2347221-4.743906,4.2500648-8.499649
		l6.7072687,3.8970604C18.3709755,20.113924,17.0670452,23.0015354,14.1362772,24.8578205z"/>
	<path class="st2" d="M38.230072,4.9021654c-6.8995495,2.7680411-13.6776562,6.7324371-19.8471298,11.4573774l-6.7098532-3.9021654
		C17.65382,7.8773942,24.5057392,3.8144555,31.5203438,1L38.230072,4.9021654z"/>
	<path class="st3" d="M38.230526,4.9011235c0.2051697,3.6284289,1.5859718,4.9361434,4.3621101,3.52741
		c0.7927856,18.4411144-3.8387794,29.8480587-14.1236687,40.5032806
		c-7.9101677,0.5363884-15.4382219-1.6110344-14.3326902-24.0739956c2.930768-1.8562851,4.2346983-4.7438965,4.250041-8.4996376
		C24.5307922,11.6621017,31.1408329,7.7553964,38.230526,4.9011235z"/>
	<path class="st4" d="M36.9267082,6.9338174c0.5690689,3.6870151,2.5576935,4.0167394,4.2711639,3.535069
		c0.473896,15.9381933-3.1472359,26.3138885-12.7060547,36.4604225
		c-6.7674618,0.3542824-13.6707859-1.3924255-12.9745855-21.6038322c1.7884398-1.5251751,3.8336115-4.168932,4.250001-8.5144978
		C25.1904087,12.7961521,30.8792648,9.4793949,36.9267082,6.9338174z"/>
	<g>
		<path class="st5" d="M34.830265,10.4500704c0.8771095,2.2947388,2.3927879,3.0510588,3.8396683,3.1545639
			c0.0906601,13.0914106-2.7786179,21.5046654-10.1619015,29.8458977
			c-5.5316772,0.0386391-10.5737534-2.0369835-10.4712238-17.8409843c1.8421078-2.2179394,3.1739635-4.8799534,3.8891716-7.739975
			C26.0492554,14.9958267,30.1450424,12.5809793,34.830265,10.4500704z"/>
	</g>
	<g>
		<path class="st6" d="M28.3383026,20.1922493c3.2401981-1.8707294,5.8809547-0.3658428,5.8915596,3.3750877
			c0.0105553,3.7232342-2.6130505,8.2675037-5.8532486,10.1382332c-3.2478981,1.8751755-5.8886414,0.3702812-5.8991966-3.3529568
			C22.4668121,26.6116848,25.0904064,22.0674248,28.3383026,20.1922493z"/>
	</g>
	<g>
		<g>
			<path class="st5" d="M31.7128792,23.8002148l-3.9299927,6.8099976c-0.1199951,0.2000122-0.2700195,0.3600464-0.4200439,0.4500122
				c-0.2212906,0.1106453-0.3356342,0.0921288-0.4599609,0.0300293l-1.8900146-1.0800171
				c-0.2989712-0.1493721-0.2037201-0.6714878-0.0200195-0.9899902c0.1698895-0.2933273,0.5909557-0.6586266,0.8800049-0.4899902
				l1.4400024,0.8299561l3.5-6.0699463c0.1715641-0.2963829,0.6005077-0.6662788,0.8800049-0.4800415
				C31.9702168,22.9335785,31.9215698,23.4611015,31.7128792,23.8002148z"/>
		</g>
	</g>
</g>
</svg>
