<?xml version="1.0" encoding="utf-8"?>
<!-- Generator: Adobe Illustrator 22.0.1, SVG Export Plug-In . SVG Version: 6.00 Build 0)  -->
<svg version="1.1" id="Layer_1" xmlns="http://www.w3.org/2000/svg" xmlns:xlink="http://www.w3.org/1999/xlink" x="0px" y="0px"
	 viewBox="0 0 52 52" style="enable-background:new 0 0 52 52;" xml:space="preserve">
<style type="text/css">
	.st0{enable-background:new    ;}
	.st1{fill:#1D2943;}
	.st2{fill:#4C5C75;}
	.st3{fill:#F3F1FC;}
	.st4{fill:#E9E7FC;}
	.st5{fill:#FFFFFF;}
	.st6{fill:#9EA9C9;}
	.st7{fill:#C9CEE2;}
	.st8{fill:#986FF9;}
	.st9{fill:#7E5AF2;}
	.st10{fill:#B28AFD;}
	.st11{fill:#111D33;}
	.st12{fill:#E93565;}
	.st13{fill:#F45170;}
	.st14{fill:#F9A83D;}
	.st15{fill:#FEBC1F;}
	.st16{fill:#DEDFFB;}
	.st17{fill:#78E75A;}
	.st18{fill:#EF7B56;}
	.st19{fill:#FFD06C;}
	.st20{fill:#CC104A;}
	.st21{fill:#EDEEF2;}
	.st22{fill:#57B3FE;}
	.st23{fill:#DF3260;}
	.st24{fill:#438AC4;}
	.st25{fill:#F4D6D4;}
	.st26{fill:#F5C9C6;}
	.st27{fill:#E3E7F0;}
	.st28{fill:#5EC363;}
	.st29{fill:#72D561;}
	.st30{fill:#50B069;}
	.st31{fill:#B0B8CF;}
	.st32{opacity:0.7;}
	.st33{opacity:0.15;}
	.st34{fill:#F8F9FE;}
	.st35{fill:#DEDFFA;}
	.st36{fill:#FFDE9B;}
	.st37{opacity:0.3;}
	.st38{opacity:0.4;}
	.st39{fill:#DBA660;}
	.st40{fill:#497BFE;}
	.st41{fill:#5094FF;}
	.st42{fill:#C3C7CF;}
	.st43{fill:#BF7D5A;}
	.st44{fill:#748BFD;}
	.st45{fill:#678AEE;}
	.st46{fill:#8FABFE;}
	.st47{fill:#423D9B;}
	.st48{opacity:0.5;}
	.st49{fill:#2D2C2B;}
	.st50{fill:#C8CBED;}
	.st51{fill:#566DF9;}
	.st52{fill:#AA6256;}
	.st53{fill:#BABDE8;}
	.st54{fill:#BDC0E5;}
	.st55{fill:none;}
	.st56{fill:#FEFEFE;}
	.st57{fill:#773925;}
	.st58{fill:#6D4EEA;}
	.st59{fill:#3970EA;}
	.st60{fill:#BFC0D8;}
	.st61{fill:#356EED;}
	.st62{opacity:5.000000e-02;}
	.st63{opacity:0.25;}
	.st64{fill:#C69C6C;}
	.st65{fill:#795E14;}
	.st66{fill:#8A4852;}
	.st67{fill:#51383C;}
	.st68{opacity:0.6;}
	.st69{fill:#19233A;}
	.st70{fill:#C8C7D9;}
	.st71{fill:#822B3C;}
	.st72{fill:#D24660;}
	.st73{fill:#7D7B87;}
	.st74{fill:#B4B3C3;}
	.st75{fill:#BD3F57;}
	.st76{fill:#1A253D;}
	.st77{fill:#ADB2C3;}
	.st78{fill:#3F3F3F;}
</style>
<g id="_x36_8">
	<g>
		<g>
			<g>
				<g>
					<g>
						<g>
							<g>
								<g>
									<path class="st4" d="M13.8,46.8c-3.2-1.8-4.9-5.6-4.9-10.7C8.8,25.8,16.1,13.2,25,8l0,0c4.5-2.6,8.7-3,11.9-1.1
										c3.2,1.8,4.9,5.6,4.9,10.7C41.9,34.1,24.3,52.8,13.8,46.8z M32.5,6.7c-2.1,0-4.5,0.7-7,2.1l0,0c-8.7,5-15.8,17.3-15.8,27.3
										c0,4.7,1.6,8.2,4.5,9.9c9.7,5.6,26.7-12.4,26.7-28.4c0-4.7-1.6-8.2-4.5-9.9C35.3,7,33.9,6.7,32.5,6.7z"/>
								</g>
							</g>
						</g>
					</g>
				</g>
				<g>
					<g>
						<g>
							<g>
								<g>
									<path class="st51" d="M31.1,43c-2.9,1.2-6.1,1.7-9,1.3c-1.3-0.8-2.6-1.8-3.8-3C22.4,43.6,26.9,44,31.1,43z"/>
								</g>
							</g>
						</g>
						<g>
							<g>
								<g>
									<path class="st51" d="M19.8,8.1c-0.4,0.1-0.8,0.3-1.1,0.5c-6,3-10.2,9.3-10.2,16.5c0,2,0.3,3.9,0.9,5.7
										c0.2,0.6,0.4,1.2,0.6,1.7c-0.2,1.2-0.3,2.4-0.3,3.6c0,0.6,0,1.2,0.1,1.7c-0.4-0.4-0.7-0.9-1-1.3c-2-3-3.2-6.5-3.2-10.4
										c0-2.6,0.6-5.2,1.6-7.4c1.7-3.9,4.8-7.1,8.6-9.1C17,8.9,18.4,8.4,19.8,8.1z"/>
								</g>
							</g>
						</g>
						<g>
							<g>
								<g>
									<path class="st51" d="M42.4,26c0,1.3-0.1,2.5-0.4,3.7c-0.9,4.5-3.4,8.3-6.9,11c-1.2,1-2.6,1.7-4.1,2.3
										C19.1,48.1,5.6,39.2,5.6,26c0-2.6,0.5-5.2,1.5-7.4c1.7-3.9,4.8-7.1,8.6-9c1.3-0.6,2.6-1.1,4-1.4c1.4-0.3,2.8-0.5,4.3-0.5
										c2.3,0,4.5,0.4,6.5,1.2c1.8,0.7,3.5,1.6,4.9,2.8C39.7,15,42.4,20.2,42.4,26z"/>
								</g>
							</g>
						</g>
						<g>
							<g>
								<g>
									<path class="st51" d="M31.1,43c-12,5-25.5-3.8-25.5-17c0-2.6,0.6-5.2,1.6-7.4c1.7-3.9,4.8-7.1,8.6-9c1.3-0.6,2.6-1.1,4-1.4
										c-0.4,0.2-0.8,0.3-1.1,0.5c-6.2,3.1-10.2,9.5-10.2,16.5C8.5,37,19.6,45.8,31.1,43z"/>
								</g>
							</g>
						</g>
						<g>
							<g>
								<g>
									<path class="st45" d="M42.4,26c0,1.3-0.1,2.5-0.4,3.7c-0.9,4.5-3.4,8.3-6.9,11c-1.2,0.9-2.6,1.7-4,2.3
										C19.6,45.8,8.5,37,8.5,25.1c0-7,3.9-13.3,10.2-16.5c0.4-0.2,0.7-0.4,1.1-0.5c1.4-0.3,2.8-0.5,4.3-0.5
										c2.3,0,4.5,0.4,6.5,1.2c1.8,0.7,3.5,1.6,4.9,2.8C39.7,15,42.4,20.2,42.4,26z"/>
								</g>
							</g>
						</g>
						<g>
							<g>
								<g>
									<path class="st17" d="M15.4,25.5c0.3-0.3,0.5-0.7,0.8-0.8c0.6-0.3,1.2,0.3,1.9,0.2c0.3,0,0.7-0.3,1-0.1
										c0.3,0.2,0.3,0.5,0.4,0.8c0.1,0.4,0.5,0.7,0.9,0.8c0.2,0,0.4,0,0.6,0.1c0.3,0.2,0.3,0.7,0.6,1c0.7,0.7,3.5,0.1,3.2,2.1
										c-0.1,0.8-0.7,1.2-0.9,1.6c-0.2,0.6,0.3,1.3-0.2,1.7C23.5,33,23.2,33,23,33c-0.2,0-0.5,0.1-0.6,0.2
										c-0.9,0.8-0.8,3.1-2.4,3.8c-0.2,0.1-0.2,0.1-0.3,0.3c-0.4,0.9-0.3,1.4-0.2,1.5c0.1,1,0.9,1.7,0.9,1.9
										c0,0.1-0.2,0.3-0.3,0.2c-0.4,0-1.3-0.9-1.6-1.3c-0.6-0.8-0.8-1.8-1-2.8c-0.2-1.3-0.3-2.7-0.3-4c0-1-0.5-1-1.2-1.3
										c-0.2-0.1-0.2-0.3-0.3-0.4c0-0.3-0.4-0.6-0.6-0.9c-0.4-0.5-0.7-1.1-0.9-1.7c-0.1-0.2-0.1-0.4-0.1-0.6
										c0-0.1,0.1-0.2,0.1-0.3c0.5-0.9,0.9-0.9,0.9-1.3C15.3,26.1,15.1,25.7,15.4,25.5z"/>
								</g>
							</g>
						</g>
						<g>
							<g>
								<g>
									<path class="st17" d="M30.6,8.8c0,0.6-0.3,1.1-0.7,1.5c-0.2,0.1-0.4,0.2-0.5,0.4c-0.1,0.1-0.1,0.3-0.2,0.5
										c-0.1,0.2-0.4,0.2-0.6,0.3c-2.3,0.4-3,1.7-3.7,1.9c-0.3,0.1-0.7,0.1-0.9-0.2c-0.2-0.4-0.1-1.4,0-1.9c0.1-0.3,0.2-0.7,0-1
										c-0.1-0.2-0.2-0.3-0.4-0.4c-0.5-0.3-1.2-0.4-1.8-0.3c-0.2,0-0.4,0.1-0.5,0.3c-0.2,0.3,0,0.8,0.3,1.1c0.3,0.3,0.6,0.6,0.6,1
										c-0.4,0.3-0.7,0.6-1,1c0.5,1,1,2,1.5,3c-0.5,0.2-0.6,1-1.1,1.1c-0.3,0-0.6-0.2-1-0.2c-0.3,0-0.5,0.2-0.7,0.4
										c-0.2,0.2-0.6,0.2-0.8,0.1c-0.1-0.1-0.1-0.2-0.2-0.2c-0.1-0.1-0.3,0-0.4,0.2c-0.1,0.1-0.1,0.3-0.2,0.4
										c-0.3,0.6-1.3,0.6-1.5,1.2c-0.1,0.2,0,0.4-0.1,0.5c-0.2,0.3-0.7,0.2-1,0.4c-0.4,0.3-0.3,0.9-0.2,1.3
										c-0.4,0.3-1.1-0.1-1-0.6c-1-0.1-2.2-0.2-2.8,0.6c-0.5,0.6-0.3,1.7,0.4,2.1c0.2-0.3,0.3-0.5,0.6-0.7
										c0.2-0.2,0.6-0.3,0.9-0.1c-0.4,0.5-0.1,1.4,0.6,1.5c0.1-0.1,0.2-0.2,0.3-0.2c0,0.4,0,0.8-0.1,1.2c0.3,0.1,0.6,0.2,0.9,0.2
										c0.2,0.2,0,0.6-0.3,0.7c-0.4,0-0.6-0.2-2.5-1.7c-0.4-0.3-0.6-0.3-1-0.3c-0.8,0.1-1.8-0.1-2.1-0.9c-0.1-0.2,0-0.5-0.1-0.7
										c0-0.7-0.3-1.4-0.7-1.9c-0.2,0.7-0.3,1.6-0.1,2.3C8,22.3,8,21.7,7.9,21.2c-0.2-0.9-0.4-1.8-0.7-2.6c2.9-6.5,9.3-11,16.9-11
										C26.3,7.6,28.5,8,30.6,8.8z"/>
								</g>
							</g>
						</g>
						<g>
							<g>
								<g>
									<path class="st17" d="M14.7,22.3c0,0-0.1,0-0.1,0.1c0,0,0,0,0,0.1c0,0.1-0.3,0.1-0.4,0.1c-0.3,0,0-0.3,0.2-0.5
										c0.4-0.2,0.9,0,1.3,0.1c0.2,0.1,0.4,0.2,0.6,0.3c0.1,0.1,0.2,0.2,0.3,0.3c0.3,0.1,0.4,0,0.6,0.1c0.3,0.1,0.6,0.5,0.3,0.6
										c-0.6,0.3-0.8,0.2-1.1,0c-0.1-0.1-0.4-0.2-0.3-0.3c0-0.1,0.1-0.1,0.2-0.1c0.2,0,0.2-0.3-0.3-0.2c-0.5,0.1-0.5,0-0.6-0.2
										c-0.1-0.2-0.4-0.1-0.5-0.3C14.8,22.3,14.7,22.3,14.7,22.3c0,0-0.1,0-0.1,0"/>
								</g>
							</g>
						</g>
						<g>
							<g>
								<g>
									<path class="st17" d="M42.5,26c0,1.3-0.1,2.5-0.4,3.7c-0.3,0.3-0.4,0.7-0.5,1.1c-0.2,0.5-0.3,1.1-0.8,1.5
										c-0.1,0.1-0.3,0.2-0.4,0.3c-0.1,0.1-0.2,0.2-0.3,0.4c-0.2,0.3-0.6,0.5-0.8,0.9c-0.2,0.3-0.2,0.8-0.2,1.2
										c0,0.3-0.1,0.7-0.2,1c-0.1,0.2-0.1,0.5-0.3,0.6c-0.2,0.2-0.5,0.2-0.8,0.1c-0.5-0.1-0.9-0.2-1.3-0.4
										c-0.3-0.2-0.4-0.5-0.6-0.7c-0.2-0.2-0.3-0.5-0.5-0.7c-0.2-0.4-0.2-0.8-0.5-2.1c-0.3-1.5,0.7-1.3-0.5-3.3
										c-0.4-0.7-0.6-1.1-0.2-2.8c-0.6-0.6-0.6-0.5-2.8-0.2c-1.3,0.2-1.6-0.1-2.1-0.6c-0.6-0.6-0.7-0.9-0.9-1.7
										c-0.1-0.4-0.2-0.7-0.2-1.1c0-0.8,0.3-1.5,0.9-2c0.3-0.3,0.7-0.5,0.9-0.9c0.1-0.3,0.1-0.5,0.8-0.9c0-0.2,0.5-0.2,0.2-0.4
										c-0.4-0.3-1,0-0.9-0.9c0.3-1.2,1.2-0.7,2-1c0-0.3-0.2-0.6-0.4-0.9c-0.4-0.3,0-0.4-0.1-0.6c0-0.1-0.2-0.2-0.3-0.2
										c-0.2,0-0.9,0.5-0.8-0.3c0-0.2,0-0.4,0.2-0.5c0.1-0.1,0.2-0.1,0.2-0.1c0.2-0.2,0.2-0.5,0.4-0.6c0.1-0.1,0.3-0.1,0.4-0.1
										c0.1,0,0.2,0,0.3,0.1c0.1,0.1,0.2,0.2,0.2,0.3c0,0.1-0.1,0.2,0,0.3c0,0.1,0.1,0.1,0.2,0.1c0.1,0.1,0,0.2,0,0.3
										c0,0.3,0.3,0.5,0.6,0.4c0.3-0.1,0.5-0.3,0.7-0.4c0.1-0.1,0.2-0.2,0.2-0.3c0-0.1,0-0.2,0-0.2c0.1-0.2,0.2-0.4,0.4-0.5
										c-0.2-0.3-0.8,0-1.1-0.3c0.1-0.2,0.1-0.3,0.2-0.5c0-0.1,0-0.1,0.1-0.2c0-0.1,0.1-0.1,0.2-0.2c0.2-0.2,0.4-0.4,0.6-0.6
										c0.1-0.1,0.3-0.2,0.4-0.3c0.2-0.1,0.4-0.1,0.6-0.2C39.7,15,42.5,20.2,42.5,26z"/>
								</g>
							</g>
						</g>
						<g>
							<g>
								<g>
									<path class="st17" d="M39,35.5c0,0.2-0.1,0.4-0.1,0.6c-0.1,0.2-0.1,0.5-0.3,0.6c-0.2,0.2-0.5,0.2-0.8,0.1
										c-0.4,0-0.7-0.1-1.1-0.3C37.5,36.2,38.3,35.9,39,35.5z"/>
								</g>
							</g>
						</g>
						<g>
							<g>
								<g>
									<path class="st29" d="M38.2,18.9c-0.1-0.2-0.1-0.3-0.4-0.3c-1.5,0-1.5-0.6-1.6-0.7c0,0-0.1-0.1-0.1,0c0,0,0,0,0,0.1
										c-0.3,0.8-1.2,0.8-1.2,0.4c0.2,0,0.4-0.1,0.5-0.1c0-0.2,0.1-0.3,0-0.5c0-0.1-0.1-0.1-1.1-0.7c-0.1,0-0.2-0.1-0.3-0.1
										c-0.3,0-0.5,0.3-0.8,0.3c-0.1,0-0.2,0-0.3,0c-0.1,0.1,0,0.2-0.1,0.3c-0.1,0.1-0.3,0.1-0.4,0.2c0,0-0.1,0.1-0.1,0.2
										c-0.2,0.8-1,0.6-1.4,0.9c0.6,0.4,1.9-0.5,3.4-0.2c0.1,0,0.1,0,0.1,0.1c0.2,1,1.4,1.5,1.7,1.3c0.1,0,0.1-0.1,0.1-0.2
										c0.1-0.3,0.5-0.4,0.8-0.3c0.3,0.1,0.6,0.3,0.9,0.4c0.6,0.2,1.3,0,1.5-0.5c0.1-0.1,0.1-0.4-0.1-0.5c-0.1-0.1-0.3,0-0.4,0.1
										C38.9,19.2,38.4,19.3,38.2,18.9z"/>
								</g>
							</g>
						</g>
						<g>
							<g>
								<g>
									<path class="st17" d="M29.2,11.9C29.2,11.9,29.3,12,29.2,11.9c0.1,0.1,0.2,0.1,0.2,0.1c0,0,0.1-0.1,0.1-0.1
										c0,0,0.1,0,0.1,0c0,0,0-0.1,0-0.1c0-0.1,0.1-0.1,0.2-0.1c0.2,0,0.3,0,0.4,0.1c0.1,0.1,0.1,0.1,0.2,0.2
										c0,0.1-0.1,0.2-0.1,0.3c0,0-0.1,0.1-0.1,0.1c-0.1,0.1-0.3,0.1-0.4,0.1c-0.2,0-0.4-0.1-0.5-0.1c-0.1,0-0.3,0-0.4,0
										c-0.2-0.1-0.1-0.4-0.1-0.5c0-0.1,0.1-0.1,0.2-0.2C29.1,11.8,29.1,11.8,29.2,11.9C29.2,11.8,29.2,11.9,29.2,11.9z"/>
								</g>
							</g>
						</g>
						<g>
							<g>
								<g>
									<path class="st17" d="M25.5,39.1c0.6-0.2,1.4-0.2,2,0.2c0.2,0.1,0.5,0.2,0.6,0c0-0.1,0-0.1,0-0.2c0-0.3,0.1-0.7,0.4-0.9
										c0.3-0.3,0.8-0.3,1.2-0.2c0.1,0,0.2,0,0.2,0.1c0.1,0,0.1,0.1,0.2,0.2c0.2,0.3,0.5,0.7,0.9,0.8c0.3,0.1,0.6,0,0.9-0.2
										c0.3-0.2,0.5-0.4,0.8-0.5c0.4-0.2,0.8-0.3,1.3-0.3c0.1,0,0.2,0,0.3,0c0.3,0.1,0.4,0.5,0.5,0.8c0,0.1,0,0.2,0,0.3
										c0,0.1-0.1,0.1-0.2,0.2c-1,0.5-2.2,0.3-3.2,0.6c-0.5,0.1-0.9,0.3-1.2,0.6c-0.2,0.1-0.3,0.3-0.5,0.4
										c-0.2,0.1-0.5,0.2-0.8,0.2c-0.6,0.1-1.2,0.1-1.9,0.1C25.1,41.2,24.3,39.4,25.5,39.1z"/>
								</g>
							</g>
						</g>
					</g>
				</g>
				<g>
					<g>
						<g>
							<g>
								<g>
									<g>
										<path class="st16" d="M47.5,26.1c0,3.7-2.5,7.2-6.9,9.8c-9.1,5.3-23.8,5.3-33,0c-4.5-2.6-7-6.1-7-9.9
											c0-3.7,2.5-7.2,6.9-9.8c0.5-0.3,1-0.5,1.5-0.8c-0.4,0.6-0.8,1.2-1.1,1.8c-4,2.4-6.2,5.5-6.2,8.8c0,3.4,2.3,6.5,6.5,9
											c7.8,4.5,19.8,5,28.6,1.6c0.8-0.3,1.6-0.7,2.3-1c0.3-0.2,0.6-0.3,1-0.5c4.1-2.4,6.4-5.6,6.4-8.9c0-3.3-2.2-6.4-6.2-8.7
											c-0.3-0.6-0.7-1.3-1.1-1.9c0.5,0.2,0.9,0.5,1.3,0.7C45,18.8,47.5,22.3,47.5,26.1z"/>
									</g>
								</g>
							</g>
						</g>
					</g>
					<g>
						<g>
							<g>
								<path class="st13" d="M31.9,38.6c0,1.2-0.9,2.1-2.1,2.1c-1.2,0-2.1-0.9-2.1-2.1c0-1.2,0.9-2.1,2.1-2.1
									C31,36.5,31.9,37.5,31.9,38.6z"/>
							</g>
						</g>
					</g>
				</g>
			</g>
			<g>
				<g>
					<g>
						<path class="st4" d="M41.8,17.6c0,1-0.1,2-0.2,3c-0.2-0.7-0.5-1.4-0.8-2c0-0.4,0-0.7,0-1c0-4.7-1.6-8.2-4.5-9.9
							c-1.2-0.7-2.5-1-4-1c-2.1,0-4.5,0.7-7,2.1C17.8,13.2,11.4,23.3,10,32.5c-0.2,1.2-0.3,2.4-0.3,3.6c0,0.6,0,1.2,0.1,1.7
							c0.3,3.9,1.9,6.7,4.4,8.2c3.6,2.1,8.3,0.7,11.7-1.6c0.4,0,1.5-0.2,2.1-0.3c-4.2,3.1-9.8,5.4-14.3,2.8
							c-3.1-1.8-4.8-5.4-4.9-10.3c0-0.1,0-0.3,0-0.4c0-1.7,0.2-3.5,0.6-5.3c1.9-9,8.2-18.5,15.6-22.8c4.5-2.6,8.7-3,11.9-1.1
							C40.1,8.7,41.8,12.5,41.8,17.6z"/>
					</g>
				</g>
			</g>
			<g>
				<g>
					<g>
						<path class="st2" d="M36.7,6.2c0,1.2-0.9,2.1-2.1,2.1c-1.2,0-2.1-0.9-2.1-2.1c0-1.2,0.9-2.1,2.1-2.1C35.7,4.1,36.7,5,36.7,6.2
							z"/>
					</g>
				</g>
			</g>
			<g>
				<g>
					<g>
						<path class="st3" d="M39.2,36.1c0,5.1-1.8,8.9-4.9,10.7C29.8,49.3,24.1,47.2,20,44c0.7,0.2,1.4,0.3,2.2,0.3
							c3.4,2.2,8,3.7,11.6,1.6c2.9-1.7,4.5-5.2,4.5-9.9c0-10-7-22.2-15.8-27.3c-2.5-1.4-4.8-2.1-7-2.1c-1.4,0-2.8,0.3-4,1
							c-2.9,1.7-4.5,5.2-4.5,9.9c0,0.3,0,0.7,0,1v0c0,0,0,0,0,0c-0.3,0.6-0.5,1.3-0.8,2c-0.1-1-0.2-2.1-0.2-3.1
							c0-5.1,1.8-8.9,4.9-10.7C14.3,5,18.6,5.4,23,8C32,13.2,39.3,25.8,39.2,36.1z"/>
					</g>
				</g>
			</g>
			<g>
				<g>
					<g>
						<path class="st13" d="M18.6,6.2c0,1.2-0.9,2.1-2.1,2.1c-1.2,0-2.1-0.9-2.1-2.1c0-1.2,0.9-2.1,2.1-2.1
							C17.7,4.1,18.6,5,18.6,6.2z"/>
					</g>
				</g>
			</g>
			<g>
				<g>
					<g>
						<path class="st15" d="M12.6,42.5c0,1.2-0.9,2.1-2.1,2.1c-1.2,0-2.1-0.9-2.1-2.1c0-1.2,0.9-2.1,2.1-2.1
							C11.6,40.4,12.6,41.3,12.6,42.5z"/>
					</g>
				</g>
			</g>
		</g>
	</g>
	<g>
		<g>
			<g>
				<g>
					<g>
						<polygon class="st14" points="51.4,41.8 48,44.9 42.5,46.9 40.1,45.5 40.1,36.9 49,31.8 51.4,33.2 						"/>
					</g>
				</g>
			</g>
		</g>
		<g>
			<g>
				<g>
					<g>
						<polygon class="st14" points="48,36.4 48,44.9 51.4,41.8 51.4,33.2 						"/>
					</g>
				</g>
			</g>
			<g>
				<g>
					<g>
						<polygon class="st15" points="42.5,38.4 42.5,46.9 48,44.9 48,36.4 						"/>
					</g>
				</g>
			</g>
		</g>
		<g>
			<g>
				<g>
					<polygon class="st14" points="40.1,36.9 40.1,45.5 42.5,46.9 42.5,38.4 					"/>
				</g>
			</g>
		</g>
		<g>
			<g>
				<g>
					<polygon class="st19" points="40.1,36.9 42.5,38.4 48,36.4 51.4,33.2 49,31.8 					"/>
				</g>
			</g>
		</g>
		<g>
			<g>
				<g>
					<path class="st14" d="M47.9,34.1c-0.6-0.4-0.6-1,0-1.3c0.5-0.3,1.4-0.3,1.9,0c0.6,0.3,0.6,1,0,1.3
						C49.3,34.4,48.4,34.4,47.9,34.1z"/>
				</g>
			</g>
		</g>
		<g>
			<g>
				<g>
					<path class="st15" d="M49.7,33c0.5,0.3,0.5,0.7,0,1c-0.5,0.3-1.3,0.3-1.7,0c-0.5-0.3-0.5-0.7,0-1C48.5,32.7,49.2,32.7,49.7,33z
						"/>
				</g>
			</g>
		</g>
		<g>
			<g>
				<g>
					<g>
						<path class="st14" d="M41.8,37.5c-0.6-0.4-0.6-1,0-1.3c0.5-0.3,1.4-0.3,1.9,0c0.6,0.3,0.6,1,0,1.3
							C43.2,37.9,42.4,37.9,41.8,37.5z"/>
					</g>
				</g>
			</g>
			<g>
				<g>
					<g>
						<path class="st15" d="M43.7,36.4c0.5,0.3,0.5,0.7,0,1c-0.5,0.3-1.3,0.3-1.7,0c-0.5-0.3-0.5-0.7,0-1
							C42.4,36.1,43.2,36.1,43.7,36.4z"/>
					</g>
				</g>
			</g>
		</g>
		<g>
			<g>
				<g>
					<g>
						<g>
							<path class="st2" d="M49.8,33v0.9c0,0-0.1,0.1-0.1,0.1c-0.5,0.3-1.3,0.3-1.7,0c0,0-0.1,0-0.1-0.1l0-0.7V30
								c0-0.5-0.2-1-0.4-1.1c-0.3-0.1-0.7-0.1-1.2,0.2c-1.4,0.8-2.5,2.8-2.5,4.4v3.9c0,0-0.1,0-0.1,0.1c-0.5,0.3-1.3,0.3-1.7,0
								c0,0-0.1,0-0.1-0.1v-3.9c0-2.3,1.5-4.9,3.5-6.1c1.1-0.6,2.2-0.7,3.1-0.2c0.9,0.5,1.4,1.5,1.4,2.8L49.8,33z"/>
						</g>
					</g>
				</g>
			</g>
		</g>
		<g>
			<g>
				<g>
					<path class="st11" d="M48.1,40.5c0.4-0.5,0.6-1.4,0.2-1.8c-0.1,0-0.3,0.1-0.4,0.1c-1,0.6-1.5,2.4-0.7,2.6l-0.2,1.2l1.3-0.7
						L48.1,40.5z"/>
				</g>
			</g>
		</g>
		<g>
			<g>
				<g>
					<path class="st11" d="M48.6,40.7l0.3,1.4L47,43.2c0-0.1,0.3-1.8,0.3-1.7c-0.5-0.2-0.5-0.8-0.3-1.4c0.1-0.3,0.3-0.6,0.5-0.9
						c0.1-0.2,0.3-0.3,0.5-0.4c0.1-0.1,0.3-0.1,0.4-0.1c0,0,0,0,0.1,0C49.1,38.7,49.4,39.6,48.6,40.7z"/>
				</g>
			</g>
		</g>
		<g>
			<g>
				<g>
					<g>
						<path class="st2" d="M48.6,40.7c0.6-0.9,0.6-2-0.2-2c0,0,0,0-0.1,0c0.4,0.4,0.1,1.3-0.2,1.8l0.3,1.4l0,0l0.5,0.2L48.6,40.7z"
							/>
					</g>
				</g>
			</g>
			<g>
				<g>
					<g>
						<path class="st1" d="M48.4,41.9l-1.3,0.7c0,0.1-0.1,0.6-0.1,0.5l1.9-1.1l0,0L48.4,41.9z"/>
					</g>
				</g>
			</g>
		</g>
		<g>
			<g>
				<g>
					<path class="st11" d="M48.1,40.5c0,0.1,0.3,1.5,0.3,1.4c-0.1,0.1-1.4,0.8-1.3,0.7c0-0.1,0.2-1.3,0.2-1.2
						c-0.5-0.1-0.5-0.8-0.3-1.3c0.1-0.3,0.3-0.6,0.5-0.9c0.1-0.2,0.3-0.3,0.5-0.4c0.1-0.1,0.3-0.1,0.4-0.1
						C48.8,39.2,48.5,40,48.1,40.5z"/>
				</g>
			</g>
		</g>
	</g>
</g>
</svg>
