<svg xmlns="http://www.w3.org/2000/svg" xmlns:xlink="http://www.w3.org/1999/xlink" width="100%" height="100%6" viewBox="0 0 583.995 437.556">
  <defs>
    <linearGradient id="linear-gradient" x1="-0.323" y1="1.479" x2="-0.323" y2="0.833" gradientUnits="objectBoundingBox">
      <stop offset="0" stop-color="#2a137d"/>
      <stop offset="0.995" stop-color="#59bddd"/>
    </linearGradient>
    <linearGradient id="linear-gradient-2" x1="0.286" y1="0.5" x2="0.802" y2="0.5" gradientUnits="objectBoundingBox">
      <stop offset="0.165" stop-color="#180b56"/>
      <stop offset="0.989" stop-color="#3355b0"/>
    </linearGradient>
    <linearGradient id="linear-gradient-3" x1="0.738" y1="0.208" x2="0.32" y2="0.708" gradientUnits="objectBoundingBox">
      <stop offset="0" stop-color="#2a137d"/>
      <stop offset="0.995" stop-color="#599cdd"/>
    </linearGradient>
    <linearGradient id="linear-gradient-4" x1="-0.216" y1="1.349" x2="-0.216" y2="0.704" xlink:href="#linear-gradient"/>
    <linearGradient id="linear-gradient-7" x1="0.222" y1="1.029" x2="0.222" y2="0.384" xlink:href="#linear-gradient-3"/>
    <linearGradient id="linear-gradient-8" x1="0.5" y1="0.116" x2="0.5" y2="0.941" gradientUnits="objectBoundingBox">
      <stop offset="0.165" stop-color="#180b56"/>
      <stop offset="0.744" stop-color="#251171"/>
      <stop offset="0.989" stop-color="#2a137d"/>
    </linearGradient>
    <linearGradient id="linear-gradient-9" x1="0.306" y1="0.694" x2="0.783" y2="0.217" gradientUnits="objectBoundingBox">
      <stop offset="0.154" stop-color="#fcfbf9"/>
      <stop offset="0.878" stop-color="#e2e5ff"/>
    </linearGradient>
    <linearGradient id="linear-gradient-10" x1="0.509" y1="0.427" x2="0.514" y2="0.387" gradientUnits="objectBoundingBox">
      <stop offset="0" stop-color="#4d88e9"/>
      <stop offset="1" stop-color="#ae79cc"/>
    </linearGradient>
    <linearGradient id="linear-gradient-11" x1="-0.134" y1="0.255" x2="-0.154" y2="0.248" gradientUnits="objectBoundingBox">
      <stop offset="0" stop-color="#fff"/>
      <stop offset="1" stop-color="#ae79cc"/>
    </linearGradient>
    <linearGradient id="linear-gradient-12" x1="1.914" y1="-3.574" x2="0.765" y2="-0.207" gradientUnits="objectBoundingBox">
      <stop offset="0" stop-color="#4d88e9"/>
      <stop offset="1" stop-color="#511da2"/>
    </linearGradient>
    <linearGradient id="linear-gradient-13" x1="6.259" y1="1.231" x2="13.262" y2="1.325" xlink:href="#linear-gradient-12"/>
    <linearGradient id="linear-gradient-14" x1="0.896" y1="-0.281" x2="0.896" y2="-0.838" xlink:href="#linear-gradient-9"/>
    <linearGradient id="linear-gradient-15" x1="0.075" y1="0.175" x2="0.821" y2="0.745" gradientUnits="objectBoundingBox">
      <stop offset="0.284" stop-color="#39c3f7"/>
      <stop offset="1" stop-color="#0045e2"/>
    </linearGradient>
    <linearGradient id="linear-gradient-16" x1="0.5" y1="0.848" x2="0.5" y2="0.227" gradientUnits="objectBoundingBox">
      <stop offset="0"/>
      <stop offset="0.846" stop-color="#21cde1"/>
    </linearGradient>
    <linearGradient id="linear-gradient-17" x1="0.5" y1="1.018" x2="0.5" y2="0.203" xlink:href="#linear-gradient-16"/>
    <linearGradient id="linear-gradient-18" x1="0" y1="0.5" x2="1" y2="0.5" xlink:href="#linear-gradient-15"/>
    <linearGradient id="linear-gradient-19" x1="9.686" y1="-5.66" x2="3.018" y2="-5.66" gradientUnits="objectBoundingBox">
      <stop offset="0.219" stop-color="#9affff"/>
      <stop offset="0.927" stop-color="#c9ffff"/>
    </linearGradient>
    <linearGradient id="linear-gradient-20" x1="9.686" y1="-5.771" x2="3.018" y2="-5.771" xlink:href="#linear-gradient-19"/>
    <linearGradient id="linear-gradient-21" x1="9.686" y1="-5.89" x2="3.018" y2="-5.89" xlink:href="#linear-gradient-19"/>
    <linearGradient id="linear-gradient-22" x1="6.686" y1="-6.889" x2="0.018" y2="-6.889" xlink:href="#linear-gradient-19"/>
    <linearGradient id="linear-gradient-23" x1="6.686" y1="-7" x2="0.018" y2="-7" xlink:href="#linear-gradient-19"/>
    <linearGradient id="linear-gradient-24" x1="4.888" y1="-5.7" x2="-1.373" y2="-5.7" xlink:href="#linear-gradient-19"/>
    <linearGradient id="linear-gradient-25" x1="6.686" y1="-7.119" x2="0.018" y2="-7.119" xlink:href="#linear-gradient-19"/>
    <linearGradient id="linear-gradient-26" x1="10.892" y1="-8.381" x2="1.971" y2="-8.381" xlink:href="#linear-gradient-19"/>
    <linearGradient id="linear-gradient-27" x1="10.892" y1="-8.492" x2="1.971" y2="-8.492" xlink:href="#linear-gradient-19"/>
    <linearGradient id="linear-gradient-28" x1="10.892" y1="-8.611" x2="1.971" y2="-8.611" xlink:href="#linear-gradient-19"/>
    <linearGradient id="linear-gradient-29" x1="10.892" y1="-8.73" x2="1.971" y2="-8.73" xlink:href="#linear-gradient-19"/>
    <linearGradient id="linear-gradient-30" x1="10.892" y1="-8.841" x2="1.971" y2="-8.841" xlink:href="#linear-gradient-19"/>
    <linearGradient id="linear-gradient-31" x1="10.892" y1="-8.96" x2="1.971" y2="-8.96" xlink:href="#linear-gradient-19"/>
    <linearGradient id="linear-gradient-32" x1="-73.135" y1="14.805" x2="-72.976" y2="15.361" xlink:href="#linear-gradient-2"/>
    <linearGradient id="linear-gradient-33" x1="-30.802" y1="15.534" x2="-30.754" y2="15.15" xlink:href="#linear-gradient-15"/>
    <linearGradient id="linear-gradient-34" x1="-6.921" y1="3.091" x2="-5.99" y2="3.091" xlink:href="#linear-gradient-2"/>
    <linearGradient id="linear-gradient-35" x1="-5.358" y1="4.98" x2="-4.763" y2="4.959" xlink:href="#linear-gradient-15"/>
    <linearGradient id="linear-gradient-36" x1="-36.828" y1="16.294" x2="-35.182" y2="16.294" xlink:href="#linear-gradient-2"/>
    <linearGradient id="linear-gradient-37" x1="-8.229" y1="3.67" x2="-7.316" y2="3.67" xlink:href="#linear-gradient-9"/>
    <linearGradient id="linear-gradient-38" x1="-17.315" y1="8.362" x2="-16.416" y2="8.362" xlink:href="#linear-gradient-9"/>
    <linearGradient id="linear-gradient-39" x1="-7.093" y1="3.203" x2="-6.168" y2="3.203" gradientUnits="objectBoundingBox">
      <stop offset="0.273" stop-color="#61f0f7"/>
      <stop offset="1" stop-color="#0045e2"/>
    </linearGradient>
  </defs>
  <g id="Group_33" data-name="Group 33" transform="translate(-216.005 -62.444)">
    <g id="Group_32" data-name="Group 32" transform="translate(-0.328)">
      <g id="Group_2" data-name="Group 2" style="mix-blend-mode: overlay;isolation: isolate">
        <g id="Group_1" data-name="Group 1">
          <path id="Path_1" data-name="Path 1" d="M341.466,357.357c0-56.745,84.927-102.911,189.317-102.911S720.1,300.612,720.1,357.357s-84.928,102.91-189.319,102.91S341.466,414.1,341.466,357.357Zm1.782,0c0,55.763,84.128,101.128,187.535,101.128S718.32,413.12,718.32,357.357,634.191,256.228,530.783,256.228,343.248,301.593,343.248,357.357Z" fill="#aefbff"/>
        </g>
      </g>
      <g id="Group_4" data-name="Group 4" opacity="0.7" style="mix-blend-mode: overlay;isolation: isolate">
        <g id="Group_3" data-name="Group 3">
          <path id="Path_2" data-name="Path 2" d="M284.612,357.357c0-73.717,110.432-133.692,246.171-133.692S776.954,283.64,776.954,357.357,666.522,491.048,530.783,491.048,284.612,431.074,284.612,357.357Zm1.782,0c0,72.735,109.633,131.909,244.389,131.909s244.389-59.174,244.389-131.909S665.54,225.447,530.783,225.447,286.394,284.621,286.394,357.357Z" fill="#aefbff"/>
        </g>
      </g>
      <path id="Path_3" data-name="Path 3" d="M363.6,500c-87.377-29.98-145.489-82.711-145.489-142.643,0-93.121,140.263-168.879,312.668-168.879,114.688,0,215.133,33.531,269.545,83.389v-2.31C745.263,219.949,645.048,186.7,530.783,186.7c-173.388,0-314.45,76.559-314.45,170.661,0,59.576,56.558,112.106,142.047,142.643Z" fill="#aefbff" opacity="0.5" style="mix-blend-mode: overlay;isolation: isolate"/>
      <g id="Group_5" data-name="Group 5">
        <path id="Path_4" data-name="Path 4" d="M547.447,263.364l-36.573-21.115V104.422l37.731,18.443Z" fill="url(#linear-gradient)"/>
        <path id="Path_5" data-name="Path 5" d="M579.292,244.657l-32.4,18.707,1.715-140.5,31.2-18.464Z" fill="url(#linear-gradient-2)"/>
        <path id="Path_6" data-name="Path 6" d="M548.606,122.865l-37.732-18.443L546.23,86.551a3.385,3.385,0,0,1,1.3,0l32.28,17.85Z" fill="url(#linear-gradient-3)"/>
      </g>
      <path id="Path_7" data-name="Path 7" d="M531.661,355.7,485.37,328.969V154.517l47.758,23.344Z" fill="url(#linear-gradient-4)"/>
      <path id="Path_8" data-name="Path 8" d="M533.128,177.862,485.37,154.517,530.12,131.9a4.3,4.3,0,0,1,1.645,0l40.859,22.593Z" fill="url(#linear-gradient-3)"/>
      <g id="Group_6" data-name="Group 6" style="mix-blend-mode: overlay;isolation: isolate">
        <path id="Path_9" data-name="Path 9" d="M480.047,145.57c0,1.815-.644,2.45-1.793,1.787a4.2,4.2,0,0,1-1.8-3.863c0-1.806.643-2.442,1.8-1.774A4.2,4.2,0,0,1,480.047,145.57Zm-3.04-1.755c0,1.527.422,2.546,1.247,3.022.809.468,1.239-.06,1.239-1.588s-.43-2.533-1.239-3C477.429,141.773,477.007,142.288,477.007,143.815Z" fill="#aefbff"/>
        <path id="Path_10" data-name="Path 10" d="M484.321,148.038c0,1.815-.644,2.45-1.793,1.787a4.2,4.2,0,0,1-1.8-3.862c0-1.806.645-2.443,1.8-1.775A4.2,4.2,0,0,1,484.321,148.038Zm-3.039-1.755c0,1.527.422,2.546,1.246,3.022s1.239-.059,1.239-1.587-.428-2.534-1.239-3S481.282,144.755,481.282,146.283Z" fill="#aefbff"/>
        <path id="Path_11" data-name="Path 11" d="M488.6,150.505c0,1.817-.644,2.451-1.793,1.787a4.2,4.2,0,0,1-1.8-3.861c0-1.807.643-2.443,1.8-1.775A4.2,4.2,0,0,1,488.6,150.505Zm-3.04-1.755c0,1.528.423,2.547,1.247,3.023s1.239-.06,1.239-1.587-.429-2.534-1.239-3S485.556,147.223,485.556,148.75Z" fill="#aefbff"/>
        <path id="Path_12" data-name="Path 12" d="M492.871,152.974c0,1.815-.644,2.45-1.793,1.787a4.2,4.2,0,0,1-1.8-3.862c0-1.807.644-2.443,1.8-1.775A4.2,4.2,0,0,1,492.871,152.974Zm-3.04-1.755c0,1.527.423,2.546,1.247,3.023.809.466,1.239-.061,1.239-1.588s-.43-2.533-1.239-3C490.254,149.176,489.831,149.692,489.831,151.219Z" fill="#aefbff"/>
        <path id="Path_13" data-name="Path 13" d="M495.7,151.808v5.6l-.554-.32v-5.014l-1.141-.66v-.59Z" fill="#aefbff"/>
        <path id="Path_14" data-name="Path 14" d="M499.973,154.277v5.6l-.554-.32v-5.014l-1.142-.659V153.3Z" fill="#aefbff"/>
        <path id="Path_15" data-name="Path 15" d="M504.248,156.744v5.6l-.554-.32v-5.014l-1.142-.659v-.591Z" fill="#aefbff"/>
        <path id="Path_16" data-name="Path 16" d="M480.047,155.17c0,1.816-.644,2.451-1.793,1.787a4.2,4.2,0,0,1-1.8-3.862c0-1.807.643-2.442,1.8-1.774A4.2,4.2,0,0,1,480.047,155.17Zm-3.04-1.755c0,1.528.422,2.547,1.247,3.023.809.468,1.239-.06,1.239-1.587s-.43-2.534-1.239-3C477.429,151.372,477.007,151.888,477.007,153.415Z" fill="#aefbff"/>
        <path id="Path_17" data-name="Path 17" d="M484.321,157.638c0,1.815-.644,2.451-1.793,1.787a4.2,4.2,0,0,1-1.8-3.861c0-1.807.645-2.443,1.8-1.776A4.2,4.2,0,0,1,484.321,157.638Zm-3.039-1.755c0,1.527.422,2.547,1.246,3.023s1.239-.06,1.239-1.587-.428-2.535-1.239-3S481.282,154.356,481.282,155.883Z" fill="#aefbff"/>
        <path id="Path_18" data-name="Path 18" d="M488.6,160.107c0,1.814-.644,2.45-1.793,1.786a4.2,4.2,0,0,1-1.8-3.861c0-1.807.643-2.443,1.8-1.776A4.2,4.2,0,0,1,488.6,160.107Zm-3.04-1.756c0,1.527.423,2.547,1.247,3.022s1.239-.059,1.239-1.586-.429-2.535-1.239-3S485.556,156.824,485.556,158.351Z" fill="#aefbff"/>
        <path id="Path_19" data-name="Path 19" d="M491.424,158.941v5.6l-.554-.319v-5.014l-1.143-.66v-.591Z" fill="#aefbff"/>
        <path id="Path_20" data-name="Path 20" d="M497.145,165.042c0,1.816-.643,2.451-1.793,1.787a4.2,4.2,0,0,1-1.8-3.862c0-1.807.644-2.442,1.8-1.774A4.194,4.194,0,0,1,497.145,165.042Zm-3.039-1.754c0,1.527.422,2.545,1.246,3.022s1.24-.061,1.24-1.588-.429-2.533-1.24-3S494.106,161.76,494.106,163.288Z" fill="#aefbff"/>
        <path id="Path_21" data-name="Path 21" d="M499.973,163.877v5.6l-.554-.32v-5.014l-1.142-.659V162.9Z" fill="#aefbff"/>
        <path id="Path_22" data-name="Path 22" d="M504.248,166.345v5.6l-.554-.321v-5.013l-1.142-.66v-.59Z" fill="#aefbff"/>
        <path id="Path_23" data-name="Path 23" d="M478.6,161.136v5.6l-.553-.32v-5.013l-1.143-.661v-.589Z" fill="#aefbff"/>
        <path id="Path_24" data-name="Path 24" d="M484.321,167.238c0,1.815-.644,2.451-1.793,1.787a4.2,4.2,0,0,1-1.8-3.862c0-1.806.645-2.443,1.8-1.775A4.2,4.2,0,0,1,484.321,167.238Zm-3.039-1.755c0,1.527.422,2.547,1.246,3.022s1.239-.059,1.239-1.587-.428-2.534-1.239-3S481.282,163.955,481.282,165.483Z" fill="#aefbff"/>
        <path id="Path_25" data-name="Path 25" d="M488.6,169.706c0,1.815-.644,2.451-1.793,1.787a4.2,4.2,0,0,1-1.8-3.862c0-1.806.643-2.442,1.8-1.775A4.2,4.2,0,0,1,488.6,169.706Zm-3.04-1.756c0,1.528.423,2.547,1.247,3.023s1.239-.06,1.239-1.587-.429-2.534-1.239-3S485.556,166.423,485.556,167.95Z" fill="#aefbff"/>
        <path id="Path_26" data-name="Path 26" d="M492.871,172.174c0,1.816-.644,2.45-1.793,1.786a4.2,4.2,0,0,1-1.8-3.861c0-1.807.644-2.442,1.8-1.775A4.2,4.2,0,0,1,492.871,172.174Zm-3.04-1.755c0,1.528.423,2.546,1.247,3.022.809.468,1.239-.06,1.239-1.587s-.43-2.534-1.239-3C490.254,168.376,489.831,168.892,489.831,170.419Z" fill="#aefbff"/>
        <path id="Path_27" data-name="Path 27" d="M497.145,174.642c0,1.815-.643,2.45-1.793,1.787a4.2,4.2,0,0,1-1.8-3.862c0-1.807.644-2.443,1.8-1.775A4.2,4.2,0,0,1,497.145,174.642Zm-3.039-1.755c0,1.527.422,2.546,1.246,3.022s1.24-.06,1.24-1.587-.429-2.534-1.24-3S494.106,171.36,494.106,172.887Z" fill="#aefbff"/>
        <path id="Path_28" data-name="Path 28" d="M499.973,173.477v5.6l-.554-.32v-5.014l-1.142-.659V172.5Z" fill="#aefbff"/>
        <path id="Path_29" data-name="Path 29" d="M504.248,175.945v5.6l-.554-.32v-5.014l-1.142-.659v-.591Z" fill="#aefbff"/>
        <path id="Path_30" data-name="Path 30" d="M480.047,174.371c0,1.815-.644,2.45-1.793,1.787a4.2,4.2,0,0,1-1.8-3.863c0-1.806.643-2.442,1.8-1.774A4.2,4.2,0,0,1,480.047,174.371Zm-3.04-1.755c0,1.527.422,2.546,1.247,3.022.809.468,1.239-.06,1.239-1.588s-.43-2.533-1.239-3C477.429,170.574,477.007,171.088,477.007,172.616Z" fill="#aefbff"/>
        <path id="Path_31" data-name="Path 31" d="M484.321,176.838c0,1.816-.644,2.45-1.793,1.787a4.2,4.2,0,0,1-1.8-3.861c0-1.807.645-2.443,1.8-1.775A4.2,4.2,0,0,1,484.321,176.838Zm-3.039-1.755c0,1.528.422,2.547,1.246,3.023s1.239-.06,1.239-1.587-.428-2.534-1.239-3S481.282,173.556,481.282,175.083Z" fill="#aefbff"/>
        <path id="Path_32" data-name="Path 32" d="M487.149,175.673v5.6l-.555-.321v-5.013l-1.141-.66v-.59Z" fill="#aefbff"/>
        <path id="Path_33" data-name="Path 33" d="M492.871,181.775c0,1.815-.644,2.45-1.793,1.787a4.2,4.2,0,0,1-1.8-3.862c0-1.807.644-2.443,1.8-1.775A4.2,4.2,0,0,1,492.871,181.775Zm-3.04-1.755c0,1.527.423,2.546,1.247,3.022.809.467,1.239-.06,1.239-1.588s-.43-2.533-1.239-3C490.254,177.977,489.831,178.493,489.831,180.02Z" fill="#aefbff"/>
        <path id="Path_34" data-name="Path 34" d="M497.145,184.243c0,1.815-.643,2.45-1.793,1.787a4.205,4.205,0,0,1-1.8-3.863c0-1.806.644-2.442,1.8-1.774A4.2,4.2,0,0,1,497.145,184.243Zm-3.039-1.755c0,1.527.422,2.546,1.246,3.022s1.24-.06,1.24-1.587-.429-2.534-1.24-3S494.106,180.96,494.106,182.488Z" fill="#aefbff"/>
        <path id="Path_35" data-name="Path 35" d="M501.421,186.71c0,1.816-.645,2.452-1.793,1.787a4.2,4.2,0,0,1-1.8-3.861c0-1.807.643-2.443,1.8-1.775A4.2,4.2,0,0,1,501.421,186.71Zm-3.04-1.755c0,1.528.422,2.547,1.247,3.023.809.468,1.238-.06,1.238-1.587s-.429-2.534-1.238-3C498.8,182.913,498.381,183.428,498.381,184.955Z" fill="#aefbff"/>
        <path id="Path_36" data-name="Path 36" d="M505.7,189.179c0,1.814-.643,2.45-1.793,1.786a4.2,4.2,0,0,1-1.8-3.861c0-1.807.644-2.442,1.8-1.776A4.2,4.2,0,0,1,505.7,189.179Zm-3.04-1.756c0,1.527.423,2.547,1.247,3.023s1.239-.06,1.239-1.587-.429-2.534-1.239-3S502.655,185.9,502.655,187.423Z" fill="#aefbff"/>
        <path id="Path_37" data-name="Path 37" d="M478.6,180.336v5.6l-.553-.32v-5.013l-1.143-.659v-.592Z" fill="#aefbff"/>
        <path id="Path_38" data-name="Path 38" d="M482.874,182.8v5.6l-.554-.32v-5.014l-1.142-.659v-.591Z" fill="#aefbff"/>
        <path id="Path_39" data-name="Path 39" d="M487.149,185.273v5.6l-.555-.32v-5.014l-1.141-.659v-.591Z" fill="#aefbff"/>
        <path id="Path_40" data-name="Path 40" d="M492.871,191.374c0,1.816-.644,2.451-1.793,1.788a4.2,4.2,0,0,1-1.8-3.863c0-1.806.644-2.442,1.8-1.774A4.2,4.2,0,0,1,492.871,191.374Zm-3.04-1.755c0,1.528.423,2.546,1.247,3.023.809.467,1.239-.061,1.239-1.588s-.43-2.533-1.239-3C490.254,187.577,489.831,188.092,489.831,189.619Z" fill="#aefbff"/>
        <path id="Path_41" data-name="Path 41" d="M497.145,193.842c0,1.816-.643,2.45-1.793,1.787a4.2,4.2,0,0,1-1.8-3.862c0-1.807.644-2.442,1.8-1.774A4.193,4.193,0,0,1,497.145,193.842Zm-3.039-1.755c0,1.528.422,2.547,1.246,3.023s1.24-.06,1.24-1.587-.429-2.534-1.24-3S494.106,190.56,494.106,192.087Z" fill="#aefbff"/>
        <path id="Path_42" data-name="Path 42" d="M501.421,196.31c0,1.815-.645,2.451-1.793,1.787a4.2,4.2,0,0,1-1.8-3.861c0-1.807.643-2.444,1.8-1.776A4.2,4.2,0,0,1,501.421,196.31Zm-3.04-1.755c0,1.527.422,2.547,1.247,3.023.809.467,1.238-.06,1.238-1.587s-.429-2.535-1.238-3C498.8,192.513,498.381,193.028,498.381,194.555Z" fill="#aefbff"/>
        <path id="Path_43" data-name="Path 43" d="M504.248,195.145v5.6l-.554-.32v-5.014l-1.142-.659v-.591Z" fill="#aefbff"/>
        <path id="Path_44" data-name="Path 44" d="M480.047,193.57c0,1.815-.644,2.45-1.793,1.787a4.2,4.2,0,0,1-1.8-3.863c0-1.806.643-2.442,1.8-1.774A4.2,4.2,0,0,1,480.047,193.57Zm-3.04-1.755c0,1.527.422,2.546,1.247,3.022.809.468,1.239-.06,1.239-1.588s-.43-2.533-1.239-3C477.429,189.773,477.007,190.288,477.007,191.815Z" fill="#aefbff"/>
        <path id="Path_45" data-name="Path 45" d="M482.874,192.4v5.6l-.554-.32v-5.014l-1.142-.659v-.591Z" fill="#aefbff"/>
        <path id="Path_46" data-name="Path 46" d="M487.149,194.872v5.605l-.555-.32v-5.014l-1.141-.659v-.591Z" fill="#aefbff"/>
        <path id="Path_47" data-name="Path 47" d="M491.424,197.34v5.605l-.554-.32v-5.013l-1.143-.66v-.591Z" fill="#aefbff"/>
        <path id="Path_48" data-name="Path 48" d="M495.7,199.808v5.6l-.554-.32v-5.014l-1.141-.66v-.59Z" fill="#aefbff"/>
        <path id="Path_49" data-name="Path 49" d="M501.421,205.909c0,1.816-.645,2.452-1.793,1.788a4.2,4.2,0,0,1-1.8-3.862c0-1.806.643-2.443,1.8-1.775A4.2,4.2,0,0,1,501.421,205.909Zm-3.04-1.754c0,1.527.422,2.547,1.247,3.022.809.468,1.238-.059,1.238-1.587s-.429-2.534-1.238-3C498.8,202.113,498.381,202.627,498.381,204.155Z" fill="#aefbff"/>
        <path id="Path_50" data-name="Path 50" d="M505.7,208.378c0,1.815-.643,2.45-1.793,1.786a4.2,4.2,0,0,1-1.8-3.861c0-1.807.644-2.442,1.8-1.775A4.2,4.2,0,0,1,505.7,208.378Zm-3.04-1.756c0,1.528.423,2.547,1.247,3.023s1.239-.06,1.239-1.587-.429-2.534-1.239-3S502.655,205.1,502.655,206.622Z" fill="#aefbff"/>
        <path id="Path_51" data-name="Path 51" d="M480.047,203.17c0,1.816-.644,2.451-1.793,1.787a4.2,4.2,0,0,1-1.8-3.862c0-1.807.643-2.442,1.8-1.774A4.2,4.2,0,0,1,480.047,203.17Zm-3.04-1.755c0,1.528.422,2.547,1.247,3.023.809.468,1.239-.06,1.239-1.587s-.43-2.534-1.239-3C477.429,199.372,477.007,199.888,477.007,201.415Z" fill="#aefbff"/>
        <path id="Path_52" data-name="Path 52" d="M482.874,202.005v5.6l-.554-.321v-5.013l-1.142-.659v-.591Z" fill="#aefbff"/>
        <path id="Path_53" data-name="Path 53" d="M487.149,204.473v5.6l-.555-.321v-5.014l-1.141-.659v-.591Z" fill="#aefbff"/>
        <path id="Path_54" data-name="Path 54" d="M492.871,210.575c0,1.815-.644,2.45-1.793,1.786a4.2,4.2,0,0,1-1.8-3.862c0-1.806.644-2.442,1.8-1.775A4.2,4.2,0,0,1,492.871,210.575Zm-3.04-1.755c0,1.527.423,2.546,1.247,3.021.809.469,1.239-.059,1.239-1.587s-.43-2.534-1.239-3C490.254,206.777,489.831,207.292,489.831,208.82Z" fill="#aefbff"/>
        <path id="Path_55" data-name="Path 55" d="M495.7,209.409v5.6l-.554-.319V209.68L494,209.021v-.592Z" fill="#aefbff"/>
        <path id="Path_56" data-name="Path 56" d="M501.421,215.51c0,1.815-.645,2.45-1.793,1.787a4.2,4.2,0,0,1-1.8-3.861c0-1.807.643-2.443,1.8-1.776A4.2,4.2,0,0,1,501.421,215.51Zm-3.04-1.755c0,1.528.422,2.547,1.247,3.023.809.468,1.238-.06,1.238-1.587s-.429-2.534-1.238-3C498.8,211.713,498.381,212.228,498.381,213.755Z" fill="#aefbff"/>
        <path id="Path_57" data-name="Path 57" d="M505.7,217.978c0,1.816-.643,2.451-1.793,1.787a4.2,4.2,0,0,1-1.8-3.861c0-1.807.644-2.444,1.8-1.776A4.2,4.2,0,0,1,505.7,217.978Zm-3.04-1.755c0,1.527.423,2.547,1.247,3.023s1.239-.06,1.239-1.587-.429-2.535-1.239-3S502.655,214.7,502.655,216.223Z" fill="#aefbff"/>
        <path id="Path_58" data-name="Path 58" d="M480.047,212.77c0,1.815-.644,2.45-1.793,1.787a4.2,4.2,0,0,1-1.8-3.862c0-1.807.643-2.443,1.8-1.775A4.2,4.2,0,0,1,480.047,212.77Zm-3.04-1.755c0,1.527.422,2.547,1.247,3.023.809.467,1.239-.06,1.239-1.588s-.43-2.534-1.239-3C477.429,208.972,477.007,209.488,477.007,211.015Z" fill="#aefbff"/>
        <path id="Path_59" data-name="Path 59" d="M484.321,215.238c0,1.815-.644,2.451-1.793,1.787a4.2,4.2,0,0,1-1.8-3.862c0-1.806.645-2.443,1.8-1.775A4.2,4.2,0,0,1,484.321,215.238Zm-3.039-1.755c0,1.527.422,2.547,1.246,3.022s1.239-.059,1.239-1.587-.428-2.534-1.239-3S481.282,211.955,481.282,213.483Z" fill="#aefbff"/>
        <path id="Path_60" data-name="Path 60" d="M488.6,217.706c0,1.815-.644,2.451-1.793,1.787a4.2,4.2,0,0,1-1.8-3.862c0-1.806.643-2.442,1.8-1.775A4.2,4.2,0,0,1,488.6,217.706Zm-3.04-1.756c0,1.528.423,2.547,1.247,3.023s1.239-.06,1.239-1.587-.429-2.534-1.239-3S485.556,214.423,485.556,215.95Z" fill="#aefbff"/>
        <path id="Path_61" data-name="Path 61" d="M491.424,216.54v5.605l-.554-.32v-5.013l-1.143-.66v-.591Z" fill="#aefbff"/>
        <path id="Path_62" data-name="Path 62" d="M495.7,219.008v5.605l-.554-.32V219.28L494,218.621v-.592Z" fill="#aefbff"/>
        <path id="Path_63" data-name="Path 63" d="M499.973,221.477v5.6l-.554-.32v-5.014l-1.142-.659V220.5Z" fill="#aefbff"/>
        <path id="Path_64" data-name="Path 64" d="M505.7,227.578c0,1.816-.643,2.451-1.793,1.787a4.2,4.2,0,0,1-1.8-3.862c0-1.806.644-2.443,1.8-1.775A4.2,4.2,0,0,1,505.7,227.578Zm-3.04-1.755c0,1.527.423,2.546,1.247,3.022s1.239-.06,1.239-1.587-.429-2.534-1.239-3S502.655,224.295,502.655,225.823Z" fill="#aefbff"/>
        <path id="Path_65" data-name="Path 65" d="M480.047,222.371c0,1.815-.644,2.45-1.793,1.787a4.2,4.2,0,0,1-1.8-3.863c0-1.806.643-2.442,1.8-1.774A4.2,4.2,0,0,1,480.047,222.371Zm-3.04-1.755c0,1.527.422,2.546,1.247,3.022.809.468,1.239-.06,1.239-1.588s-.43-2.533-1.239-3C477.429,218.574,477.007,219.088,477.007,220.616Z" fill="#aefbff"/>
        <path id="Path_66" data-name="Path 66" d="M484.321,224.838c0,1.816-.644,2.45-1.793,1.787a4.2,4.2,0,0,1-1.8-3.861c0-1.807.645-2.443,1.8-1.775A4.2,4.2,0,0,1,484.321,224.838Zm-3.039-1.755c0,1.528.422,2.547,1.246,3.023s1.239-.06,1.239-1.587-.428-2.534-1.239-3S481.282,221.556,481.282,223.083Z" fill="#aefbff"/>
        <path id="Path_67" data-name="Path 67" d="M487.149,223.673v5.6l-.555-.321v-5.013l-1.141-.66v-.59Z" fill="#aefbff"/>
        <path id="Path_68" data-name="Path 68" d="M492.871,229.775c0,1.815-.644,2.45-1.793,1.787a4.2,4.2,0,0,1-1.8-3.862c0-1.807.644-2.443,1.8-1.775A4.2,4.2,0,0,1,492.871,229.775Zm-3.04-1.755c0,1.527.423,2.546,1.247,3.022.809.467,1.239-.06,1.239-1.588s-.43-2.533-1.239-3C490.254,225.977,489.831,226.493,489.831,228.02Z" fill="#aefbff"/>
        <path id="Path_69" data-name="Path 69" d="M495.7,228.609v5.6l-.554-.319V228.88L494,228.22v-.59Z" fill="#aefbff"/>
        <path id="Path_70" data-name="Path 70" d="M499.973,231.078v5.6l-.554-.32v-5.014l-1.142-.659V230.1Z" fill="#aefbff"/>
        <path id="Path_71" data-name="Path 71" d="M504.248,233.545v5.6l-.554-.321v-5.013l-1.142-.659v-.591Z" fill="#aefbff"/>
        <path id="Path_72" data-name="Path 72" d="M480.047,231.97c0,1.815-.644,2.45-1.793,1.787a4.2,4.2,0,0,1-1.8-3.862c0-1.807.643-2.442,1.8-1.774A4.2,4.2,0,0,1,480.047,231.97Zm-3.04-1.755c0,1.528.422,2.546,1.247,3.023.809.467,1.239-.061,1.239-1.588s-.43-2.533-1.239-3C477.429,228.173,477.007,228.688,477.007,230.215Z" fill="#aefbff"/>
        <path id="Path_73" data-name="Path 73" d="M484.321,234.438c0,1.815-.644,2.45-1.793,1.787a4.2,4.2,0,0,1-1.8-3.861c0-1.807.645-2.444,1.8-1.776A4.2,4.2,0,0,1,484.321,234.438Zm-3.039-1.755c0,1.527.422,2.547,1.246,3.022s1.239-.059,1.239-1.587-.428-2.534-1.239-3S481.282,231.156,481.282,232.683Z" fill="#aefbff"/>
        <path id="Path_74" data-name="Path 74" d="M488.6,236.906c0,1.816-.644,2.451-1.793,1.787a4.2,4.2,0,0,1-1.8-3.862c0-1.806.643-2.443,1.8-1.775A4.2,4.2,0,0,1,488.6,236.906Zm-3.04-1.755c0,1.527.423,2.547,1.247,3.022s1.239-.059,1.239-1.587-.429-2.534-1.239-3S485.556,233.623,485.556,235.151Z" fill="#aefbff"/>
        <path id="Path_75" data-name="Path 75" d="M492.871,239.374c0,1.816-.644,2.451-1.793,1.788a4.2,4.2,0,0,1-1.8-3.863c0-1.806.644-2.442,1.8-1.774A4.2,4.2,0,0,1,492.871,239.374Zm-3.04-1.755c0,1.528.423,2.546,1.247,3.023.809.467,1.239-.061,1.239-1.588s-.43-2.533-1.239-3C490.254,235.577,489.831,236.092,489.831,237.619Z" fill="#aefbff"/>
        <path id="Path_76" data-name="Path 76" d="M495.7,238.208v5.605l-.554-.32V238.48L494,237.82v-.59Z" fill="#aefbff"/>
        <path id="Path_77" data-name="Path 77" d="M499.973,240.677v5.6l-.554-.32v-5.013l-1.142-.66v-.59Z" fill="#aefbff"/>
        <path id="Path_78" data-name="Path 78" d="M505.7,246.779c0,1.815-.643,2.449-1.793,1.785a4.2,4.2,0,0,1-1.8-3.861c0-1.806.644-2.442,1.8-1.775A4.2,4.2,0,0,1,505.7,246.779Zm-3.04-1.756c0,1.528.423,2.547,1.247,3.022s1.239-.059,1.239-1.586-.429-2.535-1.239-3S502.655,243.5,502.655,245.023Z" fill="#aefbff"/>
        <path id="Path_79" data-name="Path 79" d="M478.6,237.936v5.6l-.553-.319v-5.014l-1.143-.659v-.592Z" fill="#aefbff"/>
        <path id="Path_80" data-name="Path 80" d="M482.874,240.4v5.6l-.554-.321v-5.014l-1.142-.659v-.591Z" fill="#aefbff"/>
        <path id="Path_81" data-name="Path 81" d="M480.047,251.17c0,1.816-.644,2.451-1.793,1.787a4.2,4.2,0,0,1-1.8-3.861c0-1.807.643-2.444,1.8-1.776A4.2,4.2,0,0,1,480.047,251.17Zm-3.04-1.754c0,1.527.422,2.547,1.247,3.021.809.469,1.239-.058,1.239-1.586s-.43-2.535-1.239-3C477.429,247.373,477.007,247.889,477.007,249.416Z" fill="#aefbff"/>
        <path id="Path_82" data-name="Path 82" d="M484.321,253.639c0,1.814-.644,2.451-1.793,1.787a4.205,4.205,0,0,1-1.8-3.862c0-1.806.645-2.443,1.8-1.775A4.2,4.2,0,0,1,484.321,253.639Zm-3.039-1.756c0,1.527.422,2.547,1.246,3.023s1.239-.06,1.239-1.588-.428-2.533-1.239-3S481.282,250.355,481.282,251.883Z" fill="#aefbff"/>
        <path id="Path_83" data-name="Path 83" d="M488.6,256.107c0,1.815-.644,2.45-1.793,1.785a4.2,4.2,0,0,1-1.8-3.861c0-1.806.643-2.441,1.8-1.775A4.2,4.2,0,0,1,488.6,256.107Zm-3.04-1.756c0,1.528.423,2.547,1.247,3.022s1.239-.059,1.239-1.586-.429-2.535-1.239-3S485.556,252.824,485.556,254.351Z" fill="#aefbff"/>
        <path id="Path_84" data-name="Path 84" d="M492.871,258.574c0,1.816-.644,2.451-1.793,1.787a4.2,4.2,0,0,1-1.8-3.861c0-1.807.644-2.443,1.8-1.775A4.2,4.2,0,0,1,492.871,258.574Zm-3.04-1.754c0,1.527.423,2.545,1.247,3.022.809.468,1.239-.061,1.239-1.588s-.43-2.533-1.239-3C490.254,254.777,489.831,255.293,489.831,256.82Z" fill="#aefbff"/>
        <path id="Path_85" data-name="Path 85" d="M495.7,257.408v5.606l-.554-.321V257.68L494,257.021v-.591Z" fill="#aefbff"/>
        <path id="Path_86" data-name="Path 86" d="M499.973,259.877v5.6l-.554-.32v-5.014l-1.142-.66v-.59Z" fill="#aefbff"/>
        <path id="Path_87" data-name="Path 87" d="M504.248,262.346v5.6l-.554-.32v-5.014l-1.142-.658v-.592Z" fill="#aefbff"/>
        <path id="Path_88" data-name="Path 88" d="M480.047,260.769c0,1.817-.644,2.452-1.793,1.788a4.2,4.2,0,0,1-1.8-3.862c0-1.806.643-2.443,1.8-1.775A4.2,4.2,0,0,1,480.047,260.769Zm-3.04-1.754c0,1.528.422,2.547,1.247,3.022.809.469,1.239-.059,1.239-1.586s-.43-2.535-1.239-3C477.429,256.972,477.007,257.488,477.007,259.015Z" fill="#aefbff"/>
        <path id="Path_89" data-name="Path 89" d="M484.321,263.238c0,1.815-.644,2.451-1.793,1.787a4.2,4.2,0,0,1-1.8-3.861c0-1.807.645-2.443,1.8-1.775A4.2,4.2,0,0,1,484.321,263.238Zm-3.039-1.756c0,1.528.422,2.547,1.246,3.024s1.239-.061,1.239-1.588-.428-2.533-1.239-3S481.282,259.955,481.282,261.482Z" fill="#aefbff"/>
        <path id="Path_90" data-name="Path 90" d="M488.6,265.707c0,1.814-.644,2.449-1.793,1.785a4.2,4.2,0,0,1-1.8-3.861c0-1.807.643-2.442,1.8-1.776A4.2,4.2,0,0,1,488.6,265.707Zm-3.04-1.756c0,1.527.423,2.547,1.247,3.021s1.239-.058,1.239-1.585-.429-2.536-1.239-3S485.556,262.424,485.556,263.951Z" fill="#aefbff"/>
        <path id="Path_91" data-name="Path 91" d="M491.424,264.541v5.6l-.554-.318v-5.014l-1.143-.66v-.592Z" fill="#aefbff"/>
        <path id="Path_92" data-name="Path 92" d="M497.145,270.642c0,1.815-.643,2.45-1.793,1.788a4.206,4.206,0,0,1-1.8-3.864c0-1.806.644-2.441,1.8-1.773A4.193,4.193,0,0,1,497.145,270.642Zm-3.039-1.755c0,1.527.422,2.546,1.246,3.023s1.24-.06,1.24-1.588-.429-2.533-1.24-3S494.106,267.359,494.106,268.887Z" fill="#aefbff"/>
        <path id="Path_93" data-name="Path 93" d="M499.973,269.476v5.606l-.554-.32v-5.014l-1.142-.66v-.59Z" fill="#aefbff"/>
        <path id="Path_94" data-name="Path 94" d="M504.248,271.945v5.6l-.554-.321v-5.013l-1.142-.658v-.592Z" fill="#aefbff"/>
        <path id="Path_95" data-name="Path 95" d="M478.6,266.736v5.606l-.553-.321v-5.013l-1.143-.658v-.592Z" fill="#aefbff"/>
        <path id="Path_96" data-name="Path 96" d="M484.321,272.838c0,1.816-.644,2.451-1.793,1.787a4.2,4.2,0,0,1-1.8-3.861c0-1.807.645-2.444,1.8-1.776A4.2,4.2,0,0,1,484.321,272.838Zm-3.039-1.754c0,1.527.422,2.547,1.246,3.021s1.239-.058,1.239-1.586-.428-2.535-1.239-3S481.282,269.557,481.282,271.084Z" fill="#aefbff"/>
        <path id="Path_97" data-name="Path 97" d="M488.6,275.307c0,1.816-.644,2.451-1.793,1.787a4.2,4.2,0,0,1-1.8-3.862c0-1.806.643-2.443,1.8-1.775A4.2,4.2,0,0,1,488.6,275.307Zm-3.04-1.756c0,1.527.423,2.546,1.247,3.023s1.239-.06,1.239-1.588-.429-2.533-1.239-3S485.556,272.023,485.556,273.551Z" fill="#aefbff"/>
        <path id="Path_98" data-name="Path 98" d="M492.871,277.775c0,1.815-.644,2.45-1.793,1.787a4.2,4.2,0,0,1-1.8-3.863c0-1.807.644-2.441,1.8-1.773A4.2,4.2,0,0,1,492.871,277.775Zm-3.04-1.756c0,1.528.423,2.547,1.247,3.024.809.467,1.239-.061,1.239-1.588s-.43-2.533-1.239-3C490.254,273.976,489.831,274.492,489.831,276.019Z" fill="#aefbff"/>
        <path id="Path_99" data-name="Path 99" d="M495.7,276.609v5.6l-.554-.319v-5.013l-1.141-.66v-.59Z" fill="#aefbff"/>
        <path id="Path_100" data-name="Path 100" d="M501.421,282.711c0,1.814-.645,2.451-1.793,1.787a4.2,4.2,0,0,1-1.8-3.861c0-1.807.643-2.444,1.8-1.776A4.2,4.2,0,0,1,501.421,282.711Zm-3.04-1.756c0,1.527.422,2.547,1.247,3.023.809.467,1.238-.06,1.238-1.588s-.429-2.533-1.238-3C498.8,278.914,498.381,279.428,498.381,280.955Z" fill="#aefbff"/>
        <path id="Path_101" data-name="Path 101" d="M504.248,281.545v5.6l-.554-.32v-5.014l-1.142-.66v-.59Z" fill="#aefbff"/>
        <path id="Path_102" data-name="Path 102" d="M478.6,276.336v5.605l-.553-.32v-5.014l-1.143-.658v-.592Z" fill="#aefbff"/>
        <path id="Path_103" data-name="Path 103" d="M482.874,278.8v5.605l-.554-.32v-5.014l-1.142-.66v-.59Z" fill="#aefbff"/>
        <path id="Path_104" data-name="Path 104" d="M487.149,281.273v5.6l-.555-.32v-5.014l-1.141-.658v-.592Z" fill="#aefbff"/>
        <path id="Path_105" data-name="Path 105" d="M492.871,287.375c0,1.814-.644,2.449-1.793,1.787a4.2,4.2,0,0,1-1.8-3.863c0-1.807.644-2.442,1.8-1.774A4.2,4.2,0,0,1,492.871,287.375Zm-3.04-1.756c0,1.527.423,2.547,1.247,3.023.809.467,1.239-.06,1.239-1.587s-.43-2.534-1.239-3C490.254,283.576,489.831,284.092,489.831,285.619Z" fill="#aefbff"/>
        <path id="Path_106" data-name="Path 106" d="M497.145,289.842c0,1.816-.643,2.451-1.793,1.787a4.2,4.2,0,0,1-1.8-3.862c0-1.806.644-2.443,1.8-1.775A4.2,4.2,0,0,1,497.145,289.842Zm-3.039-1.754c0,1.527.422,2.547,1.246,3.021s1.24-.058,1.24-1.586-.429-2.535-1.24-3S494.106,286.56,494.106,288.088Z" fill="#aefbff"/>
        <path id="Path_107" data-name="Path 107" d="M501.421,292.31c0,1.815-.645,2.452-1.793,1.787a4.2,4.2,0,0,1-1.8-3.861c0-1.806.643-2.443,1.8-1.775A4.2,4.2,0,0,1,501.421,292.31Zm-3.04-1.755c0,1.527.422,2.546,1.247,3.023.809.467,1.238-.061,1.238-1.588s-.429-2.533-1.238-3C498.8,288.514,498.381,289.027,498.381,290.555Z" fill="#aefbff"/>
        <path id="Path_108" data-name="Path 108" d="M505.7,294.779c0,1.815-.643,2.449-1.793,1.785a4.2,4.2,0,0,1-1.8-3.861c0-1.807.644-2.441,1.8-1.775A4.2,4.2,0,0,1,505.7,294.779Zm-3.04-1.756c0,1.528.423,2.547,1.247,3.022s1.239-.059,1.239-1.586-.429-2.535-1.239-3S502.655,291.5,502.655,293.023Z" fill="#aefbff"/>
        <path id="Path_109" data-name="Path 109" d="M478.6,285.935v5.606l-.553-.32v-5.014l-1.143-.658v-.592Z" fill="#aefbff"/>
        <path id="Path_110" data-name="Path 110" d="M482.874,288.4v5.606l-.554-.321v-5.013l-1.142-.661v-.589Z" fill="#aefbff"/>
        <path id="Path_111" data-name="Path 111" d="M487.149,290.873v5.6l-.555-.32v-5.014l-1.141-.658v-.592Z" fill="#aefbff"/>
        <path id="Path_112" data-name="Path 112" d="M492.871,296.975c0,1.814-.644,2.449-1.793,1.787a4.2,4.2,0,0,1-1.8-3.864c0-1.806.644-2.441,1.8-1.773A4.2,4.2,0,0,1,492.871,296.975Zm-3.04-1.756c0,1.527.423,2.546,1.247,3.023.809.467,1.239-.06,1.239-1.588s-.43-2.533-1.239-3C490.254,293.176,489.831,293.691,489.831,295.219Z" fill="#aefbff"/>
        <path id="Path_113" data-name="Path 113" d="M497.145,299.441c0,1.817-.643,2.451-1.793,1.787a4.2,4.2,0,0,1-1.8-3.861c0-1.807.644-2.443,1.8-1.775A4.2,4.2,0,0,1,497.145,299.441Zm-3.039-1.754c0,1.528.422,2.547,1.246,3.022s1.24-.059,1.24-1.586-.429-2.535-1.24-3S494.106,296.16,494.106,297.687Z" fill="#aefbff"/>
        <path id="Path_114" data-name="Path 114" d="M501.421,301.91c0,1.815-.645,2.451-1.793,1.787a4.2,4.2,0,0,1-1.8-3.861c0-1.807.643-2.444,1.8-1.776A4.2,4.2,0,0,1,501.421,301.91Zm-3.04-1.756c0,1.528.422,2.547,1.247,3.024.809.466,1.238-.061,1.238-1.588s-.429-2.533-1.238-3C498.8,298.113,498.381,298.627,498.381,300.154Z" fill="#aefbff"/>
        <path id="Path_115" data-name="Path 115" d="M504.248,300.744v5.606l-.554-.321v-5.014l-1.142-.66v-.59Z" fill="#aefbff"/>
        <path id="Path_116" data-name="Path 116" d="M480.047,299.17c0,1.816-.644,2.451-1.793,1.787a4.2,4.2,0,0,1-1.8-3.861c0-1.807.643-2.444,1.8-1.776A4.2,4.2,0,0,1,480.047,299.17Zm-3.04-1.754c0,1.527.422,2.547,1.247,3.021.809.469,1.239-.058,1.239-1.586s-.43-2.535-1.239-3C477.429,295.373,477.007,295.889,477.007,297.416Z" fill="#aefbff"/>
        <path id="Path_117" data-name="Path 117" d="M482.874,298.006v5.6l-.554-.32v-5.014l-1.142-.658v-.592Z" fill="#aefbff"/>
        <path id="Path_118" data-name="Path 118" d="M487.149,300.472v5.606l-.555-.32v-5.014l-1.141-.66v-.59Z" fill="#aefbff"/>
        <path id="Path_119" data-name="Path 119" d="M491.424,302.941v5.6l-.554-.319v-5.013l-1.143-.66v-.592Z" fill="#aefbff"/>
        <path id="Path_120" data-name="Path 120" d="M497.145,309.043c0,1.814-.643,2.449-1.793,1.787a4.205,4.205,0,0,1-1.8-3.863c0-1.807.644-2.442,1.8-1.774A4.194,4.194,0,0,1,497.145,309.043Zm-3.039-1.756c0,1.527.422,2.547,1.246,3.023s1.24-.06,1.24-1.588-.429-2.533-1.24-3S494.106,305.76,494.106,307.287Z" fill="#aefbff"/>
        <path id="Path_121" data-name="Path 121" d="M501.421,311.51c0,1.816-.645,2.451-1.793,1.787a4.2,4.2,0,0,1-1.8-3.862c0-1.806.643-2.443,1.8-1.775A4.2,4.2,0,0,1,501.421,311.51Zm-3.04-1.754c0,1.527.422,2.547,1.247,3.021.809.469,1.238-.058,1.238-1.586s-.429-2.535-1.238-3C498.8,307.713,498.381,308.228,498.381,309.756Z" fill="#aefbff"/>
        <path id="Path_122" data-name="Path 122" d="M505.7,313.978c0,1.817-.643,2.452-1.793,1.787a4.2,4.2,0,0,1-1.8-3.861c0-1.807.644-2.443,1.8-1.775A4.2,4.2,0,0,1,505.7,313.978Zm-3.04-1.756c0,1.528.423,2.547,1.247,3.024s1.239-.061,1.239-1.588-.429-2.533-1.239-3S502.655,310.7,502.655,312.222Z" fill="#aefbff"/>
        <path id="Path_123" data-name="Path 123" d="M480.047,308.769c0,1.817-.644,2.452-1.793,1.788a4.2,4.2,0,0,1-1.8-3.862c0-1.806.643-2.443,1.8-1.775A4.2,4.2,0,0,1,480.047,308.769Zm-3.04-1.754c0,1.528.422,2.547,1.247,3.022.809.469,1.239-.059,1.239-1.586s-.43-2.535-1.239-3C477.429,304.972,477.007,305.488,477.007,307.015Z" fill="#aefbff"/>
        <path id="Path_124" data-name="Path 124" d="M482.874,307.605v5.6l-.554-.32v-5.014l-1.142-.658v-.592Z" fill="#aefbff"/>
        <path id="Path_125" data-name="Path 125" d="M487.149,310.072v5.606l-.555-.321v-5.013l-1.141-.661v-.589Z" fill="#aefbff"/>
        <path id="Path_126" data-name="Path 126" d="M492.871,316.174c0,1.816-.644,2.451-1.793,1.787a4.2,4.2,0,0,1-1.8-3.861c0-1.807.644-2.444,1.8-1.776A4.2,4.2,0,0,1,492.871,316.174Zm-3.04-1.754c0,1.527.423,2.545,1.247,3.021.809.469,1.239-.06,1.239-1.588s-.43-2.533-1.239-3C490.254,312.377,489.831,312.892,489.831,314.42Z" fill="#aefbff"/>
        <path id="Path_127" data-name="Path 127" d="M495.7,315.008v5.605l-.554-.32v-5.014L494,314.621v-.592Z" fill="#aefbff"/>
        <path id="Path_128" data-name="Path 128" d="M499.973,317.476v5.606l-.554-.32v-5.014l-1.142-.66v-.59Z" fill="#aefbff"/>
        <path id="Path_129" data-name="Path 129" d="M505.7,323.578c0,1.816-.643,2.451-1.793,1.787a4.2,4.2,0,0,1-1.8-3.861c0-1.807.644-2.444,1.8-1.776A4.2,4.2,0,0,1,505.7,323.578Zm-3.04-1.756c0,1.528.423,2.547,1.247,3.024s1.239-.061,1.239-1.588-.429-2.533-1.239-3S502.655,320.3,502.655,321.822Z" fill="#aefbff"/>
        <path id="Path_130" data-name="Path 130" d="M480.047,318.371c0,1.814-.644,2.449-1.793,1.787a4.2,4.2,0,0,1-1.8-3.863c0-1.807.643-2.442,1.8-1.774A4.2,4.2,0,0,1,480.047,318.371Zm-3.04-1.756c0,1.527.422,2.547,1.247,3.024.809.466,1.239-.061,1.239-1.588s-.43-2.534-1.239-3C477.429,314.574,477.007,315.088,477.007,316.615Z" fill="#aefbff"/>
        <path id="Path_131" data-name="Path 131" d="M484.321,320.838c0,1.816-.644,2.451-1.793,1.787a4.2,4.2,0,0,1-1.8-3.861c0-1.807.645-2.444,1.8-1.776A4.2,4.2,0,0,1,484.321,320.838Zm-3.039-1.754c0,1.527.422,2.547,1.246,3.021s1.239-.058,1.239-1.586-.428-2.535-1.239-3S481.282,317.557,481.282,319.084Z" fill="#aefbff"/>
        <path id="Path_132" data-name="Path 132" d="M488.6,323.307c0,1.816-.644,2.451-1.793,1.787a4.2,4.2,0,0,1-1.8-3.862c0-1.806.643-2.443,1.8-1.775A4.2,4.2,0,0,1,488.6,323.307Zm-3.04-1.756c0,1.527.423,2.546,1.247,3.023s1.239-.06,1.239-1.588-.429-2.533-1.239-3S485.556,320.023,485.556,321.551Z" fill="#aefbff"/>
        <path id="Path_133" data-name="Path 133" d="M491.424,322.14v5.606l-.554-.32v-5.014l-1.143-.66v-.59Z" fill="#aefbff"/>
        <path id="Path_134" data-name="Path 134" d="M495.7,324.609v5.6l-.554-.319v-5.013l-1.141-.66v-.59Z" fill="#aefbff"/>
        <path id="Path_135" data-name="Path 135" d="M499.973,327.078v5.6l-.554-.321v-5.014l-1.142-.658V326.1Z" fill="#aefbff"/>
        <path id="Path_136" data-name="Path 136" d="M505.7,333.18c0,1.814-.643,2.449-1.793,1.785a4.2,4.2,0,0,1-1.8-3.862c0-1.806.644-2.441,1.8-1.775A4.2,4.2,0,0,1,505.7,333.18Zm-3.04-1.756c0,1.527.423,2.547,1.247,3.021s1.239-.058,1.239-1.586-.429-2.535-1.239-3S502.655,329.9,502.655,331.424Z" fill="#aefbff"/>
      </g>
      <path id="Path_137" data-name="Path 137" d="M571.968,332.018,530.956,355.7l2.171-177.834,39.5-23.371Z" fill="url(#linear-gradient-2)"/>
      <path id="Path_138" data-name="Path 138" d="M633.836,405.137l-70.626-40.776V98.2l72.863,35.616Z" fill="url(#linear-gradient-7)"/>
      <path id="Path_139" data-name="Path 139" d="M695.332,369.012l-62.57,36.125,3.313-271.319,60.259-35.657Z" fill="url(#linear-gradient-8)"/>
      <g id="Group_7" data-name="Group 7" opacity="0.67" style="mix-blend-mode: color-dodge;isolation: isolate">
        <path id="Path_140" data-name="Path 140" d="M600.969,170.207l-60.382-27.458v-19.92l60.382,26.462Z" fill="#21cde1"/>
        <path id="Path_141" data-name="Path 141" d="M600.969,206.778l-60.382-28.454V158.4l60.382,28.454Z" fill="#21cde1"/>
        <path id="Path_142" data-name="Path 142" d="M600.969,242.353l-60.382-27.314v-19.92l60.382,27.314Z" fill="#21cde1"/>
      </g>
      <g id="Group_8" data-name="Group 8" style="mix-blend-mode: overlay;isolation: isolate">
        <path id="Path_143" data-name="Path 143" d="M668.074,282.966l52.973-24.089V241.4l-52.973,23.215Z" fill="#aefbff"/>
        <path id="Path_144" data-name="Path 144" d="M668.074,315.05l52.973-24.962V272.611l-52.973,24.962Z" fill="#aefbff"/>
        <path id="Path_145" data-name="Path 145" d="M668.074,346.259,721.047,322.3V304.821l-52.973,23.962Z" fill="#aefbff"/>
      </g>
      <g id="Group_12" data-name="Group 12">
        <g id="Group_10" data-name="Group 10">
          <path id="Path_146" data-name="Path 146" d="M501.585,435.8l-117.12-68.19c-1.8-1.049-2.565-1.868-2.748-3.311-.054-.43.027-3.785.112-4.223.333-1.7,1.435-1.042,3.826-2.419l67.558-38.922,131.749,74.256.008,1.783a2.8,2.8,0,0,1-1.384,2.427l-64.81,37.963C513.7,438.086,506,438.371,501.585,435.8Z" fill="#a4c9ff"/>
          <path id="Path_147" data-name="Path 147" d="M501.22,431.6v3.981l.365.213c4.419,2.573,12.116,2.288,17.191-.636l.391-.229v-4.192C513.684,430.728,506.712,431.821,501.22,431.6Z" fill="#a4c9ff"/>
          <path id="Path_148" data-name="Path 148" d="M500.653,432.867,384.671,365.339c-4.375-2.547-3.827-7,1.226-9.939l67.252-39.156L584.976,393l-67.252,39.156C512.672,435.1,505.029,435.415,500.653,432.867Z" fill="url(#linear-gradient-9)"/>
          <path id="Path_149" data-name="Path 149" d="M466.766,402.246l-35.883-20.892,17.358-9.921,35.883,20.892Z" fill="#bbd4ff"/>
          <path id="Path_150" data-name="Path 150" d="M443.413,394.771,425.8,384.515l4.614-2.687,17.614,10.255Z" fill="#bbd4ff"/>
          <path id="Path_151" data-name="Path 151" d="M462.311,406,444.7,395.742l4.614-2.687,17.614,10.256Z" fill="#bbd4ff"/>
          <g id="Group_9" data-name="Group 9">
            <path id="Path_152" data-name="Path 152" d="M521.748,381.627l-5.7,3.382,5.245,3.045,5.7-3.382Z" fill="#bbd4ff"/>
            <path id="Path_153" data-name="Path 153" d="M534.125,381.154l-5.915,3.512,4.915,2.854,5.915-3.512Z" fill="#bbd4ff"/>
            <path id="Path_154" data-name="Path 154" d="M516.305,370.095l5.78,3.356,5.7-3.382L522,366.713Z" fill="#bbd4ff"/>
            <path id="Path_155" data-name="Path 155" d="M485.006,367.694l-5.78-3.356-5.059,3,5.78,3.356Z" fill="#bbd4ff"/>
            <path id="Path_156" data-name="Path 156" d="M528.877,377.394l5.245,3.045,5.7-3.382-5.245-3.045Z" fill="#bbd4ff"/>
            <path id="Path_157" data-name="Path 157" d="M522.695,373.8l5.573,3.236,5.7-3.382-5.573-3.236Z" fill="#bbd4ff"/>
            <path id="Path_158" data-name="Path 158" d="M532.518,387.88l-4.915-2.854-5.7,3.382,4.915,2.854Z" fill="#bbd4ff"/>
            <path id="Path_159" data-name="Path 159" d="M496.74,374.507l-5.245-3.046-5.059,3,5.245,3.046Z" fill="#bbd4ff"/>
            <path id="Path_160" data-name="Path 160" d="M502.265,377.715l-4.915-2.854-5.06,3,4.916,2.854Z" fill="#bbd4ff"/>
            <path id="Path_161" data-name="Path 161" d="M490.885,371.108l-5.27-3.06-5.059,3,5.269,3.06Z" fill="#bbd4ff"/>
            <path id="Path_162" data-name="Path 162" d="M508.655,381.425l-5.78-3.356-5.059,3,5.78,3.356Z" fill="#bbd4ff"/>
            <path id="Path_163" data-name="Path 163" d="M514.837,385.015l-5.573-3.236-5.06,3,5.573,3.236Z" fill="#bbd4ff"/>
            <path id="Path_164" data-name="Path 164" d="M520.692,388.414l-5.245-3.046-5.06,3,5.245,3.046Z" fill="#bbd4ff"/>
            <path id="Path_165" data-name="Path 165" d="M540.427,377.411l-5.7,3.382,4.915,2.854,5.7-3.382Z" fill="#bbd4ff"/>
            <path id="Path_166" data-name="Path 166" d="M450.949,339.807l5.246,3.046,5.915-3.512-5.245-3.046Z" fill="#bbd4ff"/>
            <path id="Path_167" data-name="Path 167" d="M461.719,346.06l5.915-3.512-4.915-2.854-5.915,3.512Z" fill="#bbd4ff"/>
            <path id="Path_168" data-name="Path 168" d="M463.326,339.334l4.915,2.854,5.7-3.382-4.915-2.854Z" fill="#bbd4ff"/>
            <path id="Path_169" data-name="Path 169" d="M449.893,346.595l5.7-3.382-5.246-3.046-5.7,3.382Z" fill="#bbd4ff"/>
            <path id="Path_170" data-name="Path 170" d="M449.751,353.167l5.059-3-4.915-2.854-5.06,3Z" fill="#bbd4ff"/>
            <path id="Path_171" data-name="Path 171" d="M510.78,366.887l4.916,2.854,5.7-3.382-4.916-2.854Z" fill="#bbd4ff"/>
            <path id="Path_172" data-name="Path 172" d="M461.113,346.421l-4.915-2.854-5.7,3.382,4.915,2.854Z" fill="#bbd4ff"/>
            <path id="Path_173" data-name="Path 173" d="M468.85,342.542l5.78,3.356,5.7-3.382-5.78-3.356Z" fill="#bbd4ff"/>
            <path id="Path_174" data-name="Path 174" d="M504.925,363.487l5.246,3.046,5.7-3.382-5.245-3.046Z" fill="#bbd4ff"/>
            <path id="Path_175" data-name="Path 175" d="M487.132,353.156l4.915,2.854,5.7-3.382-4.915-2.854Z" fill="#bbd4ff"/>
            <path id="Path_176" data-name="Path 176" d="M492.656,356.364l5.78,3.356,5.7-3.382-5.78-3.356Z" fill="#bbd4ff"/>
            <path id="Path_177" data-name="Path 177" d="M481.277,349.757l5.245,3.046,5.7-3.382-5.245-3.046Z" fill="#bbd4ff"/>
            <path id="Path_178" data-name="Path 178" d="M475.24,346.252l5.427,3.151,5.7-3.382-5.427-3.151Z" fill="#bbd4ff"/>
            <path id="Path_179" data-name="Path 179" d="M478.616,363.984l-4.915-2.854-5.059,3,4.915,2.854Z" fill="#bbd4ff"/>
            <path id="Path_180" data-name="Path 180" d="M503.042,370.766,497.8,367.72l-5.7,3.382,5.246,3.046Z" fill="#bbd4ff"/>
            <path id="Path_181" data-name="Path 181" d="M484.918,360.243,480,357.389l-5.7,3.382,4.915,2.854Z" fill="#bbd4ff"/>
            <path id="Path_182" data-name="Path 182" d="M491.308,363.953l-5.78-3.356-5.7,3.382,5.78,3.356Z" fill="#bbd4ff"/>
            <path id="Path_183" data-name="Path 183" d="M497.187,367.366l-5.27-3.06-5.7,3.382,5.27,3.06Z" fill="#bbd4ff"/>
            <path id="Path_184" data-name="Path 184" d="M508.567,373.973l-4.916-2.854-5.7,3.382,4.915,2.854Z" fill="#bbd4ff"/>
            <path id="Path_185" data-name="Path 185" d="M521.139,381.273l-5.573-3.236-5.7,3.382,5.573,3.236Z" fill="#bbd4ff"/>
            <path id="Path_186" data-name="Path 186" d="M514.957,377.683l-5.78-3.356-5.7,3.382,5.78,3.356Z" fill="#bbd4ff"/>
            <path id="Path_187" data-name="Path 187" d="M526.826,391.976l-5.06,3,5.78,3.356,5.06-3Z" fill="#bbd4ff"/>
            <path id="Path_188" data-name="Path 188" d="M534.782,403.249,521.16,395.34l-5.7,3.382,5.78,3.356.162-.1.172.29,7.388,4.29Z" fill="#bbd4ff"/>
            <path id="Path_189" data-name="Path 189" d="M516.173,377.677l5.573,3.236,5.915-3.512-5.573-3.236Z" fill="#bbd4ff"/>
            <path id="Path_190" data-name="Path 190" d="M533.515,380.8l-5.245-3.045-5.915,3.512,5.245,3.045Z" fill="#bbd4ff"/>
            <path id="Path_191" data-name="Path 191" d="M479.394,357.035l-5.246-3.046-5.7,3.382,5.246,3.046Z" fill="#bbd4ff"/>
            <path id="Path_192" data-name="Path 192" d="M462.417,353.866l5.427,3.151,5.7-3.382-5.427-3.151Z" fill="#bbd4ff"/>
            <path id="Path_193" data-name="Path 193" d="M456.141,356.877l5.059-3-5.78-3.356-5.059,3Z" fill="#bbd4ff"/>
            <path id="Path_194" data-name="Path 194" d="M509.783,373.967l5.78,3.356,5.915-3.512-5.78-3.356Z" fill="#bbd4ff"/>
            <path id="Path_195" data-name="Path 195" d="M468.719,350.124l5.427,3.151,5.915-3.512-5.427-3.151Z" fill="#bbd4ff"/>
            <path id="Path_196" data-name="Path 196" d="M443.449,356.909l5.7-3.382-4.915-2.854-5.7,3.382Z" fill="#bbd4ff"/>
            <path id="Path_197" data-name="Path 197" d="M462.329,346.414l5.78,3.356,5.915-3.512-5.78-3.356Z" fill="#bbd4ff"/>
            <path id="Path_198" data-name="Path 198" d="M473.092,360.777l-5.246-3.046-5.059,3,5.246,3.046Z" fill="#bbd4ff"/>
            <path id="Path_199" data-name="Path 199" d="M467.237,357.377l-5.427-3.151-5.059,3,5.427,3.151Z" fill="#bbd4ff"/>
            <path id="Path_200" data-name="Path 200" d="M461.807,353.512l5.7-3.382-5.78-3.356-5.7,3.382Z" fill="#bbd4ff"/>
            <path id="Path_201" data-name="Path 201" d="M498.4,367.36l5.245,3.046,5.915-3.512-5.245-3.046Z" fill="#bbd4ff"/>
            <path id="Path_202" data-name="Path 202" d="M504.258,370.759l4.916,2.854,5.915-3.512-4.916-2.854Z" fill="#bbd4ff"/>
            <path id="Path_203" data-name="Path 203" d="M492.524,363.946l5.27,3.06,5.915-3.512-5.27-3.06Z" fill="#bbd4ff"/>
            <path id="Path_204" data-name="Path 204" d="M480.61,357.029l4.915,2.854,5.915-3.512-4.915-2.854Z" fill="#bbd4ff"/>
            <path id="Path_205" data-name="Path 205" d="M474.755,353.629,480,356.675l5.915-3.512-5.246-3.046Z" fill="#bbd4ff"/>
            <path id="Path_206" data-name="Path 206" d="M486.135,360.236l5.78,3.356,5.915-3.512-5.78-3.356Z" fill="#bbd4ff"/>
            <path id="Path_207" data-name="Path 207" d="M499.046,360.074l5.27,3.06,5.7-3.382-5.27-3.06Z" fill="#bbd4ff"/>
            <path id="Path_208" data-name="Path 208" d="M443.62,350.319l-5.246-3.046-5.7,3.382,5.246,3.046Z" fill="#bbd4ff"/>
            <path id="Path_209" data-name="Path 209" d="M432.07,350.3l5.7-3.382-5.832-3.386-5.7,3.382Z" fill="#bbd4ff"/>
            <path id="Path_210" data-name="Path 210" d="M429.633,358.624l7.685-4.563-5.245-3.046-7.678,4.559Z" fill="#bbd4ff"/>
            <path id="Path_211" data-name="Path 211" d="M449.233,360.979l-5.781-3.356-7.694,4.568,5.773,3.361Z" fill="#bbd4ff"/>
            <path id="Path_212" data-name="Path 212" d="M442.843,357.269l-4.915-2.854-7.686,4.564,4.908,2.858Z" fill="#bbd4ff"/>
            <path id="Path_213" data-name="Path 213" d="M484.772,381.614l-34.93-20.281-7.7,4.574,34.882,20.309Z" fill="#bbd4ff"/>
            <path id="Path_214" data-name="Path 214" d="M490.3,384.822l-4.916-2.854-7.751,4.6,4.909,2.858Z" fill="#bbd4ff"/>
            <path id="Path_215" data-name="Path 215" d="M444.227,349.959l5.06-3L437.6,340.169l-5.06,3Z" fill="#bbd4ff"/>
            <path id="Path_216" data-name="Path 216" d="M463.773,332.193l5.246,3.046,4.6-2.732-5.285-3.022Z" fill="#bbd4ff"/>
            <path id="Path_217" data-name="Path 217" d="M462.717,338.98l5.7-3.382-5.246-3.046-5.7,3.382Z" fill="#bbd4ff"/>
            <path id="Path_218" data-name="Path 218" d="M469.628,335.592l4.915,2.854,4.642-2.756-4.952-2.832Z" fill="#bbd4ff"/>
            <path id="Path_219" data-name="Path 219" d="M451.03,332.195l5.832,3.386,5.7-3.382-5.832-3.386Z" fill="#bbd4ff"/>
            <path id="Path_220" data-name="Path 220" d="M450.34,339.453l5.915-3.512-5.832-3.386-5.915,3.512Z" fill="#bbd4ff"/>
            <path id="Path_221" data-name="Path 221" d="M444.038,343.2l5.7-3.382-5.832-3.386-5.7,3.382Z" fill="#bbd4ff"/>
            <path id="Path_222" data-name="Path 222" d="M475.153,338.8l5.78,3.356,4.689-2.785-5.823-3.331Z" fill="#bbd4ff"/>
            <path id="Path_223" data-name="Path 223" d="M463.164,331.839l4.557-2.706-5.875-3.36-4.513,2.68Z" fill="#bbd4ff"/>
            <path id="Path_224" data-name="Path 224" d="M557.7,380.6l.241.407-5,2.967,7.762,4.507,5.4-3.075Z" fill="#bbd4ff"/>
            <path id="Path_225" data-name="Path 225" d="M496.687,388.531l-5.78-3.356-7.759,4.607,5.772,3.361Z" fill="#bbd4ff"/>
            <path id="Path_226" data-name="Path 226" d="M431.463,350.661l-5.832-3.386-7.669,4.554,5.824,3.391Z" fill="#bbd4ff"/>
            <path id="Path_227" data-name="Path 227" d="M546.039,388.071l-5.915,3.512,7.495,4.352,6.038-3.441Z" fill="#bbd4ff"/>
            <path id="Path_228" data-name="Path 228" d="M521.248,402.792l-7.8,4.631,6.928,4.034,7.973-4.543Z" fill="#bbd4ff"/>
            <path id="Path_229" data-name="Path 229" d="M552.341,384.329l-5.7,3.382,7.631,4.431,5.814-3.313Z" fill="#bbd4ff"/>
            <path id="Path_230" data-name="Path 230" d="M539.517,391.944l-5.7,3.382,7.363,4.275L547,396.288Z" fill="#bbd4ff"/>
            <path id="Path_231" data-name="Path 231" d="M514.248,398.728l-4.915-2.854L501.55,400.5l4.908,2.858Z" fill="#bbd4ff"/>
            <path id="Path_232" data-name="Path 232" d="M502.869,392.121l-5.573-3.236-7.767,4.612,5.565,3.24Z" fill="#bbd4ff"/>
            <path id="Path_233" data-name="Path 233" d="M508.724,395.52l-5.245-3.045-7.776,4.617,5.238,3.05Z" fill="#bbd4ff"/>
            <path id="Path_234" data-name="Path 234" d="M520.638,402.438l-5.78-3.356-7.791,4.626,5.772,3.361Z" fill="#bbd4ff"/>
            <path id="Path_235" data-name="Path 235" d="M533.216,395.685l-5.06,3L535.4,402.9l5.165-2.943Z" fill="#bbd4ff"/>
            <path id="Path_236" data-name="Path 236" d="M467.426,364.141,462.18,361.1l-5.7,3.382,5.246,3.046Z" fill="#bbd4ff"/>
            <path id="Path_237" data-name="Path 237" d="M509.171,388.379l-5.573-3.236-5.7,3.382,5.573,3.236Z" fill="#bbd4ff"/>
            <path id="Path_238" data-name="Path 238" d="M515.026,391.779l-5.245-3.046-5.7,3.382,5.245,3.046Z" fill="#bbd4ff"/>
            <path id="Path_239" data-name="Path 239" d="M502.989,384.79l-5.78-3.356-5.7,3.382,5.78,3.356Z" fill="#bbd4ff"/>
            <path id="Path_240" data-name="Path 240" d="M496.6,381.08l-4.915-2.854-5.7,3.382,4.915,2.854Z" fill="#bbd4ff"/>
            <path id="Path_241" data-name="Path 241" d="M520.55,394.986l-4.915-2.854-5.7,3.382,4.915,2.854Z" fill="#bbd4ff"/>
            <path id="Path_242" data-name="Path 242" d="M521.3,388.768l-5.059,3,4.915,2.854,5.06-3Z" fill="#bbd4ff"/>
            <path id="Path_243" data-name="Path 243" d="M485.219,374.472l-5.269-3.059-5.7,3.382,5.269,3.06Z" fill="#bbd4ff"/>
            <path id="Path_244" data-name="Path 244" d="M455.535,357.237l-5.78-3.356-5.7,3.382,5.78,3.356Z" fill="#bbd4ff"/>
            <path id="Path_245" data-name="Path 245" d="M491.074,377.872l-5.245-3.046-5.7,3.382,5.245,3.046Z" fill="#bbd4ff"/>
            <path id="Path_246" data-name="Path 246" d="M472.95,367.349l-4.915-2.854-5.7,3.382,4.915,2.854Z" fill="#bbd4ff"/>
            <path id="Path_247" data-name="Path 247" d="M461.571,360.742l-5.427-3.151-5.7,3.382,5.427,3.151Z" fill="#bbd4ff"/>
            <path id="Path_248" data-name="Path 248" d="M479.34,371.059l-5.78-3.356-5.7,3.382,5.78,3.356Z" fill="#bbd4ff"/>
            <path id="Path_249" data-name="Path 249" d="M481.542,342.51l5.427,3.151,4.735-2.811-5.468-3.127Z" fill="#bbd4ff"/>
            <path id="Path_250" data-name="Path 250" d="M533.128,388.234l-5.7,3.382,5.78,3.356,5.7-3.382Z" fill="#bbd4ff"/>
            <path id="Path_251" data-name="Path 251" d="M539.65,384.362l-5.915,3.512,5.78,3.356,5.915-3.512Z" fill="#bbd4ff"/>
            <path id="Path_252" data-name="Path 252" d="M511.227,359.745l5.245,3.046,4.955-2.942-5.285-3.022Z" fill="#bbd4ff"/>
            <path id="Path_253" data-name="Path 253" d="M498.958,352.622l5.78,3.356,4.867-2.89-5.823-3.33Z" fill="#bbd4ff"/>
            <path id="Path_254" data-name="Path 254" d="M505.348,356.332l5.27,3.06,4.911-2.916-5.309-3.036Z" fill="#bbd4ff"/>
            <path id="Path_255" data-name="Path 255" d="M493.434,349.414l4.915,2.854,4.82-2.862-4.952-2.832Z" fill="#bbd4ff"/>
            <path id="Path_256" data-name="Path 256" d="M487.579,346.015l5.245,3.046,4.778-2.837-5.285-3.022Z" fill="#bbd4ff"/>
            <path id="Path_257" data-name="Path 257" d="M517.082,363.145,522,366l5-2.967-4.952-2.832Z" fill="#bbd4ff"/>
            <path id="Path_258" data-name="Path 258" d="M551.716,377.171l.011.019-5.169,3.069,5.78,3.356,5.223-3.1Z" fill="#bbd4ff"/>
            <path id="Path_259" data-name="Path 259" d="M545.952,380.619l-5.7,3.382,5.78,3.356,5.7-3.382Z" fill="#bbd4ff"/>
            <path id="Path_260" data-name="Path 260" d="M541.034,377.051l4.916,2.854,5.175-3.073L546.172,374Z" fill="#bbd4ff"/>
            <path id="Path_261" data-name="Path 261" d="M535.179,373.652l5.245,3.045,5.134-3.048-5.284-3.022Z" fill="#bbd4ff"/>
            <path id="Path_262" data-name="Path 262" d="M534,367.09,529,370.063l5.573,3.236,5.09-3.022-5.7-3.261Z" fill="#bbd4ff"/>
            <path id="Path_263" data-name="Path 263" d="M522.607,366.353l5.78,3.356,5.044-2.995-5.823-3.331Z" fill="#bbd4ff"/>
          </g>
        </g>
        <g id="Group_11" data-name="Group 11">
          <path id="Path_264" data-name="Path 264" d="M586.8,391.471,456.471,316.225a3.127,3.127,0,0,1-1.305-2.494V215.524c0-.961.826-1.261,1.305-.987L586.8,289.784a3.124,3.124,0,0,1,1.3,2.493v98.208C588.107,391.446,587.523,391.887,586.8,391.471Z" fill="url(#linear-gradient-10)"/>
          <path id="Path_265" data-name="Path 265" d="M586.8,391.471,456.471,316.225a3.127,3.127,0,0,1-1.305-2.494l-2.1-97.8s2.1-1.13,2.373-1.32a.865.865,0,0,1,1.029-.076L586.8,289.784a3.124,3.124,0,0,1,1.3,2.493v98.208C588.107,391.446,587.523,391.887,586.8,391.471Z" fill="url(#linear-gradient-11)"/>
          <path id="Path_266" data-name="Path 266" d="M585.49,392.076l2.617-1.562s.025.735-.4.993l-2.727,1.57A1.374,1.374,0,0,0,585.49,392.076Z" fill="url(#linear-gradient-12)"/>
          <path id="Path_267" data-name="Path 267" d="M588.107,390.514l-2.617,1.561V294.191l2.617-1.511Z" fill="url(#linear-gradient-13)"/>
          <path id="Path_268" data-name="Path 268" d="M587.153,290.025l-2.321,1.683L455.992,217.283l2.163-1.773Z" fill="#fff"/>
          <path id="Path_269" data-name="Path 269" d="M584.185,392.983,453.854,317.736a3.125,3.125,0,0,1-1.3-2.494V217.035c0-.961.584-1.4,1.3-.987L584.185,291.3a3.125,3.125,0,0,1,1.3,2.494V392C585.49,392.957,584.906,393.4,584.185,392.983Z" fill="url(#linear-gradient-14)"/>
          <path id="Path_270" data-name="Path 270" d="M577.762,382.8l-117.485-67.83a2.769,2.769,0,0,1-1.157-2.211V227.109c0-.852.518-1.244,1.157-.875l117.485,67.83a2.772,2.772,0,0,1,1.157,2.211v85.647C578.919,382.774,578.4,383.166,577.762,382.8Z" fill="url(#linear-gradient-15)"/>
        </g>
      </g>
      <path id="Path_271" data-name="Path 271" d="M636.074,133.818,563.21,98.2l59.005-35.636a6.537,6.537,0,0,1,2.509,0l71.609,35.6Z" fill="#21cde1"/>
      <g id="Group_14" data-name="Group 14" style="mix-blend-mode: overlay;isolation: isolate">
        <g id="Group_13" data-name="Group 13">
          <path id="Path_272" data-name="Path 272" d="M692.05,120.838c0,2.407-.853,4.235-2.377,5.115s-2.387.043-2.387-2.364.854-4.225,2.387-5.11S692.05,118.443,692.05,120.838Zm-4.029,2.327c0,2.025.56,2.73,1.652,2.1,1.074-.62,1.644-1.977,1.644-4s-.57-2.7-1.644-2.083C688.581,119.81,688.021,121.14,688.021,123.165Z" fill="#aefbff"/>
          <path id="Path_273" data-name="Path 273" d="M697.714,117.569c0,2.407-.854,4.235-2.378,5.114s-2.386.043-2.386-2.364.853-4.224,2.386-5.109S697.714,115.173,697.714,117.569Zm-4.031,2.327c0,2.025.56,2.729,1.653,2.1,1.074-.619,1.643-1.976,1.643-4s-.569-2.7-1.643-2.083C694.243,116.541,693.683,117.871,693.683,119.9Z" fill="#aefbff"/>
          <path id="Path_274" data-name="Path 274" d="M703.376,114.3c0,2.407-.853,4.235-2.377,5.115s-2.387.043-2.387-2.364.853-4.224,2.387-5.11S703.376,111.9,703.376,114.3Zm-4.03,2.327c0,2.025.561,2.73,1.653,2.1,1.073-.62,1.644-1.977,1.644-4s-.571-2.7-1.644-2.082C699.907,113.271,699.346,114.6,699.346,116.626Z" fill="#aefbff"/>
          <path id="Path_275" data-name="Path 275" d="M709.039,111.03c0,2.407-.853,4.235-2.377,5.115s-2.387.043-2.387-2.364.853-4.225,2.387-5.11S709.039,108.635,709.039,111.03Zm-4.031,2.327c0,2.025.561,2.73,1.654,2.1,1.073-.62,1.643-1.977,1.643-4s-.57-2.7-1.643-2.083C705.569,110,705.008,111.332,705.008,113.357Z" fill="#aefbff"/>
          <path id="Path_276" data-name="Path 276" d="M712.783,105.158v7.431l-.735.425v-6.647l-1.514.874v-.784Z" fill="#aefbff"/>
          <path id="Path_277" data-name="Path 277" d="M718.447,101.889v7.431l-.736.424V103.1l-1.515.875v-.784Z" fill="#aefbff"/>
          <path id="Path_278" data-name="Path 278" d="M724.109,98.619v7.432l-.735.424V99.828l-1.515.875v-.785Z" fill="#aefbff"/>
          <path id="Path_279" data-name="Path 279" d="M731.69,97.953c0,2.406-.853,4.234-2.377,5.114s-2.387.043-2.387-2.364.853-4.224,2.387-5.11S731.69,95.557,731.69,97.953Zm-4.031,2.326c0,2.026.561,2.73,1.654,2.1,1.073-.62,1.643-1.977,1.643-4s-.57-2.7-1.643-2.082C728.22,96.925,727.659,98.254,727.659,100.279Z" fill="#aefbff"/>
          <path id="Path_280" data-name="Path 280" d="M692.05,133.556c0,2.407-.853,4.235-2.377,5.114s-2.387.043-2.387-2.364.854-4.224,2.387-5.109S692.05,131.16,692.05,133.556Zm-4.029,2.327c0,2.025.56,2.729,1.652,2.1,1.074-.62,1.644-1.976,1.644-4s-.57-2.7-1.644-2.083C688.581,132.528,688.021,133.858,688.021,135.883Z" fill="#aefbff"/>
          <path id="Path_281" data-name="Path 281" d="M697.714,130.286c0,2.407-.854,4.235-2.378,5.115s-2.386.043-2.386-2.364.853-4.224,2.386-5.11S697.714,127.891,697.714,130.286Zm-4.031,2.327c0,2.025.56,2.73,1.653,2.1,1.074-.62,1.643-1.977,1.643-4s-.569-2.7-1.643-2.083C694.243,129.258,693.683,130.588,693.683,132.613Z" fill="#aefbff"/>
          <path id="Path_282" data-name="Path 282" d="M701.458,124.415v7.431l-.735.424v-6.647l-1.514.875v-.785Z" fill="#aefbff"/>
          <path id="Path_283" data-name="Path 283" d="M709.039,123.748c0,2.406-.853,4.234-2.377,5.114s-2.387.043-2.387-2.364.853-4.224,2.387-5.11S709.039,121.352,709.039,123.748Zm-4.031,2.327c0,2.025.561,2.729,1.654,2.1,1.073-.62,1.643-1.976,1.643-4s-.57-2.7-1.643-2.082C705.569,122.72,705.008,124.05,705.008,126.075Z" fill="#aefbff"/>
          <path id="Path_284" data-name="Path 284" d="M712.783,117.876v7.431l-.735.424v-6.647l-1.514.875v-.784Z" fill="#aefbff"/>
          <path id="Path_285" data-name="Path 285" d="M718.447,114.606v7.432l-.736.424v-6.647l-1.515.875V115.9Z" fill="#aefbff"/>
          <path id="Path_286" data-name="Path 286" d="M724.109,111.337v7.431l-.735.425v-6.647l-1.515.874v-.784Z" fill="#aefbff"/>
          <path id="Path_287" data-name="Path 287" d="M731.69,110.67c0,2.407-.853,4.235-2.377,5.115s-2.387.043-2.387-2.364.853-4.225,2.387-5.11S731.69,108.275,731.69,110.67ZM727.659,113c0,2.025.561,2.729,1.654,2.1,1.073-.62,1.643-1.977,1.643-4s-.57-2.7-1.643-2.083C728.22,109.642,727.659,110.972,727.659,113Z" fill="#aefbff"/>
          <path id="Path_288" data-name="Path 288" d="M692.05,146.274c0,2.407-.853,4.235-2.377,5.115s-2.387.043-2.387-2.364.854-4.224,2.387-5.11S692.05,143.879,692.05,146.274Zm-4.029,2.327c0,2.026.56,2.73,1.652,2.1,1.074-.62,1.644-1.977,1.644-4s-.57-2.7-1.644-2.082C688.581,145.246,688.021,146.576,688.021,148.6Z" fill="#aefbff"/>
          <path id="Path_289" data-name="Path 289" d="M697.714,143.005c0,2.407-.854,4.235-2.378,5.114s-2.386.044-2.386-2.363.853-4.225,2.386-5.11S697.714,140.61,697.714,143.005Zm-4.031,2.327c0,2.025.56,2.729,1.653,2.1,1.074-.62,1.643-1.977,1.643-4s-.569-2.7-1.643-2.083C694.243,141.977,693.683,143.307,693.683,145.332Z" fill="#aefbff"/>
          <path id="Path_290" data-name="Path 290" d="M703.376,139.736c0,2.407-.853,4.234-2.377,5.114s-2.387.043-2.387-2.364.853-4.224,2.387-5.109S703.376,137.34,703.376,139.736Zm-4.03,2.327c0,2.025.561,2.729,1.653,2.1,1.073-.619,1.644-1.976,1.644-4s-.571-2.7-1.644-2.082C699.907,138.708,699.346,140.038,699.346,142.063Z" fill="#aefbff"/>
          <path id="Path_291" data-name="Path 291" d="M707.121,133.864v7.431l-.735.424v-6.646l-1.515.874v-.784Z" fill="#aefbff"/>
          <path id="Path_292" data-name="Path 292" d="M712.783,130.6v7.431l-.735.424V131.8l-1.514.875v-.785Z" fill="#aefbff"/>
          <path id="Path_293" data-name="Path 293" d="M720.365,129.927c0,2.407-.854,4.235-2.378,5.115s-2.388.043-2.388-2.364.855-4.224,2.388-5.11S720.365,127.532,720.365,129.927Zm-4.031,2.328c0,2.025.56,2.729,1.653,2.1,1.074-.62,1.643-1.977,1.643-4s-.569-2.7-1.643-2.082C716.894,128.9,716.334,130.229,716.334,132.255Z" fill="#aefbff"/>
          <path id="Path_294" data-name="Path 294" d="M726.027,126.658c0,2.407-.853,4.235-2.377,5.115s-2.387.043-2.387-2.364.853-4.224,2.387-5.11S726.027,124.263,726.027,126.658ZM722,128.985c0,2.025.561,2.73,1.653,2.1,1.073-.62,1.644-1.977,1.644-4s-.571-2.7-1.644-2.083C722.558,125.63,722,126.96,722,128.985Z" fill="#aefbff"/>
          <path id="Path_295" data-name="Path 295" d="M729.772,120.786v7.431l-.735.425V122l-1.515.875v-.785Z" fill="#aefbff"/>
          <path id="Path_296" data-name="Path 296" d="M692.05,158.992c0,2.407-.853,4.235-2.377,5.114s-2.387.044-2.387-2.363.854-4.225,2.387-5.11S692.05,156.6,692.05,158.992Zm-4.029,2.327c0,2.025.56,2.729,1.652,2.1,1.074-.62,1.644-1.977,1.644-4s-.57-2.7-1.644-2.083C688.581,157.964,688.021,159.294,688.021,161.319Z" fill="#aefbff"/>
          <path id="Path_297" data-name="Path 297" d="M697.714,155.723c0,2.407-.854,4.234-2.378,5.114s-2.386.043-2.386-2.364.853-4.224,2.386-5.11S697.714,153.327,697.714,155.723Zm-4.031,2.327c0,2.025.56,2.729,1.653,2.1,1.074-.62,1.643-1.976,1.643-4s-.569-2.7-1.643-2.082C694.243,154.694,693.683,156.025,693.683,158.05Z" fill="#aefbff"/>
          <path id="Path_298" data-name="Path 298" d="M703.376,152.453c0,2.407-.853,4.235-2.377,5.115s-2.387.043-2.387-2.364.853-4.224,2.387-5.11S703.376,150.058,703.376,152.453Zm-4.03,2.327c0,2.025.561,2.73,1.653,2.1,1.073-.62,1.644-1.977,1.644-4s-.571-2.7-1.644-2.083C699.907,151.425,699.346,152.755,699.346,154.78Z" fill="#aefbff"/>
          <path id="Path_299" data-name="Path 299" d="M709.039,149.184c0,2.407-.853,4.235-2.377,5.114s-2.387.044-2.387-2.363.853-4.225,2.387-5.11S709.039,146.788,709.039,149.184Zm-4.031,2.327c0,2.025.561,2.729,1.654,2.1,1.073-.619,1.643-1.976,1.643-4s-.57-2.7-1.643-2.083C705.569,148.156,705.008,149.486,705.008,151.511Z" fill="#aefbff"/>
          <path id="Path_300" data-name="Path 300" d="M712.783,143.312v7.431l-.735.424v-6.646l-1.514.874v-.784Z" fill="#aefbff"/>
          <path id="Path_301" data-name="Path 301" d="M718.447,140.043v7.431l-.736.424v-6.647l-1.515.875v-.784Z" fill="#aefbff"/>
          <path id="Path_302" data-name="Path 302" d="M724.109,136.773V144.2l-.735.425v-6.647l-1.515.874v-.784Z" fill="#aefbff"/>
          <path id="Path_303" data-name="Path 303" d="M731.69,136.106c0,2.407-.853,4.235-2.377,5.115s-2.387.043-2.387-2.364.853-4.224,2.387-5.11S731.69,133.711,731.69,136.106Zm-4.031,2.327c0,2.025.561,2.73,1.654,2.1,1.073-.62,1.643-1.977,1.643-4s-.57-2.7-1.643-2.082C728.22,135.078,727.659,136.408,727.659,138.433Z" fill="#aefbff"/>
          <path id="Path_304" data-name="Path 304" d="M692.05,171.709c0,2.407-.853,4.235-2.377,5.115s-2.387.043-2.387-2.364.854-4.224,2.387-5.11S692.05,169.314,692.05,171.709Zm-4.029,2.328c0,2.025.56,2.729,1.652,2.1,1.074-.62,1.644-1.977,1.644-4s-.57-2.7-1.644-2.082C688.581,170.681,688.021,172.011,688.021,174.037Z" fill="#aefbff"/>
          <path id="Path_305" data-name="Path 305" d="M697.714,168.44c0,2.407-.854,4.235-2.378,5.115s-2.386.043-2.386-2.364.853-4.224,2.386-5.11S697.714,166.045,697.714,168.44Zm-4.031,2.327c0,2.025.56,2.73,1.653,2.1,1.074-.62,1.643-1.977,1.643-4s-.569-2.7-1.643-2.083C694.243,167.412,693.683,168.742,693.683,170.767Z" fill="#aefbff"/>
          <path id="Path_306" data-name="Path 306" d="M701.458,162.568V170l-.735.425v-6.647l-1.514.875v-.785Z" fill="#aefbff"/>
          <path id="Path_307" data-name="Path 307" d="M709.039,161.9c0,2.407-.853,4.235-2.377,5.115s-2.387.043-2.387-2.364.853-4.224,2.387-5.11S709.039,159.506,709.039,161.9Zm-4.031,2.327c0,2.025.561,2.73,1.654,2.1,1.073-.62,1.643-1.977,1.643-4s-.57-2.7-1.643-2.082C705.569,160.873,705.008,162.2,705.008,164.228Z" fill="#aefbff"/>
          <path id="Path_308" data-name="Path 308" d="M712.783,156.03v7.431l-.735.424v-6.647l-1.514.875v-.785Z" fill="#aefbff"/>
          <path id="Path_309" data-name="Path 309" d="M718.447,152.76v7.431l-.736.425v-6.647l-1.515.874v-.784Z" fill="#aefbff"/>
          <path id="Path_310" data-name="Path 310" d="M724.109,149.491v7.431l-.735.424V150.7l-1.515.875v-.784Z" fill="#aefbff"/>
          <path id="Path_311" data-name="Path 311" d="M729.772,146.221v7.432l-.735.424V147.43l-1.515.875v-.785Z" fill="#aefbff"/>
          <path id="Path_312" data-name="Path 312" d="M692.05,184.427c0,2.407-.853,4.235-2.377,5.115s-2.387.043-2.387-2.364.854-4.225,2.387-5.11S692.05,182.032,692.05,184.427Zm-4.029,2.327c0,2.025.56,2.73,1.652,2.1,1.074-.62,1.644-1.977,1.644-4s-.57-2.7-1.644-2.083C688.581,183.4,688.021,184.729,688.021,186.754Z" fill="#aefbff"/>
          <path id="Path_313" data-name="Path 313" d="M697.714,181.158c0,2.407-.854,4.234-2.378,5.114s-2.386.043-2.386-2.364.853-4.224,2.386-5.11S697.714,178.762,697.714,181.158Zm-4.031,2.327c0,2.025.56,2.729,1.653,2.1,1.074-.62,1.643-1.976,1.643-4s-.569-2.7-1.643-2.083C694.243,180.13,693.683,181.46,693.683,183.485Z" fill="#aefbff"/>
          <path id="Path_314" data-name="Path 314" d="M703.376,177.888c0,2.407-.853,4.235-2.377,5.115s-2.387.043-2.387-2.364.853-4.224,2.387-5.11S703.376,175.493,703.376,177.888Zm-4.03,2.327c0,2.025.561,2.73,1.653,2.1,1.073-.62,1.644-1.977,1.644-4s-.571-2.7-1.644-2.082C699.907,176.86,699.346,178.19,699.346,180.215Z" fill="#aefbff"/>
          <path id="Path_315" data-name="Path 315" d="M707.121,172.017v7.431l-.735.424v-6.647l-1.515.875v-.785Z" fill="#aefbff"/>
          <path id="Path_316" data-name="Path 316" d="M712.783,168.747v7.431l-.735.425v-6.647l-1.514.874v-.784Z" fill="#aefbff"/>
          <path id="Path_317" data-name="Path 317" d="M720.365,168.08c0,2.407-.854,4.235-2.378,5.115s-2.388.043-2.388-2.364.855-4.225,2.388-5.11S720.365,165.685,720.365,168.08Zm-4.031,2.327c0,2.025.56,2.73,1.653,2.1,1.074-.62,1.643-1.977,1.643-4s-.569-2.7-1.643-2.083C716.894,167.052,716.334,168.382,716.334,170.407Z" fill="#aefbff"/>
          <path id="Path_318" data-name="Path 318" d="M724.109,162.208v7.432l-.735.424v-6.647l-1.515.875v-.785Z" fill="#aefbff"/>
          <path id="Path_319" data-name="Path 319" d="M731.69,161.542c0,2.406-.853,4.234-2.377,5.114s-2.387.043-2.387-2.364.853-4.224,2.387-5.11S731.69,159.146,731.69,161.542Zm-4.031,2.326c0,2.026.561,2.73,1.654,2.1,1.073-.62,1.643-1.977,1.643-4s-.57-2.7-1.643-2.082C728.22,160.513,727.659,161.843,727.659,163.868Z" fill="#aefbff"/>
          <path id="Path_320" data-name="Path 320" d="M692.05,197.145c0,2.406-.853,4.234-2.377,5.114s-2.387.043-2.387-2.364.854-4.224,2.387-5.11S692.05,194.749,692.05,197.145Zm-4.029,2.327c0,2.025.56,2.729,1.652,2.1,1.074-.62,1.644-1.977,1.644-4s-.57-2.7-1.644-2.082C688.581,196.117,688.021,197.447,688.021,199.472Z" fill="#aefbff"/>
          <path id="Path_321" data-name="Path 321" d="M697.714,193.875c0,2.407-.854,4.235-2.378,5.115s-2.386.043-2.386-2.364.853-4.224,2.386-5.11S697.714,191.48,697.714,193.875Zm-4.031,2.327c0,2.025.56,2.73,1.653,2.1,1.074-.62,1.643-1.977,1.643-4s-.569-2.7-1.643-2.083C694.243,192.847,693.683,194.177,693.683,196.2Z" fill="#aefbff"/>
          <path id="Path_322" data-name="Path 322" d="M703.376,190.606c0,2.407-.853,4.235-2.377,5.114s-2.387.044-2.387-2.363.853-4.225,2.387-5.11S703.376,188.211,703.376,190.606Zm-4.03,2.327c0,2.025.561,2.729,1.653,2.1,1.073-.62,1.644-1.977,1.644-4s-.571-2.7-1.644-2.083C699.907,189.578,699.346,190.908,699.346,192.933Z" fill="#aefbff"/>
          <path id="Path_323" data-name="Path 323" d="M709.039,187.337c0,2.406-.853,4.234-2.377,5.114s-2.387.043-2.387-2.364.853-4.224,2.387-5.11S709.039,184.941,709.039,187.337Zm-4.031,2.326c0,2.026.561,2.73,1.654,2.1,1.073-.62,1.643-1.977,1.643-4s-.57-2.7-1.643-2.082C705.569,186.308,705.008,187.638,705.008,189.663Z" fill="#aefbff"/>
          <path id="Path_324" data-name="Path 324" d="M712.783,181.465V188.9l-.735.424v-6.647l-1.514.875v-.784Z" fill="#aefbff"/>
          <path id="Path_325" data-name="Path 325" d="M718.447,178.2v7.432l-.736.424V179.4l-1.515.875v-.785Z" fill="#aefbff"/>
          <path id="Path_326" data-name="Path 326" d="M724.109,174.926v7.431l-.735.425v-6.647l-1.515.874v-.784Z" fill="#aefbff"/>
          <path id="Path_327" data-name="Path 327" d="M731.69,174.259c0,2.407-.853,4.235-2.377,5.114s-2.387.044-2.387-2.363.853-4.225,2.387-5.11S731.69,171.864,731.69,174.259Zm-4.031,2.327c0,2.025.561,2.729,1.654,2.1,1.073-.62,1.643-1.977,1.643-4s-.57-2.7-1.643-2.083C728.22,173.231,727.659,174.561,727.659,176.586Z" fill="#aefbff"/>
          <path id="Path_328" data-name="Path 328" d="M692.05,209.863c0,2.407-.853,4.235-2.377,5.115s-2.387.043-2.387-2.364.854-4.224,2.387-5.11S692.05,207.468,692.05,209.863Zm-4.029,2.327c0,2.025.56,2.73,1.652,2.1,1.074-.62,1.644-1.977,1.644-4s-.57-2.7-1.644-2.083C688.581,208.835,688.021,210.165,688.021,212.19Z" fill="#aefbff"/>
          <path id="Path_329" data-name="Path 329" d="M697.714,206.594c0,2.407-.854,4.235-2.378,5.114s-2.386.044-2.386-2.363.853-4.225,2.386-5.11S697.714,204.2,697.714,206.594Zm-4.031,2.327c0,2.025.56,2.729,1.653,2.1,1.074-.62,1.643-1.977,1.643-4s-.569-2.7-1.643-2.083C694.243,205.566,693.683,206.9,693.683,208.921Z" fill="#aefbff"/>
          <path id="Path_330" data-name="Path 330" d="M701.458,200.722v7.431l-.735.425v-6.647l-1.514.874v-.784Z" fill="#aefbff"/>
          <path id="Path_331" data-name="Path 331" d="M709.039,200.055c0,2.407-.853,4.235-2.377,5.115s-2.387.043-2.387-2.364.853-4.224,2.387-5.11S709.039,197.66,709.039,200.055Zm-4.031,2.327c0,2.025.561,2.73,1.654,2.1,1.073-.62,1.643-1.977,1.643-4s-.57-2.7-1.643-2.083C705.569,199.027,705.008,200.357,705.008,202.382Z" fill="#aefbff"/>
          <path id="Path_332" data-name="Path 332" d="M712.783,194.183v7.432l-.735.424v-6.647l-1.514.875v-.785Z" fill="#aefbff"/>
          <path id="Path_333" data-name="Path 333" d="M718.447,190.914v7.431l-.736.425v-6.647L716.2,193v-.784Z" fill="#aefbff"/>
          <path id="Path_334" data-name="Path 334" d="M724.109,187.645v7.431l-.735.424v-6.647l-1.515.875v-.784Z" fill="#aefbff"/>
          <path id="Path_335" data-name="Path 335" d="M731.69,186.978c0,2.407-.853,4.234-2.377,5.114s-2.387.043-2.387-2.364.853-4.224,2.387-5.11S731.69,184.582,731.69,186.978Zm-4.031,2.327c0,2.025.561,2.729,1.654,2.1,1.073-.62,1.643-1.976,1.643-4s-.57-2.7-1.643-2.082C728.22,185.95,727.659,187.28,727.659,189.3Z" fill="#aefbff"/>
          <path id="Path_336" data-name="Path 336" d="M692.05,222.581c0,2.407-.853,4.235-2.377,5.114s-2.387.044-2.387-2.363.854-4.225,2.387-5.11S692.05,220.185,692.05,222.581Zm-4.029,2.327c0,2.025.56,2.729,1.652,2.1,1.074-.62,1.644-1.977,1.644-4s-.57-2.7-1.644-2.083C688.581,221.553,688.021,222.883,688.021,224.908Z" fill="#aefbff"/>
          <path id="Path_337" data-name="Path 337" d="M697.714,219.311c0,2.407-.854,4.235-2.378,5.115s-2.386.043-2.386-2.364.853-4.224,2.386-5.11S697.714,216.916,697.714,219.311Zm-4.031,2.328c0,2.025.56,2.729,1.653,2.1,1.074-.62,1.643-1.977,1.643-4s-.569-2.7-1.643-2.082C694.243,218.283,693.683,219.613,693.683,221.639Z" fill="#aefbff"/>
          <path id="Path_338" data-name="Path 338" d="M703.376,216.042c0,2.407-.853,4.235-2.377,5.115s-2.387.043-2.387-2.364.853-4.225,2.387-5.11S703.376,213.647,703.376,216.042Zm-4.03,2.327c0,2.025.561,2.73,1.653,2.1,1.073-.62,1.644-1.977,1.644-4s-.571-2.7-1.644-2.083C699.907,215.014,699.346,216.344,699.346,218.369Z" fill="#aefbff"/>
          <path id="Path_339" data-name="Path 339" d="M707.121,210.17V217.6l-.735.425v-6.647l-1.515.874v-.784Z" fill="#aefbff"/>
          <path id="Path_340" data-name="Path 340" d="M712.783,206.9v7.431l-.735.425V208.11l-1.514.874V208.2Z" fill="#aefbff"/>
          <path id="Path_341" data-name="Path 341" d="M720.365,206.234c0,2.407-.854,4.235-2.378,5.115s-2.388.043-2.388-2.364.855-4.225,2.388-5.11S720.365,203.839,720.365,206.234Zm-4.031,2.327c0,2.025.56,2.729,1.653,2.1,1.074-.62,1.643-1.977,1.643-4s-.569-2.7-1.643-2.083C716.894,205.206,716.334,206.536,716.334,208.561Z" fill="#aefbff"/>
          <path id="Path_342" data-name="Path 342" d="M724.109,200.362v7.431l-.735.425v-6.647l-1.515.874v-.784Z" fill="#aefbff"/>
          <path id="Path_343" data-name="Path 343" d="M729.772,197.093v7.431l-.735.424V198.3l-1.515.875v-.784Z" fill="#aefbff"/>
          <path id="Path_344" data-name="Path 344" d="M692.05,235.3c0,2.407-.853,4.235-2.377,5.115s-2.387.043-2.387-2.364.854-4.224,2.387-5.11S692.05,232.9,692.05,235.3Zm-4.029,2.327c0,2.025.56,2.73,1.652,2.1,1.074-.62,1.644-1.977,1.644-4s-.57-2.7-1.644-2.082C688.581,234.27,688.021,235.6,688.021,237.625Z" fill="#aefbff"/>
          <path id="Path_345" data-name="Path 345" d="M697.714,232.029c0,2.407-.854,4.235-2.378,5.115s-2.386.043-2.386-2.364.853-4.225,2.386-5.11S697.714,229.634,697.714,232.029Zm-4.031,2.327c0,2.025.56,2.73,1.653,2.1,1.074-.62,1.643-1.977,1.643-4s-.569-2.7-1.643-2.083C694.243,231,693.683,232.331,693.683,234.356Z" fill="#aefbff"/>
          <path id="Path_346" data-name="Path 346" d="M703.376,228.76c0,2.407-.853,4.234-2.377,5.114s-2.387.043-2.387-2.364.853-4.224,2.387-5.11S703.376,226.364,703.376,228.76Zm-4.03,2.327c0,2.025.561,2.729,1.653,2.1,1.073-.62,1.644-1.977,1.644-4s-.571-2.7-1.644-2.082C699.907,227.732,699.346,229.061,699.346,231.087Z" fill="#aefbff"/>
          <path id="Path_347" data-name="Path 347" d="M709.039,225.49c0,2.407-.853,4.235-2.377,5.115s-2.387.043-2.387-2.364.853-4.224,2.387-5.11S709.039,223.1,709.039,225.49Zm-4.031,2.327c0,2.025.561,2.73,1.654,2.1,1.073-.62,1.643-1.977,1.643-4s-.57-2.7-1.643-2.082C705.569,224.462,705.008,225.792,705.008,227.817Z" fill="#aefbff"/>
          <path id="Path_348" data-name="Path 348" d="M712.783,219.618v7.432l-.735.424v-6.647l-1.514.875v-.785Z" fill="#aefbff"/>
          <path id="Path_349" data-name="Path 349" d="M718.447,216.349v7.431l-.736.425v-6.647l-1.515.874v-.784Z" fill="#aefbff"/>
          <path id="Path_350" data-name="Path 350" d="M724.109,213.08v7.431l-.735.424v-6.647l-1.515.875v-.784Z" fill="#aefbff"/>
          <path id="Path_351" data-name="Path 351" d="M731.69,212.413c0,2.407-.853,4.235-2.377,5.114s-2.387.043-2.387-2.364.853-4.224,2.387-5.109S731.69,210.017,731.69,212.413Zm-4.031,2.327c0,2.025.561,2.729,1.654,2.1,1.073-.619,1.643-1.976,1.643-4s-.57-2.7-1.643-2.083C728.22,211.385,727.659,212.715,727.659,214.74Z" fill="#aefbff"/>
        </g>
      </g>
      <g id="Group_16" data-name="Group 16" style="mix-blend-mode: screen;isolation: isolate">
        <g id="Group_15" data-name="Group 15">
          <path id="Path_352" data-name="Path 352" d="M625.433,253.817a7.175,7.175,0,0,0-1,14.28V393.691h2V268.1a7.175,7.175,0,0,0-1-14.28Zm0,12.358A5.179,5.179,0,1,1,630.612,261,5.184,5.184,0,0,1,625.433,266.175Z" fill="url(#linear-gradient-16)"/>
          <path id="Path_353" data-name="Path 353" d="M657.139,221.649a5.7,5.7,0,1,0-6.7,5.606v95.3h2v-95.3A5.705,5.705,0,0,0,657.139,221.649Zm-5.7,3.7a3.7,3.7,0,1,1,3.7-3.7A3.7,3.7,0,0,1,651.439,225.348Z" fill="url(#linear-gradient-17)"/>
        </g>
      </g>
      <path id="Path_354" data-name="Path 354" d="M568.867,371.365l-99.852-56.883V243.6l99.852,53.641Z" fill="url(#linear-gradient-18)"/>
      <path id="Path_355" data-name="Path 355" d="M566.328,364.01l-97.313-56.184v-70.88l97.313,56.184Z" fill="#0897f9"/>
      <path id="Path_356" data-name="Path 356" d="M563.092,366.731l-97.314-56.184v-70.88l97.314,56.184Z" fill="#61f0f7"/>
      <g id="Group_17" data-name="Group 17">
        <path id="Path_357" data-name="Path 357" d="M486.493,274.507l-17.2-9.929V250.285l17.2,9.929Z" fill="url(#linear-gradient-19)"/>
        <path id="Path_358" data-name="Path 358" d="M486.493,294.569l-17.2-9.929V270.347l17.2,9.929Z" fill="url(#linear-gradient-20)"/>
        <path id="Path_359" data-name="Path 359" d="M486.493,316.114l-17.2-9.929V291.892l17.2,9.929Z" fill="url(#linear-gradient-21)"/>
        <path id="Path_360" data-name="Path 360" d="M538.085,304.293l-17.2-9.929V280.071l17.2,9.929Z" fill="url(#linear-gradient-22)"/>
        <path id="Path_361" data-name="Path 361" d="M538.085,324.355l-17.2-9.929V300.133l17.2,9.929Z" fill="url(#linear-gradient-23)"/>
        <path id="Path_362" data-name="Path 362" d="M564.659,343.1l-18.316-10.575V311.372l18.316,10.575Z" fill="url(#linear-gradient-24)"/>
        <path id="Path_363" data-name="Path 363" d="M538.085,345.9l-17.2-9.929V321.678l17.2,9.929Z" fill="url(#linear-gradient-25)"/>
        <path id="Path_364" data-name="Path 364" d="M508.715,266.946l-12.855-7.422V248.84l12.855,7.422Z" fill="url(#linear-gradient-26)"/>
        <path id="Path_365" data-name="Path 365" d="M508.715,281.942,495.86,274.52V263.836l12.855,7.422Z" fill="url(#linear-gradient-27)"/>
        <path id="Path_366" data-name="Path 366" d="M508.715,298.046l-12.855-7.422V279.94l12.855,7.422Z" fill="url(#linear-gradient-28)"/>
        <path id="Path_367" data-name="Path 367" d="M508.715,314.151l-12.855-7.422V296.045l12.855,7.422Z" fill="url(#linear-gradient-29)"/>
        <path id="Path_368" data-name="Path 368" d="M508.715,329.147l-12.855-7.422V311.041l12.855,7.422Z" fill="url(#linear-gradient-30)"/>
        <path id="Path_369" data-name="Path 369" d="M508.715,345.252,495.86,337.83V327.146l12.855,7.422Z" fill="url(#linear-gradient-31)"/>
      </g>
      <g id="Group_31" data-name="Group 31">
        <rect id="Rectangle_2" data-name="Rectangle 2" width="5.485" height="15.299" transform="translate(416.686 291.823) rotate(53.597)" fill="url(#linear-gradient-32)"/>
        <g id="Group_18" data-name="Group 18">
          <path id="Path_370" data-name="Path 370" d="M373.55,326.139a3.13,3.13,0,0,1-1.786-.149.9.9,0,0,1-.182-1.7l22.048-16.177a3.276,3.276,0,0,1,2.945-.325.9.9,0,0,1,.182,1.7l-22.048,16.177A2.883,2.883,0,0,1,373.55,326.139Z" fill="#4468ea"/>
        </g>
        <g id="Group_19" data-name="Group 19">
          <path id="Path_371" data-name="Path 371" d="M352.572,341.45a3.15,3.15,0,0,1-1.8-.155c-.856-.386-.924-1.148-.152-1.706l15.3-11.017a3.293,3.293,0,0,1,2.949-.308c.856.386.924,1.148.152,1.7l-15.3,11.018A2.928,2.928,0,0,1,352.572,341.45Z" fill="#4468ea"/>
        </g>
        <g id="Group_21" data-name="Group 21">
          <g id="Group_20" data-name="Group 20">
            <path id="Path_372" data-name="Path 372" d="M404.942,301.027l-.707-6.443,12.318-9.037.707,6.443Z" fill="url(#linear-gradient-33)"/>
          </g>
        </g>
        <g id="Group_23" data-name="Group 23">
          <g id="Group_22" data-name="Group 22">
            <path id="Path_373" data-name="Path 373" d="M411.817,287.817c.31-20.108,14.718-44.406,32.116-54.165s31.3-1.34,30.99,18.767-14.719,44.406-32.117,54.165S411.506,307.924,411.817,287.817Zm57.321-32.153c.254-16.421-11.1-23.3-25.308-15.327s-25.975,27.814-26.229,44.235,11.1,23.3,25.308,15.327S468.884,272.085,469.138,255.664Z" fill="url(#linear-gradient-34)"/>
          </g>
        </g>
        <path id="Path_374" data-name="Path 374" d="M400.3,296.019l-.267-2.435-52.135,38.248A13.465,13.465,0,0,0,343,342.99a6.361,6.361,0,0,0,.505,1.939,4.507,4.507,0,0,0,2.809,2.825,13.467,13.467,0,0,0,12.111-1.339L410.7,308.06l-2.321-1.02A13.669,13.669,0,0,1,400.3,296.019Z" fill="url(#linear-gradient-35)"/>
        <path id="Path_375" data-name="Path 375" d="M410.838,303.264l-.539-.249a10.556,10.556,0,0,1-6.065-8.43h0l-4.205-1-.084,1.28a13.409,13.409,0,0,0,.687,5.38,11.953,11.953,0,0,0,3.261,4.916,11.67,11.67,0,0,0,6.81,2.9Z" fill="url(#linear-gradient-36)"/>
        <g id="Group_25" data-name="Group 25">
          <g id="Group_24" data-name="Group 24">
            <path id="Path_376" data-name="Path 376" d="M371.445,320.277c-.364-.07-.63-.4-.69-.957a3.273,3.273,0,0,1,1.191-2.713l21.988-16.132c.759-.557,1.462-.247,1.564.693a3.273,3.273,0,0,1-1.191,2.712l-21.988,16.133A1.14,1.14,0,0,1,371.445,320.277Z" fill="#21cde1"/>
          </g>
        </g>
        <g id="Group_27" data-name="Group 27">
          <g id="Group_26" data-name="Group 26">
            <path id="Path_377" data-name="Path 377" d="M350.584,335.5c-.368-.071-.634-.414-.692-.974a3.278,3.278,0,0,1,1.207-2.708l15.1-10.872c.762-.544,1.455-.222,1.553.721a3.279,3.279,0,0,1-1.208,2.708l-15.1,10.872A1.141,1.141,0,0,1,350.584,335.5Z" fill="#21cde1"/>
          </g>
        </g>
        <path id="Path_378" data-name="Path 378" d="M462.2,276.511a60.761,60.761,0,0,1-6.154,9.967c-6.209,8.167-13.954,13.84-21.134,15.569a16.279,16.279,0,0,1-9.073-.18c-11.344-3.8-13.443-21.326-4.71-39.115,8.743-17.808,25.017-29.156,36.361-25.356,6.124,2.052,9.551,8.082,10.044,16.009.382,6.241-1.048,13.635-4.424,21.168Q462.675,275.548,462.2,276.511Z" fill="url(#linear-gradient-37)" style="mix-blend-mode: overlay;isolation: isolate"/>
        <path id="Path_379" data-name="Path 379" d="M462.814,254.975c-3.545,7.125-11.567,11.223-17.917,9.154s-8.626-9.522-5.082-16.646,11.567-11.224,17.918-9.155S466.358,247.85,462.814,254.975Z" fill="url(#linear-gradient-38)" style="mix-blend-mode: overlay;isolation: isolate"/>
        <g id="Group_30" data-name="Group 30">
          <g id="Group_29" data-name="Group 29">
            <g id="Group_28" data-name="Group 28">
              <path id="Path_380" data-name="Path 380" d="M410.93,285.438c.3-19.492,14.363-43.045,31.347-52.5s30.555-1.295,30.254,18.2-14.363,43.044-31.347,52.5S410.629,304.929,410.93,285.438Zm55.954-31.163c.246-15.918-10.838-22.584-24.707-14.86s-25.354,26.959-25.6,42.878,10.838,22.584,24.708,14.86S466.638,270.194,466.884,254.275Z" fill="url(#linear-gradient-39)"/>
            </g>
          </g>
        </g>
      </g>
    </g>
  </g>
</svg>
